# MagicaVoxel @ Ephtracy

# group
o 

# material
mtllib Carrot 1.mtl
usemtl palette

# normals
vn -1 0 0
vn 1 0 0
vn 0 0 1
vn 0 0 -1
vn 0 -1 0
vn 0 1 0

# texcoords
vt 0.0722656 0.5
vt 0.220703 0.5
vt 0.224609 0.5

# verts
v -0.45 -0.5 0.45
v -0.45 -0.5 -0.45
v -0.45 -0.4 0.45
v -0.45 -0.4 -0.45
v -0.35 -0.4 0.35
v -0.35 -0.4 -0.35
v -0.35 -0.3 0.35
v -0.35 -0.3 0.25
v -0.35 -0.3 0.15
v -0.35 -0.3 0.05
v -0.35 -0.3 -0.05
v -0.35 -0.3 -0.15
v -0.35 -0.3 -0.25
v -0.35 -0.3 -0.35
v -0.35 -0.2 0.25
v -0.35 -0.2 0.15
v -0.35 -0.2 0.05
v -0.35 -0.2 -0.05
v -0.35 -0.2 -0.15
v -0.35 -0.2 -0.25
v -0.05 -0.4 0.35
v -0.05 -0.4 -0.35
v -0.05 -0.3 0.35
v -0.05 -0.3 0.25
v -0.05 -0.3 0.15
v -0.05 -0.3 0.05
v -0.05 -0.3 -0.05
v -0.05 -0.3 -0.15
v -0.05 -0.3 -0.25
v -0.05 -0.3 -0.35
v -0.05 -0.2 0.25
v -0.05 -0.2 0.15
v -0.05 -0.2 0.05
v -0.05 -0.2 -0.05
v -0.05 -0.2 -0.15
v -0.05 -0.2 -0.25
v 0.25 -0.4 0.35
v 0.25 -0.4 -0.35
v 0.25 -0.3 0.35
v 0.25 -0.3 0.25
v 0.25 -0.3 0.15
v 0.25 -0.3 0.05
v 0.25 -0.3 -0.05
v 0.25 -0.3 -0.15
v 0.25 -0.3 -0.25
v 0.25 -0.3 -0.35
v 0.25 -0.2 0.25
v 0.25 -0.2 0.15
v 0.25 -0.2 0.05
v 0.25 -0.2 -0.05
v 0.25 -0.2 -0.15
v 0.25 -0.2 -0.25
v -0.25 -0.4 0.35
v -0.25 -0.4 -0.35
v -0.25 -0.3 0.35
v -0.25 -0.3 0.25
v -0.25 -0.3 0.15
v -0.25 -0.3 0.05
v -0.25 -0.3 -0.05
v -0.25 -0.3 -0.15
v -0.25 -0.3 -0.25
v -0.25 -0.3 -0.35
v -0.25 -0.2 0.25
v -0.25 -0.2 0.15
v -0.25 -0.2 0.05
v -0.25 -0.2 -0.05
v -0.25 -0.2 -0.15
v -0.25 -0.2 -0.25
v 0.05 -0.4 0.35
v 0.05 -0.4 -0.35
v 0.05 -0.3 0.35
v 0.05 -0.3 0.25
v 0.05 -0.3 0.15
v 0.05 -0.3 0.05
v 0.05 -0.3 -0.05
v 0.05 -0.3 -0.15
v 0.05 -0.3 -0.25
v 0.05 -0.3 -0.35
v 0.05 -0.2 0.25
v 0.05 -0.2 0.15
v 0.05 -0.2 0.05
v 0.05 -0.2 -0.05
v 0.05 -0.2 -0.15
v 0.05 -0.2 -0.25
v 0.35 -0.4 0.35
v 0.35 -0.4 -0.35
v 0.35 -0.3 0.35
v 0.35 -0.3 0.25
v 0.35 -0.3 0.15
v 0.35 -0.3 0.05
v 0.35 -0.3 -0.05
v 0.35 -0.3 -0.15
v 0.35 -0.3 -0.25
v 0.35 -0.3 -0.35
v 0.35 -0.2 0.25
v 0.35 -0.2 0.15
v 0.35 -0.2 0.05
v 0.35 -0.2 -0.05
v 0.35 -0.2 -0.15
v 0.35 -0.2 -0.25
v 0.45 -0.5 0.45
v 0.45 -0.5 -0.45
v 0.45 -0.4 0.45
v 0.45 -0.4 -0.45
v -0.45 -0.5 0.45
v -0.45 -0.4 0.45
v 0.45 -0.5 0.45
v 0.45 -0.4 0.45
v -0.35 -0.4 0.35
v -0.35 -0.3 0.35
v -0.25 -0.4 0.35
v -0.25 -0.3 0.35
v -0.05 -0.4 0.35
v -0.05 -0.3 0.35
v 0.05 -0.4 0.35
v 0.05 -0.3 0.35
v 0.25 -0.4 0.35
v 0.25 -0.3 0.35
v 0.35 -0.4 0.35
v 0.35 -0.3 0.35
v -0.35 -0.3 0.25
v -0.35 -0.2 0.25
v -0.25 -0.3 0.25
v -0.25 -0.2 0.25
v -0.05 -0.3 0.25
v -0.05 -0.2 0.25
v 0.05 -0.3 0.25
v 0.05 -0.2 0.25
v 0.25 -0.3 0.25
v 0.25 -0.2 0.25
v 0.35 -0.3 0.25
v 0.35 -0.2 0.25
v -0.35 -0.3 0.05
v -0.35 -0.2 0.05
v -0.25 -0.3 0.05
v -0.25 -0.2 0.05
v -0.05 -0.3 0.05
v -0.05 -0.2 0.05
v 0.05 -0.3 0.05
v 0.05 -0.2 0.05
v 0.25 -0.3 0.05
v 0.25 -0.2 0.05
v 0.35 -0.3 0.05
v 0.35 -0.2 0.05
v -0.35 -0.3 -0.15
v -0.35 -0.2 -0.15
v -0.25 -0.3 -0.15
v -0.25 -0.2 -0.15
v -0.05 -0.3 -0.15
v -0.05 -0.2 -0.15
v 0.05 -0.3 -0.15
v 0.05 -0.2 -0.15
v 0.25 -0.3 -0.15
v 0.25 -0.2 -0.15
v 0.35 -0.3 -0.15
v 0.35 -0.2 -0.15
v -0.35 -0.3 0.15
v -0.35 -0.2 0.15
v -0.25 -0.3 0.15
v -0.25 -0.2 0.15
v -0.05 -0.3 0.15
v -0.05 -0.2 0.15
v 0.05 -0.3 0.15
v 0.05 -0.2 0.15
v 0.25 -0.3 0.15
v 0.25 -0.2 0.15
v 0.35 -0.3 0.15
v 0.35 -0.2 0.15
v -0.35 -0.3 -0.05
v -0.35 -0.2 -0.05
v -0.25 -0.3 -0.05
v -0.25 -0.2 -0.05
v -0.05 -0.3 -0.05
v -0.05 -0.2 -0.05
v 0.05 -0.3 -0.05
v 0.05 -0.2 -0.05
v 0.25 -0.3 -0.05
v 0.25 -0.2 -0.05
v 0.35 -0.3 -0.05
v 0.35 -0.2 -0.05
v -0.35 -0.3 -0.25
v -0.35 -0.2 -0.25
v -0.25 -0.3 -0.25
v -0.25 -0.2 -0.25
v -0.05 -0.3 -0.25
v -0.05 -0.2 -0.25
v 0.05 -0.3 -0.25
v 0.05 -0.2 -0.25
v 0.25 -0.3 -0.25
v 0.25 -0.2 -0.25
v 0.35 -0.3 -0.25
v 0.35 -0.2 -0.25
v -0.35 -0.4 -0.35
v -0.35 -0.3 -0.35
v -0.25 -0.4 -0.35
v -0.25 -0.3 -0.35
v -0.05 -0.4 -0.35
v -0.05 -0.3 -0.35
v 0.05 -0.4 -0.35
v 0.05 -0.3 -0.35
v 0.25 -0.4 -0.35
v 0.25 -0.3 -0.35
v 0.35 -0.4 -0.35
v 0.35 -0.3 -0.35
v -0.45 -0.5 -0.45
v -0.45 -0.4 -0.45
v 0.45 -0.5 -0.45
v 0.45 -0.4 -0.45
v -0.45 -0.5 0.45
v 0.45 -0.5 0.45
v -0.45 -0.5 -0.45
v 0.45 -0.5 -0.45
v -0.45 -0.4 0.45
v 0.45 -0.4 0.45
v -0.35 -0.4 0.35
v -0.25 -0.4 0.35
v -0.05 -0.4 0.35
v 0.05 -0.4 0.35
v 0.25 -0.4 0.35
v 0.35 -0.4 0.35
v -0.35 -0.4 -0.35
v -0.25 -0.4 -0.35
v -0.05 -0.4 -0.35
v 0.05 -0.4 -0.35
v 0.25 -0.4 -0.35
v 0.35 -0.4 -0.35
v -0.45 -0.4 -0.45
v 0.45 -0.4 -0.45
v -0.35 -0.3 0.35
v -0.25 -0.3 0.35
v -0.05 -0.3 0.35
v 0.05 -0.3 0.35
v 0.25 -0.3 0.35
v 0.35 -0.3 0.35
v -0.35 -0.3 0.25
v -0.25 -0.3 0.25
v -0.05 -0.3 0.25
v 0.05 -0.3 0.25
v 0.25 -0.3 0.25
v 0.35 -0.3 0.25
v -0.35 -0.3 0.15
v -0.25 -0.3 0.15
v -0.05 -0.3 0.15
v 0.05 -0.3 0.15
v 0.25 -0.3 0.15
v 0.35 -0.3 0.15
v -0.35 -0.3 0.05
v -0.25 -0.3 0.05
v -0.05 -0.3 0.05
v 0.05 -0.3 0.05
v 0.25 -0.3 0.05
v 0.35 -0.3 0.05
v -0.35 -0.3 -0.05
v -0.25 -0.3 -0.05
v -0.05 -0.3 -0.05
v 0.05 -0.3 -0.05
v 0.25 -0.3 -0.05
v 0.35 -0.3 -0.05
v -0.35 -0.3 -0.15
v -0.25 -0.3 -0.15
v -0.05 -0.3 -0.15
v 0.05 -0.3 -0.15
v 0.25 -0.3 -0.15
v 0.35 -0.3 -0.15
v -0.35 -0.3 -0.25
v -0.25 -0.3 -0.25
v -0.05 -0.3 -0.25
v 0.05 -0.3 -0.25
v 0.25 -0.3 -0.25
v 0.35 -0.3 -0.25
v -0.35 -0.3 -0.35
v -0.25 -0.3 -0.35
v -0.05 -0.3 -0.35
v 0.05 -0.3 -0.35
v 0.25 -0.3 -0.35
v 0.35 -0.3 -0.35
v -0.35 -0.2 0.25
v -0.25 -0.2 0.25
v -0.05 -0.2 0.25
v 0.05 -0.2 0.25
v 0.25 -0.2 0.25
v 0.35 -0.2 0.25
v -0.35 -0.2 0.15
v -0.25 -0.2 0.15
v -0.05 -0.2 0.15
v 0.05 -0.2 0.15
v 0.25 -0.2 0.15
v 0.35 -0.2 0.15
v -0.35 -0.2 0.05
v -0.25 -0.2 0.05
v -0.05 -0.2 0.05
v 0.05 -0.2 0.05
v 0.25 -0.2 0.05
v 0.35 -0.2 0.05
v -0.35 -0.2 -0.05
v -0.25 -0.2 -0.05
v -0.05 -0.2 -0.05
v 0.05 -0.2 -0.05
v 0.25 -0.2 -0.05
v 0.35 -0.2 -0.05
v -0.35 -0.2 -0.15
v -0.25 -0.2 -0.15
v -0.05 -0.2 -0.15
v 0.05 -0.2 -0.15
v 0.25 -0.2 -0.15
v 0.35 -0.2 -0.15
v -0.35 -0.2 -0.25
v -0.25 -0.2 -0.25
v -0.05 -0.2 -0.25
v 0.05 -0.2 -0.25
v 0.25 -0.2 -0.25
v 0.35 -0.2 -0.25

# faces
f 3/2/1 2/2/1 1/2/1
f 4/2/1 2/2/1 3/2/1
f 7/3/1 6/3/1 5/3/1
f 8/3/1 6/3/1 7/3/1
f 9/3/1 6/3/1 8/3/1
f 10/3/1 6/3/1 9/3/1
f 11/3/1 6/3/1 10/3/1
f 12/3/1 6/3/1 11/3/1
f 13/3/1 6/3/1 12/3/1
f 14/3/1 6/3/1 13/3/1
f 15/1/1 9/1/1 8/1/1
f 16/1/1 9/1/1 15/1/1
f 17/1/1 11/1/1 10/1/1
f 18/1/1 11/1/1 17/1/1
f 19/1/1 13/1/1 12/1/1
f 20/1/1 13/1/1 19/1/1
f 23/3/1 22/3/1 21/3/1
f 24/3/1 22/3/1 23/3/1
f 25/3/1 22/3/1 24/3/1
f 26/3/1 22/3/1 25/3/1
f 27/3/1 22/3/1 26/3/1
f 28/3/1 22/3/1 27/3/1
f 29/3/1 22/3/1 28/3/1
f 30/3/1 22/3/1 29/3/1
f 31/1/1 25/1/1 24/1/1
f 32/1/1 25/1/1 31/1/1
f 33/1/1 27/1/1 26/1/1
f 34/1/1 27/1/1 33/1/1
f 35/1/1 29/1/1 28/1/1
f 36/1/1 29/1/1 35/1/1
f 39/3/1 38/3/1 37/3/1
f 40/3/1 38/3/1 39/3/1
f 41/3/1 38/3/1 40/3/1
f 42/3/1 38/3/1 41/3/1
f 43/3/1 38/3/1 42/3/1
f 44/3/1 38/3/1 43/3/1
f 45/3/1 38/3/1 44/3/1
f 46/3/1 38/3/1 45/3/1
f 47/1/1 41/1/1 40/1/1
f 48/1/1 41/1/1 47/1/1
f 49/1/1 43/1/1 42/1/1
f 50/1/1 43/1/1 49/1/1
f 51/1/1 45/1/1 44/1/1
f 52/1/1 45/1/1 51/1/1
f 53/3/2 54/3/2 55/3/2
f 55/3/2 54/3/2 56/3/2
f 56/3/2 54/3/2 57/3/2
f 57/3/2 54/3/2 58/3/2
f 58/3/2 54/3/2 59/3/2
f 59/3/2 54/3/2 60/3/2
f 60/3/2 54/3/2 61/3/2
f 61/3/2 54/3/2 62/3/2
f 56/1/2 57/1/2 63/1/2
f 63/1/2 57/1/2 64/1/2
f 58/1/2 59/1/2 65/1/2
f 65/1/2 59/1/2 66/1/2
f 60/1/2 61/1/2 67/1/2
f 67/1/2 61/1/2 68/1/2
f 69/3/2 70/3/2 71/3/2
f 71/3/2 70/3/2 72/3/2
f 72/3/2 70/3/2 73/3/2
f 73/3/2 70/3/2 74/3/2
f 74/3/2 70/3/2 75/3/2
f 75/3/2 70/3/2 76/3/2
f 76/3/2 70/3/2 77/3/2
f 77/3/2 70/3/2 78/3/2
f 72/1/2 73/1/2 79/1/2
f 79/1/2 73/1/2 80/1/2
f 74/1/2 75/1/2 81/1/2
f 81/1/2 75/1/2 82/1/2
f 76/1/2 77/1/2 83/1/2
f 83/1/2 77/1/2 84/1/2
f 85/3/2 86/3/2 87/3/2
f 87/3/2 86/3/2 88/3/2
f 88/3/2 86/3/2 89/3/2
f 89/3/2 86/3/2 90/3/2
f 90/3/2 86/3/2 91/3/2
f 91/3/2 86/3/2 92/3/2
f 92/3/2 86/3/2 93/3/2
f 93/3/2 86/3/2 94/3/2
f 88/1/2 89/1/2 95/1/2
f 95/1/2 89/1/2 96/1/2
f 90/1/2 91/1/2 97/1/2
f 97/1/2 91/1/2 98/1/2
f 92/1/2 93/1/2 99/1/2
f 99/1/2 93/1/2 100/1/2
f 101/2/2 102/2/2 103/2/2
f 103/2/2 102/2/2 104/2/2
f 107/2/3 106/2/3 105/2/3
f 108/2/3 106/2/3 107/2/3
f 111/3/3 110/3/3 109/3/3
f 112/3/3 110/3/3 111/3/3
f 115/3/3 114/3/3 113/3/3
f 116/3/3 114/3/3 115/3/3
f 119/3/3 118/3/3 117/3/3
f 120/3/3 118/3/3 119/3/3
f 123/1/3 122/1/3 121/1/3
f 124/1/3 122/1/3 123/1/3
f 127/1/3 126/1/3 125/1/3
f 128/1/3 126/1/3 127/1/3
f 131/1/3 130/1/3 129/1/3
f 132/1/3 130/1/3 131/1/3
f 135/1/3 134/1/3 133/1/3
f 136/1/3 134/1/3 135/1/3
f 139/1/3 138/1/3 137/1/3
f 140/1/3 138/1/3 139/1/3
f 143/1/3 142/1/3 141/1/3
f 144/1/3 142/1/3 143/1/3
f 147/1/3 146/1/3 145/1/3
f 148/1/3 146/1/3 147/1/3
f 151/1/3 150/1/3 149/1/3
f 152/1/3 150/1/3 151/1/3
f 155/1/3 154/1/3 153/1/3
f 156/1/3 154/1/3 155/1/3
f 157/1/4 158/1/4 159/1/4
f 159/1/4 158/1/4 160/1/4
f 161/1/4 162/1/4 163/1/4
f 163/1/4 162/1/4 164/1/4
f 165/1/4 166/1/4 167/1/4
f 167/1/4 166/1/4 168/1/4
f 169/1/4 170/1/4 171/1/4
f 171/1/4 170/1/4 172/1/4
f 173/1/4 174/1/4 175/1/4
f 175/1/4 174/1/4 176/1/4
f 177/1/4 178/1/4 179/1/4
f 179/1/4 178/1/4 180/1/4
f 181/1/4 182/1/4 183/1/4
f 183/1/4 182/1/4 184/1/4
f 185/1/4 186/1/4 187/1/4
f 187/1/4 186/1/4 188/1/4
f 189/1/4 190/1/4 191/1/4
f 191/1/4 190/1/4 192/1/4
f 193/3/4 194/3/4 195/3/4
f 195/3/4 194/3/4 196/3/4
f 197/3/4 198/3/4 199/3/4
f 199/3/4 198/3/4 200/3/4
f 201/3/4 202/3/4 203/3/4
f 203/3/4 202/3/4 204/3/4
f 205/2/4 206/2/4 207/2/4
f 207/2/4 206/2/4 208/2/4
f 211/2/5 210/2/5 209/2/5
f 212/2/5 210/2/5 211/2/5
f 213/2/6 214/2/6 215/2/6
f 215/2/6 214/2/6 216/2/6
f 216/2/6 214/2/6 217/2/6
f 217/2/6 214/2/6 218/2/6
f 218/2/6 214/2/6 219/2/6
f 219/2/6 214/2/6 220/2/6
f 213/2/6 215/2/6 221/2/6
f 216/2/6 217/2/6 222/2/6
f 222/2/6 217/2/6 223/2/6
f 218/2/6 219/2/6 224/2/6
f 224/2/6 219/2/6 225/2/6
f 220/2/6 214/2/6 226/2/6
f 224/2/6 225/2/6 227/2/6
f 225/2/6 226/2/6 227/2/6
f 222/2/6 223/2/6 227/2/6
f 213/2/6 221/2/6 227/2/6
f 223/2/6 224/2/6 227/2/6
f 221/2/6 222/2/6 227/2/6
f 226/2/6 214/2/6 228/2/6
f 227/2/6 226/2/6 228/2/6
f 229/3/6 230/3/6 235/3/6
f 235/3/6 230/3/6 236/3/6
f 231/3/6 232/3/6 237/3/6
f 237/3/6 232/3/6 238/3/6
f 233/3/6 234/3/6 239/3/6
f 239/3/6 234/3/6 240/3/6
f 241/3/6 242/3/6 247/3/6
f 247/3/6 242/3/6 248/3/6
f 243/3/6 244/3/6 249/3/6
f 249/3/6 244/3/6 250/3/6
f 245/3/6 246/3/6 251/3/6
f 251/3/6 246/3/6 252/3/6
f 253/3/6 254/3/6 259/3/6
f 259/3/6 254/3/6 260/3/6
f 255/3/6 256/3/6 261/3/6
f 261/3/6 256/3/6 262/3/6
f 257/3/6 258/3/6 263/3/6
f 263/3/6 258/3/6 264/3/6
f 265/3/6 266/3/6 271/3/6
f 271/3/6 266/3/6 272/3/6
f 267/3/6 268/3/6 273/3/6
f 273/3/6 268/3/6 274/3/6
f 269/3/6 270/3/6 275/3/6
f 275/3/6 270/3/6 276/3/6
f 277/1/6 278/1/6 283/1/6
f 283/1/6 278/1/6 284/1/6
f 279/1/6 280/1/6 285/1/6
f 285/1/6 280/1/6 286/1/6
f 281/1/6 282/1/6 287/1/6
f 287/1/6 282/1/6 288/1/6
f 289/1/6 290/1/6 295/1/6
f 295/1/6 290/1/6 296/1/6
f 291/1/6 292/1/6 297/1/6
f 297/1/6 292/1/6 298/1/6
f 293/1/6 294/1/6 299/1/6
f 299/1/6 294/1/6 300/1/6
f 301/1/6 302/1/6 307/1/6
f 307/1/6 302/1/6 308/1/6
f 303/1/6 304/1/6 309/1/6
f 309/1/6 304/1/6 310/1/6
f 305/1/6 306/1/6 311/1/6
f 311/1/6 306/1/6 312/1/6
