# MagicaVoxel @ Ephtracy

# group
o 

# material
mtllib Cabbage 1.mtl
usemtl palette

# normals
vn -1 0 0
vn 1 0 0
vn 0 0 1
vn 0 0 -1
vn 0 -1 0
vn 0 1 0

# texcoords
vt 0.0683594 0.5
vt 0.220703 0.5
vt 0.224609 0.5

# verts
v -0.45 -0.5 0.45
v -0.45 -0.5 -0.45
v -0.45 -0.4 0.45
v -0.45 -0.4 -0.45
v -0.35 -0.4 0.35
v -0.35 -0.4 -0.35
v -0.35 -0.3 0.35
v -0.35 -0.3 0.25
v -0.35 -0.3 0.15
v -0.35 -0.3 -0.15
v -0.35 -0.3 -0.25
v -0.35 -0.3 -0.35
v -0.35 -0.2 0.25
v -0.35 -0.2 0.15
v -0.35 -0.2 -0.15
v -0.35 -0.2 -0.25
v -0.05 -0.4 0.35
v -0.05 -0.4 -0.35
v -0.05 -0.3 0.35
v -0.05 -0.3 0.25
v -0.05 -0.3 0.15
v -0.05 -0.3 -0.15
v -0.05 -0.3 -0.25
v -0.05 -0.3 -0.35
v -0.05 -0.2 0.25
v -0.05 -0.2 0.15
v -0.05 -0.2 -0.15
v -0.05 -0.2 -0.25
v 0.25 -0.4 0.35
v 0.25 -0.4 -0.35
v 0.25 -0.3 0.35
v 0.25 -0.3 0.25
v 0.25 -0.3 0.15
v 0.25 -0.3 -0.15
v 0.25 -0.3 -0.25
v 0.25 -0.3 -0.35
v 0.25 -0.2 0.25
v 0.25 -0.2 0.15
v 0.25 -0.2 -0.15
v 0.25 -0.2 -0.25
v -0.25 -0.4 0.35
v -0.25 -0.4 -0.35
v -0.25 -0.3 0.35
v -0.25 -0.3 0.25
v -0.25 -0.3 0.15
v -0.25 -0.3 -0.15
v -0.25 -0.3 -0.25
v -0.25 -0.3 -0.35
v -0.25 -0.2 0.25
v -0.25 -0.2 0.15
v -0.25 -0.2 -0.15
v -0.25 -0.2 -0.25
v 0.05 -0.4 0.35
v 0.05 -0.4 -0.35
v 0.05 -0.3 0.35
v 0.05 -0.3 0.25
v 0.05 -0.3 0.15
v 0.05 -0.3 -0.15
v 0.05 -0.3 -0.25
v 0.05 -0.3 -0.35
v 0.05 -0.2 0.25
v 0.05 -0.2 0.15
v 0.05 -0.2 -0.15
v 0.05 -0.2 -0.25
v 0.35 -0.4 0.35
v 0.35 -0.4 -0.35
v 0.35 -0.3 0.35
v 0.35 -0.3 0.25
v 0.35 -0.3 0.15
v 0.35 -0.3 -0.15
v 0.35 -0.3 -0.25
v 0.35 -0.3 -0.35
v 0.35 -0.2 0.25
v 0.35 -0.2 0.15
v 0.35 -0.2 -0.15
v 0.35 -0.2 -0.25
v 0.45 -0.5 0.45
v 0.45 -0.5 -0.45
v 0.45 -0.4 0.45
v 0.45 -0.4 -0.45
v -0.45 -0.5 0.45
v -0.45 -0.4 0.45
v 0.45 -0.5 0.45
v 0.45 -0.4 0.45
v -0.35 -0.4 0.35
v -0.35 -0.3 0.35
v -0.25 -0.4 0.35
v -0.25 -0.3 0.35
v -0.05 -0.4 0.35
v -0.05 -0.3 0.35
v 0.05 -0.4 0.35
v 0.05 -0.3 0.35
v 0.25 -0.4 0.35
v 0.25 -0.3 0.35
v 0.35 -0.4 0.35
v 0.35 -0.3 0.35
v -0.35 -0.3 0.25
v -0.35 -0.2 0.25
v -0.25 -0.3 0.25
v -0.25 -0.2 0.25
v -0.05 -0.3 0.25
v -0.05 -0.2 0.25
v 0.05 -0.3 0.25
v 0.05 -0.2 0.25
v 0.25 -0.3 0.25
v 0.25 -0.2 0.25
v 0.35 -0.3 0.25
v 0.35 -0.2 0.25
v -0.35 -0.3 -0.15
v -0.35 -0.2 -0.15
v -0.25 -0.3 -0.15
v -0.25 -0.2 -0.15
v -0.05 -0.3 -0.15
v -0.05 -0.2 -0.15
v 0.05 -0.3 -0.15
v 0.05 -0.2 -0.15
v 0.25 -0.3 -0.15
v 0.25 -0.2 -0.15
v 0.35 -0.3 -0.15
v 0.35 -0.2 -0.15
v -0.35 -0.3 0.15
v -0.35 -0.2 0.15
v -0.25 -0.3 0.15
v -0.25 -0.2 0.15
v -0.05 -0.3 0.15
v -0.05 -0.2 0.15
v 0.05 -0.3 0.15
v 0.05 -0.2 0.15
v 0.25 -0.3 0.15
v 0.25 -0.2 0.15
v 0.35 -0.3 0.15
v 0.35 -0.2 0.15
v -0.35 -0.3 -0.25
v -0.35 -0.2 -0.25
v -0.25 -0.3 -0.25
v -0.25 -0.2 -0.25
v -0.05 -0.3 -0.25
v -0.05 -0.2 -0.25
v 0.05 -0.3 -0.25
v 0.05 -0.2 -0.25
v 0.25 -0.3 -0.25
v 0.25 -0.2 -0.25
v 0.35 -0.3 -0.25
v 0.35 -0.2 -0.25
v -0.35 -0.4 -0.35
v -0.35 -0.3 -0.35
v -0.25 -0.4 -0.35
v -0.25 -0.3 -0.35
v -0.05 -0.4 -0.35
v -0.05 -0.3 -0.35
v 0.05 -0.4 -0.35
v 0.05 -0.3 -0.35
v 0.25 -0.4 -0.35
v 0.25 -0.3 -0.35
v 0.35 -0.4 -0.35
v 0.35 -0.3 -0.35
v -0.45 -0.5 -0.45
v -0.45 -0.4 -0.45
v 0.45 -0.5 -0.45
v 0.45 -0.4 -0.45
v -0.45 -0.5 0.45
v 0.45 -0.5 0.45
v -0.45 -0.5 -0.45
v 0.45 -0.5 -0.45
v -0.45 -0.4 0.45
v 0.45 -0.4 0.45
v -0.35 -0.4 0.35
v -0.25 -0.4 0.35
v -0.05 -0.4 0.35
v 0.05 -0.4 0.35
v 0.25 -0.4 0.35
v 0.35 -0.4 0.35
v -0.35 -0.4 -0.35
v -0.25 -0.4 -0.35
v -0.05 -0.4 -0.35
v 0.05 -0.4 -0.35
v 0.25 -0.4 -0.35
v 0.35 -0.4 -0.35
v -0.45 -0.4 -0.45
v 0.45 -0.4 -0.45
v -0.35 -0.3 0.35
v -0.25 -0.3 0.35
v -0.05 -0.3 0.35
v 0.05 -0.3 0.35
v 0.25 -0.3 0.35
v 0.35 -0.3 0.35
v -0.35 -0.3 0.25
v -0.25 -0.3 0.25
v -0.05 -0.3 0.25
v 0.05 -0.3 0.25
v 0.25 -0.3 0.25
v 0.35 -0.3 0.25
v -0.35 -0.3 0.15
v -0.25 -0.3 0.15
v -0.05 -0.3 0.15
v 0.05 -0.3 0.15
v 0.25 -0.3 0.15
v 0.35 -0.3 0.15
v -0.35 -0.3 -0.15
v -0.25 -0.3 -0.15
v -0.05 -0.3 -0.15
v 0.05 -0.3 -0.15
v 0.25 -0.3 -0.15
v 0.35 -0.3 -0.15
v -0.35 -0.3 -0.25
v -0.25 -0.3 -0.25
v -0.05 -0.3 -0.25
v 0.05 -0.3 -0.25
v 0.25 -0.3 -0.25
v 0.35 -0.3 -0.25
v -0.35 -0.3 -0.35
v -0.25 -0.3 -0.35
v -0.05 -0.3 -0.35
v 0.05 -0.3 -0.35
v 0.25 -0.3 -0.35
v 0.35 -0.3 -0.35
v -0.35 -0.2 0.25
v -0.25 -0.2 0.25
v -0.05 -0.2 0.25
v 0.05 -0.2 0.25
v 0.25 -0.2 0.25
v 0.35 -0.2 0.25
v -0.35 -0.2 0.15
v -0.25 -0.2 0.15
v -0.05 -0.2 0.15
v 0.05 -0.2 0.15
v 0.25 -0.2 0.15
v 0.35 -0.2 0.15
v -0.35 -0.2 -0.15
v -0.25 -0.2 -0.15
v -0.05 -0.2 -0.15
v 0.05 -0.2 -0.15
v 0.25 -0.2 -0.15
v 0.35 -0.2 -0.15
v -0.35 -0.2 -0.25
v -0.25 -0.2 -0.25
v -0.05 -0.2 -0.25
v 0.05 -0.2 -0.25
v 0.25 -0.2 -0.25
v 0.35 -0.2 -0.25

# faces
f 3/2/1 2/2/1 1/2/1
f 4/2/1 2/2/1 3/2/1
f 7/3/1 6/3/1 5/3/1
f 8/3/1 6/3/1 7/3/1
f 9/3/1 6/3/1 8/3/1
f 10/3/1 6/3/1 9/3/1
f 11/3/1 6/3/1 10/3/1
f 12/3/1 6/3/1 11/3/1
f 13/1/1 9/1/1 8/1/1
f 14/1/1 9/1/1 13/1/1
f 15/1/1 11/1/1 10/1/1
f 16/1/1 11/1/1 15/1/1
f 19/3/1 18/3/1 17/3/1
f 20/3/1 18/3/1 19/3/1
f 21/3/1 18/3/1 20/3/1
f 22/3/1 18/3/1 21/3/1
f 23/3/1 18/3/1 22/3/1
f 24/3/1 18/3/1 23/3/1
f 25/1/1 21/1/1 20/1/1
f 26/1/1 21/1/1 25/1/1
f 27/1/1 23/1/1 22/1/1
f 28/1/1 23/1/1 27/1/1
f 31/3/1 30/3/1 29/3/1
f 32/3/1 30/3/1 31/3/1
f 33/3/1 30/3/1 32/3/1
f 34/3/1 30/3/1 33/3/1
f 35/3/1 30/3/1 34/3/1
f 36/3/1 30/3/1 35/3/1
f 37/1/1 33/1/1 32/1/1
f 38/1/1 33/1/1 37/1/1
f 39/1/1 35/1/1 34/1/1
f 40/1/1 35/1/1 39/1/1
f 41/3/2 42/3/2 43/3/2
f 43/3/2 42/3/2 44/3/2
f 44/3/2 42/3/2 45/3/2
f 45/3/2 42/3/2 46/3/2
f 46/3/2 42/3/2 47/3/2
f 47/3/2 42/3/2 48/3/2
f 44/1/2 45/1/2 49/1/2
f 49/1/2 45/1/2 50/1/2
f 46/1/2 47/1/2 51/1/2
f 51/1/2 47/1/2 52/1/2
f 53/3/2 54/3/2 55/3/2
f 55/3/2 54/3/2 56/3/2
f 56/3/2 54/3/2 57/3/2
f 57/3/2 54/3/2 58/3/2
f 58/3/2 54/3/2 59/3/2
f 59/3/2 54/3/2 60/3/2
f 56/1/2 57/1/2 61/1/2
f 61/1/2 57/1/2 62/1/2
f 58/1/2 59/1/2 63/1/2
f 63/1/2 59/1/2 64/1/2
f 65/3/2 66/3/2 67/3/2
f 67/3/2 66/3/2 68/3/2
f 68/3/2 66/3/2 69/3/2
f 69/3/2 66/3/2 70/3/2
f 70/3/2 66/3/2 71/3/2
f 71/3/2 66/3/2 72/3/2
f 68/1/2 69/1/2 73/1/2
f 73/1/2 69/1/2 74/1/2
f 70/1/2 71/1/2 75/1/2
f 75/1/2 71/1/2 76/1/2
f 77/2/2 78/2/2 79/2/2
f 79/2/2 78/2/2 80/2/2
f 83/2/3 82/2/3 81/2/3
f 84/2/3 82/2/3 83/2/3
f 87/3/3 86/3/3 85/3/3
f 88/3/3 86/3/3 87/3/3
f 91/3/3 90/3/3 89/3/3
f 92/3/3 90/3/3 91/3/3
f 95/3/3 94/3/3 93/3/3
f 96/3/3 94/3/3 95/3/3
f 99/1/3 98/1/3 97/1/3
f 100/1/3 98/1/3 99/1/3
f 103/1/3 102/1/3 101/1/3
f 104/1/3 102/1/3 103/1/3
f 107/1/3 106/1/3 105/1/3
f 108/1/3 106/1/3 107/1/3
f 111/1/3 110/1/3 109/1/3
f 112/1/3 110/1/3 111/1/3
f 115/1/3 114/1/3 113/1/3
f 116/1/3 114/1/3 115/1/3
f 119/1/3 118/1/3 117/1/3
f 120/1/3 118/1/3 119/1/3
f 121/1/4 122/1/4 123/1/4
f 123/1/4 122/1/4 124/1/4
f 125/1/4 126/1/4 127/1/4
f 127/1/4 126/1/4 128/1/4
f 129/1/4 130/1/4 131/1/4
f 131/1/4 130/1/4 132/1/4
f 133/1/4 134/1/4 135/1/4
f 135/1/4 134/1/4 136/1/4
f 137/1/4 138/1/4 139/1/4
f 139/1/4 138/1/4 140/1/4
f 141/1/4 142/1/4 143/1/4
f 143/1/4 142/1/4 144/1/4
f 145/3/4 146/3/4 147/3/4
f 147/3/4 146/3/4 148/3/4
f 149/3/4 150/3/4 151/3/4
f 151/3/4 150/3/4 152/3/4
f 153/3/4 154/3/4 155/3/4
f 155/3/4 154/3/4 156/3/4
f 157/2/4 158/2/4 159/2/4
f 159/2/4 158/2/4 160/2/4
f 163/2/5 162/2/5 161/2/5
f 164/2/5 162/2/5 163/2/5
f 165/2/6 166/2/6 167/2/6
f 167/2/6 166/2/6 168/2/6
f 168/2/6 166/2/6 169/2/6
f 169/2/6 166/2/6 170/2/6
f 170/2/6 166/2/6 171/2/6
f 171/2/6 166/2/6 172/2/6
f 165/2/6 167/2/6 173/2/6
f 168/2/6 169/2/6 174/2/6
f 174/2/6 169/2/6 175/2/6
f 170/2/6 171/2/6 176/2/6
f 176/2/6 171/2/6 177/2/6
f 172/2/6 166/2/6 178/2/6
f 176/2/6 177/2/6 179/2/6
f 177/2/6 178/2/6 179/2/6
f 174/2/6 175/2/6 179/2/6
f 165/2/6 173/2/6 179/2/6
f 175/2/6 176/2/6 179/2/6
f 173/2/6 174/2/6 179/2/6
f 178/2/6 166/2/6 180/2/6
f 179/2/6 178/2/6 180/2/6
f 181/3/6 182/3/6 187/3/6
f 187/3/6 182/3/6 188/3/6
f 183/3/6 184/3/6 189/3/6
f 189/3/6 184/3/6 190/3/6
f 185/3/6 186/3/6 191/3/6
f 191/3/6 186/3/6 192/3/6
f 193/3/6 194/3/6 199/3/6
f 199/3/6 194/3/6 200/3/6
f 195/3/6 196/3/6 201/3/6
f 201/3/6 196/3/6 202/3/6
f 197/3/6 198/3/6 203/3/6
f 203/3/6 198/3/6 204/3/6
f 205/3/6 206/3/6 211/3/6
f 211/3/6 206/3/6 212/3/6
f 207/3/6 208/3/6 213/3/6
f 213/3/6 208/3/6 214/3/6
f 209/3/6 210/3/6 215/3/6
f 215/3/6 210/3/6 216/3/6
f 217/1/6 218/1/6 223/1/6
f 223/1/6 218/1/6 224/1/6
f 219/1/6 220/1/6 225/1/6
f 225/1/6 220/1/6 226/1/6
f 221/1/6 222/1/6 227/1/6
f 227/1/6 222/1/6 228/1/6
f 229/1/6 230/1/6 235/1/6
f 235/1/6 230/1/6 236/1/6
f 231/1/6 232/1/6 237/1/6
f 237/1/6 232/1/6 238/1/6
f 233/1/6 234/1/6 239/1/6
f 239/1/6 234/1/6 240/1/6
