# MagicaVoxel @ Ephtracy

# group
o 

# material
mtllib Locked 40.mtl
usemtl palette

# normals
vn -1 0 0
vn 1 0 0
vn 0 0 1
vn 0 0 -1
vn 0 -1 0
vn 0 1 0

# texcoords
vt 0.0292969 0.5
vt 0.0644531 0.5
vt 0.0683594 0.5
vt 0.0722656 0.5
vt 0.146484 0.5
vt 0.220703 0.5

# verts
v -0.45 -0.5 0.45
v -0.45 -0.5 0.35
v -0.45 -0.5 0.05
v -0.45 -0.5 -0.05
v -0.45 -0.5 -0.35
v -0.45 -0.5 -0.45
v -0.45 -0.4 0.35
v -0.45 -0.4 0.05
v -0.45 -0.4 -0.05
v -0.45 -0.4 -0.35
v -0.45 -0.3 0.35
v -0.45 -0.3 0.05
v -0.45 -0.3 -0.05
v -0.45 -0.3 -0.35
v -0.45 -0.2 0.45
v -0.45 -0.2 0.35
v -0.45 -0.2 0.05
v -0.45 -0.2 -0.05
v -0.45 -0.2 -0.35
v -0.45 -0.2 -0.45
v -0.35 -0.5 0.35
v -0.35 -0.5 0.05
v -0.35 -0.5 -0.05
v -0.35 -0.5 -0.35
v -0.35 -0.4 0.35
v -0.35 -0.4 0.05
v -0.35 -0.4 -0.05
v -0.35 -0.4 -0.35
v -0.35 0.3 0.05
v -0.35 0.3 -0.05
v -0.35 0.5 0.05
v -0.35 0.5 -0.05
v -0.25 -0.2 0.05
v -0.25 -0.2 -0.05
v -0.25 -0.1 0.05
v -0.25 -0.1 -0.05
v -0.25 0 0.05
v -0.25 0 -0.05
v -0.25 0.1 0.05
v -0.25 0.1 -0.05
v -0.15 0.2 0.05
v -0.15 0.2 -0.05
v -0.15 0.3 0.05
v -0.15 0.3 -0.05
v -0.15 0.4 0.05
v -0.15 0.4 -0.05
v -0.15 0.5 0.05
v -0.15 0.5 -0.05
v -0.05 -0.5 0.45
v -0.05 -0.5 0.35
v -0.05 -0.5 -0.35
v -0.05 -0.5 -0.45
v -0.05 -0.4 0.45
v -0.05 -0.4 0.35
v -0.05 -0.4 -0.35
v -0.05 -0.4 -0.45
v -0.05 -0.3 0.45
v -0.05 -0.3 0.35
v -0.05 -0.3 -0.35
v -0.05 -0.3 -0.45
v -0.05 -0.2 0.45
v -0.05 -0.2 0.35
v -0.05 -0.2 -0.35
v -0.05 -0.2 -0.45
v 0.05 0.2 0.05
v 0.05 0.2 -0.05
v 0.05 0.5 0.05
v 0.05 0.5 -0.05
v 0.25 0.3 0.05
v 0.25 0.3 -0.05
v 0.25 0.4 0.05
v 0.25 0.4 -0.05
v 0.35 -0.5 0.45
v 0.35 -0.5 0.35
v 0.35 -0.5 -0.35
v 0.35 -0.5 -0.45
v 0.35 -0.4 0.45
v 0.35 -0.4 0.35
v 0.35 -0.4 -0.35
v 0.35 -0.4 -0.45
v 0.35 -0.3 0.45
v 0.35 -0.3 0.35
v 0.35 -0.3 0.05
v 0.35 -0.3 -0.05
v 0.35 -0.3 -0.35
v 0.35 -0.3 -0.45
v 0.35 -0.2 0.45
v 0.35 -0.2 0.35
v 0.35 -0.2 0.05
v 0.35 -0.2 -0.05
v 0.35 -0.2 -0.35
v 0.35 -0.2 -0.45
v -0.35 -0.5 0.45
v -0.35 -0.5 0.35
v -0.35 -0.5 -0.35
v -0.35 -0.5 -0.45
v -0.35 -0.4 0.45
v -0.35 -0.4 0.35
v -0.35 -0.4 -0.35
v -0.35 -0.4 -0.45
v -0.35 -0.3 0.45
v -0.35 -0.3 0.35
v -0.35 -0.3 0.05
v -0.35 -0.3 -0.05
v -0.35 -0.3 -0.35
v -0.35 -0.3 -0.45
v -0.35 -0.2 0.45
v -0.35 -0.2 0.35
v -0.35 -0.2 0.05
v -0.35 -0.2 -0.05
v -0.35 -0.2 -0.35
v -0.35 -0.2 -0.45
v -0.25 0.4 0.05
v -0.25 0.4 -0.05
v -0.25 0.5 0.05
v -0.25 0.5 -0.05
v -0.05 0.2 0.05
v -0.05 0.2 -0.05
v -0.05 0.5 0.05
v -0.05 0.5 -0.05
v 0.05 -0.5 0.45
v 0.05 -0.5 0.35
v 0.05 -0.5 -0.35
v 0.05 -0.5 -0.45
v 0.05 -0.4 0.45
v 0.05 -0.4 0.35
v 0.05 -0.4 -0.35
v 0.05 -0.4 -0.45
v 0.05 -0.3 0.45
v 0.05 -0.3 0.35
v 0.05 -0.3 -0.35
v 0.05 -0.3 -0.45
v 0.05 -0.2 0.45
v 0.05 -0.2 0.35
v 0.05 -0.2 -0.35
v 0.05 -0.2 -0.45
v 0.15 0.3 0.05
v 0.15 0.3 -0.05
v 0.15 0.4 0.05
v 0.15 0.4 -0.05
v 0.25 -0.2 0.05
v 0.25 -0.2 -0.05
v 0.25 -0.1 0.05
v 0.25 -0.1 -0.05
v 0.25 0 0.05
v 0.25 0 -0.05
v 0.25 0.1 0.05
v 0.25 0.1 -0.05
v 0.35 -0.5 0.35
v 0.35 -0.5 0.05
v 0.35 -0.5 -0.05
v 0.35 -0.5 -0.35
v 0.35 -0.4 0.35
v 0.35 -0.4 0.05
v 0.35 -0.4 -0.05
v 0.35 -0.4 -0.35
v 0.35 0.2 0.05
v 0.35 0.2 -0.05
v 0.35 0.5 0.05
v 0.35 0.5 -0.05
v 0.45 -0.5 0.45
v 0.45 -0.5 0.35
v 0.45 -0.5 0.05
v 0.45 -0.5 -0.05
v 0.45 -0.5 -0.35
v 0.45 -0.5 -0.45
v 0.45 -0.4 0.35
v 0.45 -0.4 0.05
v 0.45 -0.4 -0.05
v 0.45 -0.4 -0.35
v 0.45 -0.3 0.35
v 0.45 -0.3 0.05
v 0.45 -0.3 -0.05
v 0.45 -0.3 -0.35
v 0.45 -0.2 0.45
v 0.45 -0.2 0.35
v 0.45 -0.2 0.05
v 0.45 -0.2 -0.05
v 0.45 -0.2 -0.35
v 0.45 -0.2 -0.45
v -0.45 -0.5 0.45
v -0.45 -0.2 0.45
v -0.35 -0.5 0.45
v -0.35 -0.4 0.45
v -0.35 -0.3 0.45
v -0.35 -0.2 0.45
v -0.05 -0.5 0.45
v -0.05 -0.4 0.45
v -0.05 -0.3 0.45
v -0.05 -0.2 0.45
v 0.05 -0.5 0.45
v 0.05 -0.4 0.45
v 0.05 -0.3 0.45
v 0.05 -0.2 0.45
v 0.35 -0.5 0.45
v 0.35 -0.4 0.45
v 0.35 -0.3 0.45
v 0.35 -0.2 0.45
v 0.45 -0.5 0.45
v 0.45 -0.2 0.45
v -0.35 -0.5 0.35
v -0.35 -0.4 0.35
v -0.05 -0.5 0.35
v -0.05 -0.4 0.35
v 0.05 -0.5 0.35
v 0.05 -0.4 0.35
v 0.35 -0.5 0.35
v 0.35 -0.4 0.35
v -0.45 -0.5 0.05
v -0.45 -0.4 0.05
v -0.45 -0.3 0.05
v -0.45 -0.2 0.05
v -0.35 -0.5 0.05
v -0.35 -0.4 0.05
v -0.35 -0.3 0.05
v -0.35 -0.2 0.05
v -0.35 0.3 0.05
v -0.35 0.5 0.05
v -0.25 -0.2 0.05
v -0.25 -0.1 0.05
v -0.25 0 0.05
v -0.25 0.1 0.05
v -0.25 0.4 0.05
v -0.25 0.5 0.05
v -0.15 -0.1 0.05
v -0.15 0 0.05
v -0.15 0.2 0.05
v -0.15 0.3 0.05
v -0.15 0.4 0.05
v -0.15 0.5 0.05
v -0.05 0.2 0.05
v -0.05 0.5 0.05
v 0.05 0.2 0.05
v 0.05 0.5 0.05
v 0.15 -0.1 0.05
v 0.15 0 0.05
v 0.15 0.3 0.05
v 0.15 0.4 0.05
v 0.25 -0.2 0.05
v 0.25 -0.1 0.05
v 0.25 0 0.05
v 0.25 0.1 0.05
v 0.25 0.3 0.05
v 0.25 0.4 0.05
v 0.35 -0.5 0.05
v 0.35 -0.4 0.05
v 0.35 -0.3 0.05
v 0.35 -0.2 0.05
v 0.35 0.2 0.05
v 0.35 0.5 0.05
v 0.45 -0.5 0.05
v 0.45 -0.4 0.05
v 0.45 -0.3 0.05
v 0.45 -0.2 0.05
v -0.45 -0.5 -0.35
v -0.45 -0.4 -0.35
v -0.45 -0.3 -0.35
v -0.45 -0.2 -0.35
v -0.35 -0.5 -0.35
v -0.35 -0.4 -0.35
v -0.35 -0.3 -0.35
v -0.35 -0.2 -0.35
v -0.05 -0.3 -0.35
v -0.05 -0.2 -0.35
v 0.05 -0.3 -0.35
v 0.05 -0.2 -0.35
v 0.35 -0.5 -0.35
v 0.35 -0.4 -0.35
v 0.35 -0.3 -0.35
v 0.35 -0.2 -0.35
v 0.45 -0.5 -0.35
v 0.45 -0.4 -0.35
v 0.45 -0.3 -0.35
v 0.45 -0.2 -0.35
v -0.45 -0.5 0.35
v -0.45 -0.4 0.35
v -0.45 -0.3 0.35
v -0.45 -0.2 0.35
v -0.35 -0.5 0.35
v -0.35 -0.4 0.35
v -0.35 -0.3 0.35
v -0.35 -0.2 0.35
v -0.05 -0.3 0.35
v -0.05 -0.2 0.35
v 0.05 -0.3 0.35
v 0.05 -0.2 0.35
v 0.35 -0.5 0.35
v 0.35 -0.4 0.35
v 0.35 -0.3 0.35
v 0.35 -0.2 0.35
v 0.45 -0.5 0.35
v 0.45 -0.4 0.35
v 0.45 -0.3 0.35
v 0.45 -0.2 0.35
v -0.45 -0.5 -0.05
v -0.45 -0.4 -0.05
v -0.45 -0.3 -0.05
v -0.45 -0.2 -0.05
v -0.35 -0.5 -0.05
v -0.35 -0.4 -0.05
v -0.35 -0.3 -0.05
v -0.35 -0.2 -0.05
v -0.35 0.3 -0.05
v -0.35 0.5 -0.05
v -0.25 -0.2 -0.05
v -0.25 -0.1 -0.05
v -0.25 0 -0.05
v -0.25 0.1 -0.05
v -0.25 0.4 -0.05
v -0.25 0.5 -0.05
v -0.15 -0.1 -0.05
v -0.15 0 -0.05
v -0.15 0.2 -0.05
v -0.15 0.3 -0.05
v -0.15 0.4 -0.05
v -0.15 0.5 -0.05
v -0.05 0.2 -0.05
v -0.05 0.5 -0.05
v 0.05 0.2 -0.05
v 0.05 0.5 -0.05
v 0.15 -0.1 -0.05
v 0.15 0 -0.05
v 0.15 0.3 -0.05
v 0.15 0.4 -0.05
v 0.25 -0.2 -0.05
v 0.25 -0.1 -0.05
v 0.25 0 -0.05
v 0.25 0.1 -0.05
v 0.25 0.3 -0.05
v 0.25 0.4 -0.05
v 0.35 -0.5 -0.05
v 0.35 -0.4 -0.05
v 0.35 -0.3 -0.05
v 0.35 -0.2 -0.05
v 0.35 0.2 -0.05
v 0.35 0.5 -0.05
v 0.45 -0.5 -0.05
v 0.45 -0.4 -0.05
v 0.45 -0.3 -0.05
v 0.45 -0.2 -0.05
v -0.35 -0.5 -0.35
v -0.35 -0.4 -0.35
v -0.05 -0.5 -0.35
v -0.05 -0.4 -0.35
v 0.05 -0.5 -0.35
v 0.05 -0.4 -0.35
v 0.35 -0.5 -0.35
v 0.35 -0.4 -0.35
v -0.45 -0.5 -0.45
v -0.45 -0.2 -0.45
v -0.35 -0.5 -0.45
v -0.35 -0.4 -0.45
v -0.35 -0.3 -0.45
v -0.35 -0.2 -0.45
v -0.05 -0.5 -0.45
v -0.05 -0.4 -0.45
v -0.05 -0.3 -0.45
v -0.05 -0.2 -0.45
v 0.05 -0.5 -0.45
v 0.05 -0.4 -0.45
v 0.05 -0.3 -0.45
v 0.05 -0.2 -0.45
v 0.35 -0.5 -0.45
v 0.35 -0.4 -0.45
v 0.35 -0.3 -0.45
v 0.35 -0.2 -0.45
v 0.45 -0.5 -0.45
v 0.45 -0.2 -0.45
v -0.45 -0.5 0.45
v -0.35 -0.5 0.45
v -0.05 -0.5 0.45
v 0.05 -0.5 0.45
v 0.35 -0.5 0.45
v 0.45 -0.5 0.45
v -0.45 -0.5 0.35
v -0.35 -0.5 0.35
v -0.05 -0.5 0.35
v 0.05 -0.5 0.35
v 0.35 -0.5 0.35
v 0.45 -0.5 0.35
v -0.45 -0.5 0.05
v -0.35 -0.5 0.05
v 0.35 -0.5 0.05
v 0.45 -0.5 0.05
v -0.45 -0.5 -0.05
v -0.35 -0.5 -0.05
v 0.35 -0.5 -0.05
v 0.45 -0.5 -0.05
v -0.45 -0.5 -0.35
v -0.35 -0.5 -0.35
v -0.05 -0.5 -0.35
v 0.05 -0.5 -0.35
v 0.35 -0.5 -0.35
v 0.45 -0.5 -0.35
v -0.45 -0.5 -0.45
v -0.35 -0.5 -0.45
v -0.05 -0.5 -0.45
v 0.05 -0.5 -0.45
v 0.35 -0.5 -0.45
v 0.45 -0.5 -0.45
v -0.35 -0.4 0.45
v -0.05 -0.4 0.45
v 0.05 -0.4 0.45
v 0.35 -0.4 0.45
v -0.45 -0.4 0.35
v -0.35 -0.4 0.35
v -0.05 -0.4 0.35
v 0.05 -0.4 0.35
v 0.35 -0.4 0.35
v 0.45 -0.4 0.35
v -0.45 -0.4 0.05
v -0.35 -0.4 0.05
v 0.35 -0.4 0.05
v 0.45 -0.4 0.05
v -0.45 -0.4 -0.05
v -0.35 -0.4 -0.05
v 0.35 -0.4 -0.05
v 0.45 -0.4 -0.05
v -0.45 -0.4 -0.35
v -0.35 -0.4 -0.35
v -0.05 -0.4 -0.35
v 0.05 -0.4 -0.35
v 0.35 -0.4 -0.35
v 0.45 -0.4 -0.35
v -0.35 -0.4 -0.45
v -0.05 -0.4 -0.45
v 0.05 -0.4 -0.45
v 0.35 -0.4 -0.45
v -0.25 -0.2 0.05
v 0.25 -0.2 0.05
v -0.25 -0.2 -0.05
v 0.25 -0.2 -0.05
v -0.15 0.2 0.05
v -0.05 0.2 0.05
v 0.05 0.2 0.05
v 0.35 0.2 0.05
v -0.15 0.2 -0.05
v -0.05 0.2 -0.05
v 0.05 0.2 -0.05
v 0.35 0.2 -0.05
v -0.35 0.3 0.05
v -0.15 0.3 0.05
v -0.35 0.3 -0.05
v -0.15 0.3 -0.05
v 0.15 0.4 0.05
v 0.25 0.4 0.05
v 0.15 0.4 -0.05
v 0.25 0.4 -0.05
v -0.35 -0.4 0.35
v 0.35 -0.4 0.35
v -0.35 -0.4 -0.35
v 0.35 -0.4 -0.35
v -0.35 -0.3 0.45
v -0.05 -0.3 0.45
v 0.05 -0.3 0.45
v 0.35 -0.3 0.45
v -0.45 -0.3 0.35
v -0.35 -0.3 0.35
v -0.05 -0.3 0.35
v 0.05 -0.3 0.35
v 0.35 -0.3 0.35
v 0.45 -0.3 0.35
v -0.45 -0.3 0.05
v -0.35 -0.3 0.05
v 0.35 -0.3 0.05
v 0.45 -0.3 0.05
v -0.45 -0.3 -0.05
v -0.35 -0.3 -0.05
v 0.35 -0.3 -0.05
v 0.45 -0.3 -0.05
v -0.45 -0.3 -0.35
v -0.35 -0.3 -0.35
v -0.05 -0.3 -0.35
v 0.05 -0.3 -0.35
v 0.35 -0.3 -0.35
v 0.45 -0.3 -0.35
v -0.35 -0.3 -0.45
v -0.05 -0.3 -0.45
v 0.05 -0.3 -0.45
v 0.35 -0.3 -0.45
v -0.45 -0.2 0.45
v -0.35 -0.2 0.45
v -0.05 -0.2 0.45
v 0.05 -0.2 0.45
v 0.35 -0.2 0.45
v 0.45 -0.2 0.45
v -0.45 -0.2 0.35
v -0.35 -0.2 0.35
v -0.05 -0.2 0.35
v 0.05 -0.2 0.35
v 0.35 -0.2 0.35
v 0.45 -0.2 0.35
v -0.45 -0.2 0.05
v -0.35 -0.2 0.05
v 0.35 -0.2 0.05
v 0.45 -0.2 0.05
v -0.45 -0.2 -0.05
v -0.35 -0.2 -0.05
v 0.35 -0.2 -0.05
v 0.45 -0.2 -0.05
v -0.45 -0.2 -0.35
v -0.35 -0.2 -0.35
v -0.05 -0.2 -0.35
v 0.05 -0.2 -0.35
v 0.35 -0.2 -0.35
v 0.45 -0.2 -0.35
v -0.45 -0.2 -0.45
v -0.35 -0.2 -0.45
v -0.05 -0.2 -0.45
v 0.05 -0.2 -0.45
v 0.35 -0.2 -0.45
v 0.45 -0.2 -0.45
v -0.25 0.1 0.05
v 0.25 0.1 0.05
v -0.25 0.1 -0.05
v 0.25 0.1 -0.05
v 0.15 0.3 0.05
v 0.25 0.3 0.05
v 0.15 0.3 -0.05
v 0.25 0.3 -0.05
v -0.25 0.4 0.05
v -0.15 0.4 0.05
v -0.25 0.4 -0.05
v -0.15 0.4 -0.05
v -0.35 0.5 0.05
v -0.25 0.5 0.05
v -0.15 0.5 0.05
v -0.05 0.5 0.05
v 0.05 0.5 0.05
v 0.35 0.5 0.05
v -0.35 0.5 -0.05
v -0.25 0.5 -0.05
v -0.15 0.5 -0.05
v -0.05 0.5 -0.05
v 0.05 0.5 -0.05
v 0.35 0.5 -0.05

# faces
f 7/5/1 2/5/1 1/5/1
f 8/5/1 4/5/1 3/5/1
f 9/5/1 4/5/1 8/5/1
f 10/5/1 6/5/1 5/5/1
f 11/5/1 9/5/1 8/5/1
f 11/5/1 10/5/1 9/5/1
f 11/5/1 7/5/1 1/5/1
f 11/5/1 8/5/1 7/5/1
f 12/5/1 10/5/1 11/5/1
f 13/5/1 10/5/1 12/5/1
f 14/5/1 6/5/1 10/5/1
f 14/5/1 10/5/1 13/5/1
f 15/5/1 11/5/1 1/5/1
f 16/5/1 11/5/1 15/5/1
f 17/5/1 13/5/1 12/5/1
f 18/5/1 13/5/1 17/5/1
f 19/5/1 6/5/1 14/5/1
f 20/5/1 6/5/1 19/5/1
f 25/6/1 22/6/1 21/6/1
f 26/6/1 22/6/1 25/6/1
f 27/6/1 24/6/1 23/6/1
f 28/6/1 24/6/1 27/6/1
f 31/1/1 30/1/1 29/1/1
f 32/1/1 30/1/1 31/1/1
f 35/2/1 34/2/1 33/2/1
f 36/2/1 34/2/1 35/2/1
f 37/4/1 36/4/1 35/4/1
f 38/4/1 36/4/1 37/4/1
f 39/2/1 38/2/1 37/2/1
f 40/2/1 38/2/1 39/2/1
f 43/1/1 42/1/1 41/1/1
f 44/1/1 42/1/1 43/1/1
f 47/1/1 46/1/1 45/1/1
f 48/1/1 46/1/1 47/1/1
f 53/5/1 50/5/1 49/5/1
f 54/5/1 50/5/1 53/5/1
f 55/5/1 52/5/1 51/5/1
f 56/5/1 52/5/1 55/5/1
f 61/5/1 58/5/1 57/5/1
f 62/5/1 58/5/1 61/5/1
f 63/5/1 60/5/1 59/5/1
f 64/5/1 60/5/1 63/5/1
f 67/1/1 66/1/1 65/1/1
f 68/1/1 66/1/1 67/1/1
f 71/1/1 70/1/1 69/1/1
f 72/1/1 70/1/1 71/1/1
f 77/5/1 74/5/1 73/5/1
f 78/5/1 74/5/1 77/5/1
f 79/5/1 76/5/1 75/5/1
f 80/5/1 76/5/1 79/5/1
f 82/5/1 79/5/1 78/5/1
f 83/5/1 79/5/1 82/5/1
f 84/5/1 79/5/1 83/5/1
f 85/5/1 79/5/1 84/5/1
f 87/5/1 82/5/1 81/5/1
f 88/5/1 82/5/1 87/5/1
f 89/5/1 84/5/1 83/5/1
f 90/5/1 84/5/1 89/5/1
f 91/5/1 86/5/1 85/5/1
f 92/5/1 86/5/1 91/5/1
f 93/5/2 94/5/2 97/5/2
f 97/5/2 94/5/2 98/5/2
f 95/5/2 96/5/2 99/5/2
f 99/5/2 96/5/2 100/5/2
f 98/5/2 99/5/2 102/5/2
f 102/5/2 99/5/2 103/5/2
f 103/5/2 99/5/2 104/5/2
f 104/5/2 99/5/2 105/5/2
f 101/5/2 102/5/2 107/5/2
f 107/5/2 102/5/2 108/5/2
f 103/5/2 104/5/2 109/5/2
f 109/5/2 104/5/2 110/5/2
f 105/5/2 106/5/2 111/5/2
f 111/5/2 106/5/2 112/5/2
f 113/1/2 114/1/2 115/1/2
f 115/1/2 114/1/2 116/1/2
f 117/1/2 118/1/2 119/1/2
f 119/1/2 118/1/2 120/1/2
f 121/5/2 122/5/2 125/5/2
f 125/5/2 122/5/2 126/5/2
f 123/5/2 124/5/2 127/5/2
f 127/5/2 124/5/2 128/5/2
f 129/5/2 130/5/2 133/5/2
f 133/5/2 130/5/2 134/5/2
f 131/5/2 132/5/2 135/5/2
f 135/5/2 132/5/2 136/5/2
f 137/1/2 138/1/2 139/1/2
f 139/1/2 138/1/2 140/1/2
f 141/2/2 142/2/2 143/2/2
f 143/2/2 142/2/2 144/2/2
f 143/4/2 144/4/2 145/4/2
f 145/4/2 144/4/2 146/4/2
f 145/2/2 146/2/2 147/2/2
f 147/2/2 146/2/2 148/2/2
f 149/6/2 150/6/2 153/6/2
f 153/6/2 150/6/2 154/6/2
f 151/6/2 152/6/2 155/6/2
f 155/6/2 152/6/2 156/6/2
f 157/1/2 158/1/2 159/1/2
f 159/1/2 158/1/2 160/1/2
f 161/5/2 162/5/2 167/5/2
f 163/5/2 164/5/2 168/5/2
f 168/5/2 164/5/2 169/5/2
f 165/5/2 166/5/2 170/5/2
f 168/5/2 169/5/2 171/5/2
f 169/5/2 170/5/2 171/5/2
f 161/5/2 167/5/2 171/5/2
f 167/5/2 168/5/2 171/5/2
f 171/5/2 170/5/2 172/5/2
f 172/5/2 170/5/2 173/5/2
f 170/5/2 166/5/2 174/5/2
f 173/5/2 170/5/2 174/5/2
f 161/5/2 171/5/2 175/5/2
f 175/5/2 171/5/2 176/5/2
f 172/5/2 173/5/2 177/5/2
f 177/5/2 173/5/2 178/5/2
f 174/5/2 166/5/2 179/5/2
f 179/5/2 166/5/2 180/5/2
f 183/5/3 182/5/3 181/5/3
f 184/5/3 182/5/3 183/5/3
f 185/5/3 182/5/3 184/5/3
f 186/5/3 182/5/3 185/5/3
f 188/5/3 185/5/3 184/5/3
f 189/5/3 185/5/3 188/5/3
f 191/5/3 188/5/3 187/5/3
f 191/5/3 190/5/3 189/5/3
f 191/5/3 189/5/3 188/5/3
f 192/5/3 190/5/3 191/5/3
f 193/5/3 190/5/3 192/5/3
f 194/5/3 190/5/3 193/5/3
f 196/5/3 193/5/3 192/5/3
f 197/5/3 193/5/3 196/5/3
f 199/5/3 196/5/3 195/5/3
f 199/5/3 198/5/3 197/5/3
f 199/5/3 197/5/3 196/5/3
f 200/5/3 198/5/3 199/5/3
f 203/6/3 202/6/3 201/6/3
f 204/6/3 202/6/3 203/6/3
f 207/6/3 206/6/3 205/6/3
f 208/6/3 206/6/3 207/6/3
f 213/5/3 210/5/3 209/5/3
f 214/5/3 210/5/3 213/5/3
f 215/5/3 212/5/3 211/5/3
f 216/5/3 212/5/3 215/5/3
f 223/1/3 218/1/3 217/1/3
f 224/1/3 218/1/3 223/1/3
f 225/2/3 220/2/3 219/2/3
f 225/4/3 221/4/3 220/4/3
f 226/2/3 222/2/3 221/2/3
f 226/4/3 221/4/3 225/4/3
f 228/1/3 223/1/3 217/1/3
f 229/1/3 223/1/3 228/1/3
f 231/1/3 228/1/3 227/1/3
f 231/1/3 230/1/3 229/1/3
f 231/1/3 229/1/3 228/1/3
f 232/1/3 230/1/3 231/1/3
f 235/2/3 225/2/3 219/2/3
f 235/3/3 226/3/3 225/3/3
f 236/2/3 222/2/3 226/2/3
f 236/3/3 226/3/3 235/3/3
f 237/1/3 234/1/3 233/1/3
f 238/1/3 234/1/3 237/1/3
f 239/2/3 235/2/3 219/2/3
f 240/4/3 236/4/3 235/4/3
f 240/2/3 235/2/3 239/2/3
f 241/2/3 222/2/3 236/2/3
f 241/4/3 236/4/3 240/4/3
f 242/2/3 222/2/3 241/2/3
f 243/1/3 237/1/3 233/1/3
f 244/1/3 234/1/3 238/1/3
f 249/1/3 244/1/3 243/1/3
f 249/1/3 243/1/3 233/1/3
f 250/1/3 234/1/3 244/1/3
f 250/1/3 244/1/3 249/1/3
f 251/5/3 246/5/3 245/5/3
f 252/5/3 246/5/3 251/5/3
f 253/5/3 248/5/3 247/5/3
f 254/5/3 248/5/3 253/5/3
f 259/5/3 256/5/3 255/5/3
f 260/5/3 256/5/3 259/5/3
f 261/5/3 258/5/3 257/5/3
f 262/5/3 258/5/3 261/5/3
f 263/5/3 261/5/3 260/5/3
f 265/5/3 263/5/3 260/5/3
f 265/5/3 264/5/3 263/5/3
f 266/5/3 264/5/3 265/5/3
f 268/5/3 265/5/3 260/5/3
f 269/5/3 265/5/3 268/5/3
f 271/5/3 268/5/3 267/5/3
f 272/5/3 268/5/3 271/5/3
f 273/5/3 270/5/3 269/5/3
f 274/5/3 270/5/3 273/5/3
f 275/5/4 276/5/4 279/5/4
f 279/5/4 276/5/4 280/5/4
f 277/5/4 278/5/4 281/5/4
f 281/5/4 278/5/4 282/5/4
f 280/5/4 281/5/4 283/5/4
f 280/5/4 283/5/4 285/5/4
f 283/5/4 284/5/4 285/5/4
f 285/5/4 284/5/4 286/5/4
f 280/5/4 285/5/4 288/5/4
f 288/5/4 285/5/4 289/5/4
f 287/5/4 288/5/4 291/5/4
f 291/5/4 288/5/4 292/5/4
f 289/5/4 290/5/4 293/5/4
f 293/5/4 290/5/4 294/5/4
f 295/5/4 296/5/4 299/5/4
f 299/5/4 296/5/4 300/5/4
f 297/5/4 298/5/4 301/5/4
f 301/5/4 298/5/4 302/5/4
f 303/1/4 304/1/4 309/1/4
f 309/1/4 304/1/4 310/1/4
f 305/2/4 306/2/4 311/2/4
f 306/4/4 307/4/4 311/4/4
f 307/2/4 308/2/4 312/2/4
f 311/4/4 307/4/4 312/4/4
f 303/1/4 309/1/4 314/1/4
f 314/1/4 309/1/4 315/1/4
f 313/1/4 314/1/4 317/1/4
f 315/1/4 316/1/4 317/1/4
f 314/1/4 315/1/4 317/1/4
f 317/1/4 316/1/4 318/1/4
f 305/2/4 311/2/4 321/2/4
f 311/3/4 312/3/4 321/3/4
f 312/2/4 308/2/4 322/2/4
f 321/3/4 312/3/4 322/3/4
f 319/1/4 320/1/4 323/1/4
f 323/1/4 320/1/4 324/1/4
f 305/2/4 321/2/4 325/2/4
f 321/4/4 322/4/4 326/4/4
f 325/2/4 321/2/4 326/2/4
f 322/2/4 308/2/4 327/2/4
f 326/4/4 322/4/4 327/4/4
f 327/2/4 308/2/4 328/2/4
f 319/1/4 323/1/4 329/1/4
f 324/1/4 320/1/4 330/1/4
f 329/1/4 330/1/4 335/1/4
f 319/1/4 329/1/4 335/1/4
f 330/1/4 320/1/4 336/1/4
f 335/1/4 330/1/4 336/1/4
f 331/5/4 332/5/4 337/5/4
f 337/5/4 332/5/4 338/5/4
f 333/5/4 334/5/4 339/5/4
f 339/5/4 334/5/4 340/5/4
f 341/6/4 342/6/4 343/6/4
f 343/6/4 342/6/4 344/6/4
f 345/6/4 346/6/4 347/6/4
f 347/6/4 346/6/4 348/6/4
f 349/5/4 350/5/4 351/5/4
f 351/5/4 350/5/4 352/5/4
f 352/5/4 350/5/4 353/5/4
f 353/5/4 350/5/4 354/5/4
f 352/5/4 353/5/4 356/5/4
f 356/5/4 353/5/4 357/5/4
f 355/5/4 356/5/4 359/5/4
f 357/5/4 358/5/4 359/5/4
f 356/5/4 357/5/4 359/5/4
f 359/5/4 358/5/4 360/5/4
f 360/5/4 358/5/4 361/5/4
f 361/5/4 358/5/4 362/5/4
f 360/5/4 361/5/4 364/5/4
f 364/5/4 361/5/4 365/5/4
f 363/5/4 364/5/4 367/5/4
f 365/5/4 366/5/4 367/5/4
f 364/5/4 365/5/4 367/5/4
f 367/5/4 366/5/4 368/5/4
f 375/5/5 370/5/5 369/5/5
f 376/5/5 370/5/5 375/5/5
f 377/5/5 372/5/5 371/5/5
f 378/5/5 372/5/5 377/5/5
f 379/5/5 374/5/5 373/5/5
f 380/5/5 374/5/5 379/5/5
f 382/6/5 378/6/5 377/6/5
f 382/6/5 379/6/5 378/6/5
f 382/6/5 377/6/5 376/6/5
f 383/6/5 379/6/5 382/6/5
f 385/5/5 382/5/5 381/5/5
f 386/6/5 383/6/5 382/6/5
f 386/5/5 382/5/5 385/5/5
f 387/5/5 384/5/5 383/5/5
f 387/6/5 383/6/5 386/6/5
f 388/5/5 384/5/5 387/5/5
f 390/6/5 387/6/5 386/6/5
f 391/6/5 387/6/5 390/6/5
f 392/6/5 387/6/5 391/6/5
f 393/6/5 387/6/5 392/6/5
f 395/5/5 390/5/5 389/5/5
f 396/5/5 390/5/5 395/5/5
f 397/5/5 392/5/5 391/5/5
f 398/5/5 392/5/5 397/5/5
f 399/5/5 394/5/5 393/5/5
f 400/5/5 394/5/5 399/5/5
f 406/5/5 402/5/5 401/5/5
f 407/5/5 402/5/5 406/5/5
f 408/5/5 404/5/5 403/5/5
f 409/5/5 404/5/5 408/5/5
f 411/5/5 406/5/5 405/5/5
f 412/5/5 406/5/5 411/5/5
f 413/5/5 410/5/5 409/5/5
f 414/5/5 410/5/5 413/5/5
f 419/5/5 416/5/5 415/5/5
f 420/5/5 416/5/5 419/5/5
f 423/5/5 418/5/5 417/5/5
f 424/5/5 418/5/5 423/5/5
f 425/5/5 421/5/5 420/5/5
f 426/5/5 421/5/5 425/5/5
f 427/5/5 423/5/5 422/5/5
f 428/5/5 423/5/5 427/5/5
f 431/2/5 430/2/5 429/2/5
f 432/2/5 430/2/5 431/2/5
f 437/1/5 434/1/5 433/1/5
f 438/1/5 434/1/5 437/1/5
f 439/1/5 436/1/5 435/1/5
f 440/1/5 436/1/5 439/1/5
f 443/1/5 442/1/5 441/1/5
f 444/1/5 442/1/5 443/1/5
f 447/1/5 446/1/5 445/1/5
f 448/1/5 446/1/5 447/1/5
f 449/6/6 450/6/6 451/6/6
f 451/6/6 450/6/6 452/6/6
f 453/5/6 454/5/6 458/5/6
f 458/5/6 454/5/6 459/5/6
f 455/5/6 456/5/6 460/5/6
f 460/5/6 456/5/6 461/5/6
f 457/5/6 458/5/6 463/5/6
f 463/5/6 458/5/6 464/5/6
f 461/5/6 462/5/6 465/5/6
f 465/5/6 462/5/6 466/5/6
f 467/5/6 468/5/6 471/5/6
f 471/5/6 468/5/6 472/5/6
f 469/5/6 470/5/6 475/5/6
f 475/5/6 470/5/6 476/5/6
f 472/5/6 473/5/6 477/5/6
f 477/5/6 473/5/6 478/5/6
f 474/5/6 475/5/6 479/5/6
f 479/5/6 475/5/6 480/5/6
f 481/5/6 482/5/6 487/5/6
f 487/5/6 482/5/6 488/5/6
f 483/5/6 484/5/6 489/5/6
f 489/5/6 484/5/6 490/5/6
f 485/5/6 486/5/6 491/5/6
f 491/5/6 486/5/6 492/5/6
f 493/5/6 494/5/6 497/5/6
f 497/5/6 494/5/6 498/5/6
f 495/5/6 496/5/6 499/5/6
f 499/5/6 496/5/6 500/5/6
f 501/5/6 502/5/6 507/5/6
f 507/5/6 502/5/6 508/5/6
f 503/5/6 504/5/6 509/5/6
f 509/5/6 504/5/6 510/5/6
f 505/5/6 506/5/6 511/5/6
f 511/5/6 506/5/6 512/5/6
f 513/2/6 514/2/6 515/2/6
f 515/2/6 514/2/6 516/2/6
f 517/1/6 518/1/6 519/1/6
f 519/1/6 518/1/6 520/1/6
f 521/1/6 522/1/6 523/1/6
f 523/1/6 522/1/6 524/1/6
f 525/1/6 526/1/6 531/1/6
f 531/1/6 526/1/6 532/1/6
f 527/1/6 528/1/6 533/1/6
f 533/1/6 528/1/6 534/1/6
f 529/1/6 530/1/6 535/1/6
f 535/1/6 530/1/6 536/1/6
