# MagicaVoxel @ Ephtracy

# group
o 

# material
mtllib Locked 100.mtl
usemtl palette

# normals
vn -1 0 0
vn 1 0 0
vn 0 0 1
vn 0 0 -1
vn 0 -1 0
vn 0 1 0

# texcoords
vt 0.0644531 0.5
vt 0.0683594 0.5
vt 0.0722656 0.5
vt 0.146484 0.5
vt 0.220703 0.5

# verts
v -0.45 -0.5 0.45
v -0.45 -0.5 0.35
v -0.45 -0.5 0.05
v -0.45 -0.5 -0.05
v -0.45 -0.5 -0.35
v -0.45 -0.5 -0.45
v -0.45 -0.4 0.35
v -0.45 -0.4 0.05
v -0.45 -0.4 -0.05
v -0.45 -0.4 -0.35
v -0.45 -0.3 0.35
v -0.45 -0.3 0.05
v -0.45 -0.3 -0.05
v -0.45 -0.3 -0.35
v -0.45 -0.2 0.45
v -0.45 -0.2 0.35
v -0.45 -0.2 0.05
v -0.45 -0.2 -0.05
v -0.45 -0.2 -0.35
v -0.45 -0.2 -0.45
v -0.35 -0.5 0.35
v -0.35 -0.5 0.05
v -0.35 -0.5 -0.05
v -0.35 -0.5 -0.35
v -0.35 -0.4 0.35
v -0.35 -0.4 0.05
v -0.35 -0.4 -0.05
v -0.35 -0.4 -0.35
v -0.25 -0.2 0.05
v -0.25 -0.2 -0.05
v -0.25 -0.1 0.05
v -0.25 -0.1 -0.05
v -0.25 0 0.05
v -0.25 0 -0.05
v -0.25 0.1 0.05
v -0.25 0.1 -0.05
v -0.05 -0.5 0.45
v -0.05 -0.5 0.35
v -0.05 -0.5 -0.35
v -0.05 -0.5 -0.45
v -0.05 -0.4 0.45
v -0.05 -0.4 0.35
v -0.05 -0.4 -0.35
v -0.05 -0.4 -0.45
v -0.05 -0.3 0.45
v -0.05 -0.3 0.35
v -0.05 -0.3 -0.35
v -0.05 -0.3 -0.45
v -0.05 -0.2 0.45
v -0.05 -0.2 0.35
v -0.05 -0.2 -0.35
v -0.05 -0.2 -0.45
v 0.35 -0.5 0.45
v 0.35 -0.5 0.35
v 0.35 -0.5 -0.35
v 0.35 -0.5 -0.45
v 0.35 -0.4 0.45
v 0.35 -0.4 0.35
v 0.35 -0.4 -0.35
v 0.35 -0.4 -0.45
v 0.35 -0.3 0.45
v 0.35 -0.3 0.35
v 0.35 -0.3 0.05
v 0.35 -0.3 -0.05
v 0.35 -0.3 -0.35
v 0.35 -0.3 -0.45
v 0.35 -0.2 0.45
v 0.35 -0.2 0.35
v 0.35 -0.2 0.05
v 0.35 -0.2 -0.05
v 0.35 -0.2 -0.35
v 0.35 -0.2 -0.45
v -0.35 -0.5 0.45
v -0.35 -0.5 0.35
v -0.35 -0.5 -0.35
v -0.35 -0.5 -0.45
v -0.35 -0.4 0.45
v -0.35 -0.4 0.35
v -0.35 -0.4 -0.35
v -0.35 -0.4 -0.45
v -0.35 -0.3 0.45
v -0.35 -0.3 0.35
v -0.35 -0.3 0.05
v -0.35 -0.3 -0.05
v -0.35 -0.3 -0.35
v -0.35 -0.3 -0.45
v -0.35 -0.2 0.45
v -0.35 -0.2 0.35
v -0.35 -0.2 0.05
v -0.35 -0.2 -0.05
v -0.35 -0.2 -0.35
v -0.35 -0.2 -0.45
v 0.05 -0.5 0.45
v 0.05 -0.5 0.35
v 0.05 -0.5 -0.35
v 0.05 -0.5 -0.45
v 0.05 -0.4 0.45
v 0.05 -0.4 0.35
v 0.05 -0.4 -0.35
v 0.05 -0.4 -0.45
v 0.05 -0.3 0.45
v 0.05 -0.3 0.35
v 0.05 -0.3 -0.35
v 0.05 -0.3 -0.45
v 0.05 -0.2 0.45
v 0.05 -0.2 0.35
v 0.05 -0.2 -0.35
v 0.05 -0.2 -0.45
v 0.25 -0.2 0.05
v 0.25 -0.2 -0.05
v 0.25 -0.1 0.05
v 0.25 -0.1 -0.05
v 0.25 0 0.05
v 0.25 0 -0.05
v 0.25 0.1 0.05
v 0.25 0.1 -0.05
v 0.35 -0.5 0.35
v 0.35 -0.5 0.05
v 0.35 -0.5 -0.05
v 0.35 -0.5 -0.35
v 0.35 -0.4 0.35
v 0.35 -0.4 0.05
v 0.35 -0.4 -0.05
v 0.35 -0.4 -0.35
v 0.45 -0.5 0.45
v 0.45 -0.5 0.35
v 0.45 -0.5 0.05
v 0.45 -0.5 -0.05
v 0.45 -0.5 -0.35
v 0.45 -0.5 -0.45
v 0.45 -0.4 0.35
v 0.45 -0.4 0.05
v 0.45 -0.4 -0.05
v 0.45 -0.4 -0.35
v 0.45 -0.3 0.35
v 0.45 -0.3 0.05
v 0.45 -0.3 -0.05
v 0.45 -0.3 -0.35
v 0.45 -0.2 0.45
v 0.45 -0.2 0.35
v 0.45 -0.2 0.05
v 0.45 -0.2 -0.05
v 0.45 -0.2 -0.35
v 0.45 -0.2 -0.45
v -0.45 -0.5 0.45
v -0.45 -0.2 0.45
v -0.35 -0.5 0.45
v -0.35 -0.4 0.45
v -0.35 -0.3 0.45
v -0.35 -0.2 0.45
v -0.05 -0.5 0.45
v -0.05 -0.4 0.45
v -0.05 -0.3 0.45
v -0.05 -0.2 0.45
v 0.05 -0.5 0.45
v 0.05 -0.4 0.45
v 0.05 -0.3 0.45
v 0.05 -0.2 0.45
v 0.35 -0.5 0.45
v 0.35 -0.4 0.45
v 0.35 -0.3 0.45
v 0.35 -0.2 0.45
v 0.45 -0.5 0.45
v 0.45 -0.2 0.45
v -0.35 -0.5 0.35
v -0.35 -0.4 0.35
v -0.05 -0.5 0.35
v -0.05 -0.4 0.35
v 0.05 -0.5 0.35
v 0.05 -0.4 0.35
v 0.35 -0.5 0.35
v 0.35 -0.4 0.35
v -0.45 -0.5 0.05
v -0.45 -0.4 0.05
v -0.45 -0.3 0.05
v -0.45 -0.2 0.05
v -0.35 -0.5 0.05
v -0.35 -0.4 0.05
v -0.35 -0.3 0.05
v -0.35 -0.2 0.05
v -0.25 -0.2 0.05
v -0.25 -0.1 0.05
v -0.25 0 0.05
v -0.25 0.1 0.05
v -0.15 -0.1 0.05
v -0.15 0 0.05
v 0.15 -0.1 0.05
v 0.15 0 0.05
v 0.25 -0.2 0.05
v 0.25 -0.1 0.05
v 0.25 0 0.05
v 0.25 0.1 0.05
v 0.35 -0.5 0.05
v 0.35 -0.4 0.05
v 0.35 -0.3 0.05
v 0.35 -0.2 0.05
v 0.45 -0.5 0.05
v 0.45 -0.4 0.05
v 0.45 -0.3 0.05
v 0.45 -0.2 0.05
v -0.45 -0.5 -0.35
v -0.45 -0.4 -0.35
v -0.45 -0.3 -0.35
v -0.45 -0.2 -0.35
v -0.35 -0.5 -0.35
v -0.35 -0.4 -0.35
v -0.35 -0.3 -0.35
v -0.35 -0.2 -0.35
v -0.05 -0.3 -0.35
v -0.05 -0.2 -0.35
v 0.05 -0.3 -0.35
v 0.05 -0.2 -0.35
v 0.35 -0.5 -0.35
v 0.35 -0.4 -0.35
v 0.35 -0.3 -0.35
v 0.35 -0.2 -0.35
v 0.45 -0.5 -0.35
v 0.45 -0.4 -0.35
v 0.45 -0.3 -0.35
v 0.45 -0.2 -0.35
v -0.45 -0.5 0.35
v -0.45 -0.4 0.35
v -0.45 -0.3 0.35
v -0.45 -0.2 0.35
v -0.35 -0.5 0.35
v -0.35 -0.4 0.35
v -0.35 -0.3 0.35
v -0.35 -0.2 0.35
v -0.05 -0.3 0.35
v -0.05 -0.2 0.35
v 0.05 -0.3 0.35
v 0.05 -0.2 0.35
v 0.35 -0.5 0.35
v 0.35 -0.4 0.35
v 0.35 -0.3 0.35
v 0.35 -0.2 0.35
v 0.45 -0.5 0.35
v 0.45 -0.4 0.35
v 0.45 -0.3 0.35
v 0.45 -0.2 0.35
v -0.45 -0.5 -0.05
v -0.45 -0.4 -0.05
v -0.45 -0.3 -0.05
v -0.45 -0.2 -0.05
v -0.35 -0.5 -0.05
v -0.35 -0.4 -0.05
v -0.35 -0.3 -0.05
v -0.35 -0.2 -0.05
v -0.25 -0.2 -0.05
v -0.25 -0.1 -0.05
v -0.25 0 -0.05
v -0.25 0.1 -0.05
v -0.15 -0.1 -0.05
v -0.15 0 -0.05
v 0.15 -0.1 -0.05
v 0.15 0 -0.05
v 0.25 -0.2 -0.05
v 0.25 -0.1 -0.05
v 0.25 0 -0.05
v 0.25 0.1 -0.05
v 0.35 -0.5 -0.05
v 0.35 -0.4 -0.05
v 0.35 -0.3 -0.05
v 0.35 -0.2 -0.05
v 0.45 -0.5 -0.05
v 0.45 -0.4 -0.05
v 0.45 -0.3 -0.05
v 0.45 -0.2 -0.05
v -0.35 -0.5 -0.35
v -0.35 -0.4 -0.35
v -0.05 -0.5 -0.35
v -0.05 -0.4 -0.35
v 0.05 -0.5 -0.35
v 0.05 -0.4 -0.35
v 0.35 -0.5 -0.35
v 0.35 -0.4 -0.35
v -0.45 -0.5 -0.45
v -0.45 -0.2 -0.45
v -0.35 -0.5 -0.45
v -0.35 -0.4 -0.45
v -0.35 -0.3 -0.45
v -0.35 -0.2 -0.45
v -0.05 -0.5 -0.45
v -0.05 -0.4 -0.45
v -0.05 -0.3 -0.45
v -0.05 -0.2 -0.45
v 0.05 -0.5 -0.45
v 0.05 -0.4 -0.45
v 0.05 -0.3 -0.45
v 0.05 -0.2 -0.45
v 0.35 -0.5 -0.45
v 0.35 -0.4 -0.45
v 0.35 -0.3 -0.45
v 0.35 -0.2 -0.45
v 0.45 -0.5 -0.45
v 0.45 -0.2 -0.45
v -0.45 -0.5 0.45
v -0.35 -0.5 0.45
v -0.05 -0.5 0.45
v 0.05 -0.5 0.45
v 0.35 -0.5 0.45
v 0.45 -0.5 0.45
v -0.45 -0.5 0.35
v -0.35 -0.5 0.35
v -0.05 -0.5 0.35
v 0.05 -0.5 0.35
v 0.35 -0.5 0.35
v 0.45 -0.5 0.35
v -0.45 -0.5 0.05
v -0.35 -0.5 0.05
v 0.35 -0.5 0.05
v 0.45 -0.5 0.05
v -0.45 -0.5 -0.05
v -0.35 -0.5 -0.05
v 0.35 -0.5 -0.05
v 0.45 -0.5 -0.05
v -0.45 -0.5 -0.35
v -0.35 -0.5 -0.35
v -0.05 -0.5 -0.35
v 0.05 -0.5 -0.35
v 0.35 -0.5 -0.35
v 0.45 -0.5 -0.35
v -0.45 -0.5 -0.45
v -0.35 -0.5 -0.45
v -0.05 -0.5 -0.45
v 0.05 -0.5 -0.45
v 0.35 -0.5 -0.45
v 0.45 -0.5 -0.45
v -0.35 -0.4 0.45
v -0.05 -0.4 0.45
v 0.05 -0.4 0.45
v 0.35 -0.4 0.45
v -0.45 -0.4 0.35
v -0.35 -0.4 0.35
v -0.05 -0.4 0.35
v 0.05 -0.4 0.35
v 0.35 -0.4 0.35
v 0.45 -0.4 0.35
v -0.45 -0.4 0.05
v -0.35 -0.4 0.05
v 0.35 -0.4 0.05
v 0.45 -0.4 0.05
v -0.45 -0.4 -0.05
v -0.35 -0.4 -0.05
v 0.35 -0.4 -0.05
v 0.45 -0.4 -0.05
v -0.45 -0.4 -0.35
v -0.35 -0.4 -0.35
v -0.05 -0.4 -0.35
v 0.05 -0.4 -0.35
v 0.35 -0.4 -0.35
v 0.45 -0.4 -0.35
v -0.35 -0.4 -0.45
v -0.05 -0.4 -0.45
v 0.05 -0.4 -0.45
v 0.35 -0.4 -0.45
v -0.25 -0.2 0.05
v 0.25 -0.2 0.05
v -0.25 -0.2 -0.05
v 0.25 -0.2 -0.05
v -0.35 -0.4 0.35
v 0.35 -0.4 0.35
v -0.35 -0.4 -0.35
v 0.35 -0.4 -0.35
v -0.35 -0.3 0.45
v -0.05 -0.3 0.45
v 0.05 -0.3 0.45
v 0.35 -0.3 0.45
v -0.45 -0.3 0.35
v -0.35 -0.3 0.35
v -0.05 -0.3 0.35
v 0.05 -0.3 0.35
v 0.35 -0.3 0.35
v 0.45 -0.3 0.35
v -0.45 -0.3 0.05
v -0.35 -0.3 0.05
v 0.35 -0.3 0.05
v 0.45 -0.3 0.05
v -0.45 -0.3 -0.05
v -0.35 -0.3 -0.05
v 0.35 -0.3 -0.05
v 0.45 -0.3 -0.05
v -0.45 -0.3 -0.35
v -0.35 -0.3 -0.35
v -0.05 -0.3 -0.35
v 0.05 -0.3 -0.35
v 0.35 -0.3 -0.35
v 0.45 -0.3 -0.35
v -0.35 -0.3 -0.45
v -0.05 -0.3 -0.45
v 0.05 -0.3 -0.45
v 0.35 -0.3 -0.45
v -0.45 -0.2 0.45
v -0.35 -0.2 0.45
v -0.05 -0.2 0.45
v 0.05 -0.2 0.45
v 0.35 -0.2 0.45
v 0.45 -0.2 0.45
v -0.45 -0.2 0.35
v -0.35 -0.2 0.35
v -0.05 -0.2 0.35
v 0.05 -0.2 0.35
v 0.35 -0.2 0.35
v 0.45 -0.2 0.35
v -0.45 -0.2 0.05
v -0.35 -0.2 0.05
v 0.35 -0.2 0.05
v 0.45 -0.2 0.05
v -0.45 -0.2 -0.05
v -0.35 -0.2 -0.05
v 0.35 -0.2 -0.05
v 0.45 -0.2 -0.05
v -0.45 -0.2 -0.35
v -0.35 -0.2 -0.35
v -0.05 -0.2 -0.35
v 0.05 -0.2 -0.35
v 0.35 -0.2 -0.35
v 0.45 -0.2 -0.35
v -0.45 -0.2 -0.45
v -0.35 -0.2 -0.45
v -0.05 -0.2 -0.45
v 0.05 -0.2 -0.45
v 0.35 -0.2 -0.45
v 0.45 -0.2 -0.45
v -0.25 0.1 0.05
v 0.25 0.1 0.05
v -0.25 0.1 -0.05
v 0.25 0.1 -0.05

# faces
f 7/4/1 2/4/1 1/4/1
f 8/4/1 4/4/1 3/4/1
f 9/4/1 4/4/1 8/4/1
f 10/4/1 6/4/1 5/4/1
f 11/4/1 9/4/1 8/4/1
f 11/4/1 10/4/1 9/4/1
f 11/4/1 7/4/1 1/4/1
f 11/4/1 8/4/1 7/4/1
f 12/4/1 10/4/1 11/4/1
f 13/4/1 10/4/1 12/4/1
f 14/4/1 6/4/1 10/4/1
f 14/4/1 10/4/1 13/4/1
f 15/4/1 11/4/1 1/4/1
f 16/4/1 11/4/1 15/4/1
f 17/4/1 13/4/1 12/4/1
f 18/4/1 13/4/1 17/4/1
f 19/4/1 6/4/1 14/4/1
f 20/4/1 6/4/1 19/4/1
f 25/5/1 22/5/1 21/5/1
f 26/5/1 22/5/1 25/5/1
f 27/5/1 24/5/1 23/5/1
f 28/5/1 24/5/1 27/5/1
f 31/1/1 30/1/1 29/1/1
f 32/1/1 30/1/1 31/1/1
f 33/3/1 32/3/1 31/3/1
f 34/3/1 32/3/1 33/3/1
f 35/1/1 34/1/1 33/1/1
f 36/1/1 34/1/1 35/1/1
f 41/4/1 38/4/1 37/4/1
f 42/4/1 38/4/1 41/4/1
f 43/4/1 40/4/1 39/4/1
f 44/4/1 40/4/1 43/4/1
f 49/4/1 46/4/1 45/4/1
f 50/4/1 46/4/1 49/4/1
f 51/4/1 48/4/1 47/4/1
f 52/4/1 48/4/1 51/4/1
f 57/4/1 54/4/1 53/4/1
f 58/4/1 54/4/1 57/4/1
f 59/4/1 56/4/1 55/4/1
f 60/4/1 56/4/1 59/4/1
f 62/4/1 59/4/1 58/4/1
f 63/4/1 59/4/1 62/4/1
f 64/4/1 59/4/1 63/4/1
f 65/4/1 59/4/1 64/4/1
f 67/4/1 62/4/1 61/4/1
f 68/4/1 62/4/1 67/4/1
f 69/4/1 64/4/1 63/4/1
f 70/4/1 64/4/1 69/4/1
f 71/4/1 66/4/1 65/4/1
f 72/4/1 66/4/1 71/4/1
f 73/4/2 74/4/2 77/4/2
f 77/4/2 74/4/2 78/4/2
f 75/4/2 76/4/2 79/4/2
f 79/4/2 76/4/2 80/4/2
f 78/4/2 79/4/2 82/4/2
f 82/4/2 79/4/2 83/4/2
f 83/4/2 79/4/2 84/4/2
f 84/4/2 79/4/2 85/4/2
f 81/4/2 82/4/2 87/4/2
f 87/4/2 82/4/2 88/4/2
f 83/4/2 84/4/2 89/4/2
f 89/4/2 84/4/2 90/4/2
f 85/4/2 86/4/2 91/4/2
f 91/4/2 86/4/2 92/4/2
f 93/4/2 94/4/2 97/4/2
f 97/4/2 94/4/2 98/4/2
f 95/4/2 96/4/2 99/4/2
f 99/4/2 96/4/2 100/4/2
f 101/4/2 102/4/2 105/4/2
f 105/4/2 102/4/2 106/4/2
f 103/4/2 104/4/2 107/4/2
f 107/4/2 104/4/2 108/4/2
f 109/1/2 110/1/2 111/1/2
f 111/1/2 110/1/2 112/1/2
f 111/3/2 112/3/2 113/3/2
f 113/3/2 112/3/2 114/3/2
f 113/1/2 114/1/2 115/1/2
f 115/1/2 114/1/2 116/1/2
f 117/5/2 118/5/2 121/5/2
f 121/5/2 118/5/2 122/5/2
f 119/5/2 120/5/2 123/5/2
f 123/5/2 120/5/2 124/5/2
f 125/4/2 126/4/2 131/4/2
f 127/4/2 128/4/2 132/4/2
f 132/4/2 128/4/2 133/4/2
f 129/4/2 130/4/2 134/4/2
f 132/4/2 133/4/2 135/4/2
f 133/4/2 134/4/2 135/4/2
f 125/4/2 131/4/2 135/4/2
f 131/4/2 132/4/2 135/4/2
f 135/4/2 134/4/2 136/4/2
f 136/4/2 134/4/2 137/4/2
f 134/4/2 130/4/2 138/4/2
f 137/4/2 134/4/2 138/4/2
f 125/4/2 135/4/2 139/4/2
f 139/4/2 135/4/2 140/4/2
f 136/4/2 137/4/2 141/4/2
f 141/4/2 137/4/2 142/4/2
f 138/4/2 130/4/2 143/4/2
f 143/4/2 130/4/2 144/4/2
f 147/4/3 146/4/3 145/4/3
f 148/4/3 146/4/3 147/4/3
f 149/4/3 146/4/3 148/4/3
f 150/4/3 146/4/3 149/4/3
f 152/4/3 149/4/3 148/4/3
f 153/4/3 149/4/3 152/4/3
f 155/4/3 152/4/3 151/4/3
f 155/4/3 154/4/3 153/4/3
f 155/4/3 153/4/3 152/4/3
f 156/4/3 154/4/3 155/4/3
f 157/4/3 154/4/3 156/4/3
f 158/4/3 154/4/3 157/4/3
f 160/4/3 157/4/3 156/4/3
f 161/4/3 157/4/3 160/4/3
f 163/4/3 160/4/3 159/4/3
f 163/4/3 162/4/3 161/4/3
f 163/4/3 161/4/3 160/4/3
f 164/4/3 162/4/3 163/4/3
f 167/5/3 166/5/3 165/5/3
f 168/5/3 166/5/3 167/5/3
f 171/5/3 170/5/3 169/5/3
f 172/5/3 170/5/3 171/5/3
f 177/4/3 174/4/3 173/4/3
f 178/4/3 174/4/3 177/4/3
f 179/4/3 176/4/3 175/4/3
f 180/4/3 176/4/3 179/4/3
f 185/1/3 182/1/3 181/1/3
f 185/3/3 183/3/3 182/3/3
f 186/1/3 184/1/3 183/1/3
f 186/3/3 183/3/3 185/3/3
f 187/1/3 185/1/3 181/1/3
f 187/2/3 186/2/3 185/2/3
f 188/1/3 184/1/3 186/1/3
f 188/2/3 186/2/3 187/2/3
f 189/1/3 187/1/3 181/1/3
f 190/3/3 188/3/3 187/3/3
f 190/1/3 187/1/3 189/1/3
f 191/1/3 184/1/3 188/1/3
f 191/3/3 188/3/3 190/3/3
f 192/1/3 184/1/3 191/1/3
f 197/4/3 194/4/3 193/4/3
f 198/4/3 194/4/3 197/4/3
f 199/4/3 196/4/3 195/4/3
f 200/4/3 196/4/3 199/4/3
f 205/4/3 202/4/3 201/4/3
f 206/4/3 202/4/3 205/4/3
f 207/4/3 204/4/3 203/4/3
f 208/4/3 204/4/3 207/4/3
f 209/4/3 207/4/3 206/4/3
f 211/4/3 209/4/3 206/4/3
f 211/4/3 210/4/3 209/4/3
f 212/4/3 210/4/3 211/4/3
f 214/4/3 211/4/3 206/4/3
f 215/4/3 211/4/3 214/4/3
f 217/4/3 214/4/3 213/4/3
f 218/4/3 214/4/3 217/4/3
f 219/4/3 216/4/3 215/4/3
f 220/4/3 216/4/3 219/4/3
f 221/4/4 222/4/4 225/4/4
f 225/4/4 222/4/4 226/4/4
f 223/4/4 224/4/4 227/4/4
f 227/4/4 224/4/4 228/4/4
f 226/4/4 227/4/4 229/4/4
f 226/4/4 229/4/4 231/4/4
f 229/4/4 230/4/4 231/4/4
f 231/4/4 230/4/4 232/4/4
f 226/4/4 231/4/4 234/4/4
f 234/4/4 231/4/4 235/4/4
f 233/4/4 234/4/4 237/4/4
f 237/4/4 234/4/4 238/4/4
f 235/4/4 236/4/4 239/4/4
f 239/4/4 236/4/4 240/4/4
f 241/4/4 242/4/4 245/4/4
f 245/4/4 242/4/4 246/4/4
f 243/4/4 244/4/4 247/4/4
f 247/4/4 244/4/4 248/4/4
f 249/1/4 250/1/4 253/1/4
f 250/3/4 251/3/4 253/3/4
f 251/1/4 252/1/4 254/1/4
f 253/3/4 251/3/4 254/3/4
f 249/1/4 253/1/4 255/1/4
f 253/2/4 254/2/4 255/2/4
f 254/1/4 252/1/4 256/1/4
f 255/2/4 254/2/4 256/2/4
f 249/1/4 255/1/4 257/1/4
f 255/3/4 256/3/4 258/3/4
f 257/1/4 255/1/4 258/1/4
f 256/1/4 252/1/4 259/1/4
f 258/3/4 256/3/4 259/3/4
f 259/1/4 252/1/4 260/1/4
f 261/4/4 262/4/4 265/4/4
f 265/4/4 262/4/4 266/4/4
f 263/4/4 264/4/4 267/4/4
f 267/4/4 264/4/4 268/4/4
f 269/5/4 270/5/4 271/5/4
f 271/5/4 270/5/4 272/5/4
f 273/5/4 274/5/4 275/5/4
f 275/5/4 274/5/4 276/5/4
f 277/4/4 278/4/4 279/4/4
f 279/4/4 278/4/4 280/4/4
f 280/4/4 278/4/4 281/4/4
f 281/4/4 278/4/4 282/4/4
f 280/4/4 281/4/4 284/4/4
f 284/4/4 281/4/4 285/4/4
f 283/4/4 284/4/4 287/4/4
f 285/4/4 286/4/4 287/4/4
f 284/4/4 285/4/4 287/4/4
f 287/4/4 286/4/4 288/4/4
f 288/4/4 286/4/4 289/4/4
f 289/4/4 286/4/4 290/4/4
f 288/4/4 289/4/4 292/4/4
f 292/4/4 289/4/4 293/4/4
f 291/4/4 292/4/4 295/4/4
f 293/4/4 294/4/4 295/4/4
f 292/4/4 293/4/4 295/4/4
f 295/4/4 294/4/4 296/4/4
f 303/4/5 298/4/5 297/4/5
f 304/4/5 298/4/5 303/4/5
f 305/4/5 300/4/5 299/4/5
f 306/4/5 300/4/5 305/4/5
f 307/4/5 302/4/5 301/4/5
f 308/4/5 302/4/5 307/4/5
f 310/5/5 306/5/5 305/5/5
f 310/5/5 307/5/5 306/5/5
f 310/5/5 305/5/5 304/5/5
f 311/5/5 307/5/5 310/5/5
f 313/4/5 310/4/5 309/4/5
f 314/5/5 311/5/5 310/5/5
f 314/4/5 310/4/5 313/4/5
f 315/4/5 312/4/5 311/4/5
f 315/5/5 311/5/5 314/5/5
f 316/4/5 312/4/5 315/4/5
f 318/5/5 315/5/5 314/5/5
f 319/5/5 315/5/5 318/5/5
f 320/5/5 315/5/5 319/5/5
f 321/5/5 315/5/5 320/5/5
f 323/4/5 318/4/5 317/4/5
f 324/4/5 318/4/5 323/4/5
f 325/4/5 320/4/5 319/4/5
f 326/4/5 320/4/5 325/4/5
f 327/4/5 322/4/5 321/4/5
f 328/4/5 322/4/5 327/4/5
f 334/4/5 330/4/5 329/4/5
f 335/4/5 330/4/5 334/4/5
f 336/4/5 332/4/5 331/4/5
f 337/4/5 332/4/5 336/4/5
f 339/4/5 334/4/5 333/4/5
f 340/4/5 334/4/5 339/4/5
f 341/4/5 338/4/5 337/4/5
f 342/4/5 338/4/5 341/4/5
f 347/4/5 344/4/5 343/4/5
f 348/4/5 344/4/5 347/4/5
f 351/4/5 346/4/5 345/4/5
f 352/4/5 346/4/5 351/4/5
f 353/4/5 349/4/5 348/4/5
f 354/4/5 349/4/5 353/4/5
f 355/4/5 351/4/5 350/4/5
f 356/4/5 351/4/5 355/4/5
f 359/1/5 358/1/5 357/1/5
f 360/1/5 358/1/5 359/1/5
f 361/5/6 362/5/6 363/5/6
f 363/5/6 362/5/6 364/5/6
f 365/4/6 366/4/6 370/4/6
f 370/4/6 366/4/6 371/4/6
f 367/4/6 368/4/6 372/4/6
f 372/4/6 368/4/6 373/4/6
f 369/4/6 370/4/6 375/4/6
f 375/4/6 370/4/6 376/4/6
f 373/4/6 374/4/6 377/4/6
f 377/4/6 374/4/6 378/4/6
f 379/4/6 380/4/6 383/4/6
f 383/4/6 380/4/6 384/4/6
f 381/4/6 382/4/6 387/4/6
f 387/4/6 382/4/6 388/4/6
f 384/4/6 385/4/6 389/4/6
f 389/4/6 385/4/6 390/4/6
f 386/4/6 387/4/6 391/4/6
f 391/4/6 387/4/6 392/4/6
f 393/4/6 394/4/6 399/4/6
f 399/4/6 394/4/6 400/4/6
f 395/4/6 396/4/6 401/4/6
f 401/4/6 396/4/6 402/4/6
f 397/4/6 398/4/6 403/4/6
f 403/4/6 398/4/6 404/4/6
f 405/4/6 406/4/6 409/4/6
f 409/4/6 406/4/6 410/4/6
f 407/4/6 408/4/6 411/4/6
f 411/4/6 408/4/6 412/4/6
f 413/4/6 414/4/6 419/4/6
f 419/4/6 414/4/6 420/4/6
f 415/4/6 416/4/6 421/4/6
f 421/4/6 416/4/6 422/4/6
f 417/4/6 418/4/6 423/4/6
f 423/4/6 418/4/6 424/4/6
f 425/1/6 426/1/6 427/1/6
f 427/1/6 426/1/6 428/1/6
