# MagicaVoxel @ Ephtracy

# group
o 

# material
mtllib Corn 1.mtl
usemtl palette

# normals
vn -1 0 0
vn 1 0 0
vn 0 0 1
vn 0 0 -1
vn 0 -1 0
vn 0 1 0

# texcoords
vt 0.0761719 0.5
vt 0.220703 0.5
vt 0.224609 0.5

# verts
v -0.45 -0.5 0.45
v -0.45 -0.5 -0.45
v -0.45 -0.4 0.45
v -0.45 -0.4 -0.45
v -0.35 -0.4 0.35
v -0.35 -0.4 -0.35
v -0.35 -0.3 0.35
v -0.35 -0.3 0.25
v -0.35 -0.3 0.15
v -0.35 -0.3 -0.15
v -0.35 -0.3 -0.25
v -0.35 -0.3 -0.35
v -0.35 0 0.25
v -0.35 0 0.15
v -0.35 0 -0.15
v -0.35 0 -0.25
v -0.05 -0.4 0.35
v -0.05 -0.4 -0.35
v -0.05 -0.3 0.35
v -0.05 -0.3 -0.35
v 0.25 -0.4 0.35
v 0.25 -0.4 -0.35
v 0.25 -0.3 0.35
v 0.25 -0.3 0.25
v 0.25 -0.3 0.15
v 0.25 -0.3 -0.15
v 0.25 -0.3 -0.25
v 0.25 -0.3 -0.35
v 0.25 0 0.25
v 0.25 0 0.15
v 0.25 0 -0.15
v 0.25 0 -0.25
v -0.25 -0.4 0.35
v -0.25 -0.4 -0.35
v -0.25 -0.3 0.35
v -0.25 -0.3 0.25
v -0.25 -0.3 0.15
v -0.25 -0.3 -0.15
v -0.25 -0.3 -0.25
v -0.25 -0.3 -0.35
v -0.25 0 0.25
v -0.25 0 0.15
v -0.25 0 -0.15
v -0.25 0 -0.25
v 0.05 -0.4 0.35
v 0.05 -0.4 -0.35
v 0.05 -0.3 0.35
v 0.05 -0.3 -0.35
v 0.35 -0.4 0.35
v 0.35 -0.4 -0.35
v 0.35 -0.3 0.35
v 0.35 -0.3 0.25
v 0.35 -0.3 0.15
v 0.35 -0.3 -0.15
v 0.35 -0.3 -0.25
v 0.35 -0.3 -0.35
v 0.35 0 0.25
v 0.35 0 0.15
v 0.35 0 -0.15
v 0.35 0 -0.25
v 0.45 -0.5 0.45
v 0.45 -0.5 -0.45
v 0.45 -0.4 0.45
v 0.45 -0.4 -0.45
v -0.45 -0.5 0.45
v -0.45 -0.4 0.45
v 0.45 -0.5 0.45
v 0.45 -0.4 0.45
v -0.35 -0.4 0.35
v -0.35 -0.3 0.35
v -0.25 -0.4 0.35
v -0.25 -0.3 0.35
v -0.05 -0.4 0.35
v -0.05 -0.3 0.35
v 0.05 -0.4 0.35
v 0.05 -0.3 0.35
v 0.25 -0.4 0.35
v 0.25 -0.3 0.35
v 0.35 -0.4 0.35
v 0.35 -0.3 0.35
v -0.35 -0.3 0.25
v -0.35 0 0.25
v -0.25 -0.3 0.25
v -0.25 0 0.25
v 0.25 -0.3 0.25
v 0.25 0 0.25
v 0.35 -0.3 0.25
v 0.35 0 0.25
v -0.35 -0.3 -0.15
v -0.35 0 -0.15
v -0.25 -0.3 -0.15
v -0.25 0 -0.15
v 0.25 -0.3 -0.15
v 0.25 0 -0.15
v 0.35 -0.3 -0.15
v 0.35 0 -0.15
v -0.35 -0.3 0.15
v -0.35 0 0.15
v -0.25 -0.3 0.15
v -0.25 0 0.15
v 0.25 -0.3 0.15
v 0.25 0 0.15
v 0.35 -0.3 0.15
v 0.35 0 0.15
v -0.35 -0.3 -0.25
v -0.35 0 -0.25
v -0.25 -0.3 -0.25
v -0.25 0 -0.25
v 0.25 -0.3 -0.25
v 0.25 0 -0.25
v 0.35 -0.3 -0.25
v 0.35 0 -0.25
v -0.35 -0.4 -0.35
v -0.35 -0.3 -0.35
v -0.25 -0.4 -0.35
v -0.25 -0.3 -0.35
v -0.05 -0.4 -0.35
v -0.05 -0.3 -0.35
v 0.05 -0.4 -0.35
v 0.05 -0.3 -0.35
v 0.25 -0.4 -0.35
v 0.25 -0.3 -0.35
v 0.35 -0.4 -0.35
v 0.35 -0.3 -0.35
v -0.45 -0.5 -0.45
v -0.45 -0.4 -0.45
v 0.45 -0.5 -0.45
v 0.45 -0.4 -0.45
v -0.45 -0.5 0.45
v 0.45 -0.5 0.45
v -0.45 -0.5 -0.45
v 0.45 -0.5 -0.45
v -0.45 -0.4 0.45
v 0.45 -0.4 0.45
v -0.35 -0.4 0.35
v -0.25 -0.4 0.35
v -0.05 -0.4 0.35
v 0.05 -0.4 0.35
v 0.25 -0.4 0.35
v 0.35 -0.4 0.35
v -0.35 -0.4 -0.35
v -0.25 -0.4 -0.35
v -0.05 -0.4 -0.35
v 0.05 -0.4 -0.35
v 0.25 -0.4 -0.35
v 0.35 -0.4 -0.35
v -0.45 -0.4 -0.45
v 0.45 -0.4 -0.45
v -0.35 -0.3 0.35
v -0.25 -0.3 0.35
v -0.05 -0.3 0.35
v 0.05 -0.3 0.35
v 0.25 -0.3 0.35
v 0.35 -0.3 0.35
v -0.35 -0.3 0.25
v -0.25 -0.3 0.25
v 0.25 -0.3 0.25
v 0.35 -0.3 0.25
v -0.35 -0.3 0.15
v -0.25 -0.3 0.15
v 0.25 -0.3 0.15
v 0.35 -0.3 0.15
v -0.35 -0.3 -0.15
v -0.25 -0.3 -0.15
v 0.25 -0.3 -0.15
v 0.35 -0.3 -0.15
v -0.35 -0.3 -0.25
v -0.25 -0.3 -0.25
v 0.25 -0.3 -0.25
v 0.35 -0.3 -0.25
v -0.35 -0.3 -0.35
v -0.25 -0.3 -0.35
v -0.05 -0.3 -0.35
v 0.05 -0.3 -0.35
v 0.25 -0.3 -0.35
v 0.35 -0.3 -0.35
v -0.35 0 0.25
v -0.25 0 0.25
v 0.25 0 0.25
v 0.35 0 0.25
v -0.35 0 0.15
v -0.25 0 0.15
v 0.25 0 0.15
v 0.35 0 0.15
v -0.35 0 -0.15
v -0.25 0 -0.15
v 0.25 0 -0.15
v 0.35 0 -0.15
v -0.35 0 -0.25
v -0.25 0 -0.25
v 0.25 0 -0.25
v 0.35 0 -0.25

# faces
f 3/2/1 2/2/1 1/2/1
f 4/2/1 2/2/1 3/2/1
f 7/3/1 6/3/1 5/3/1
f 8/3/1 6/3/1 7/3/1
f 9/3/1 6/3/1 8/3/1
f 10/3/1 6/3/1 9/3/1
f 11/3/1 6/3/1 10/3/1
f 12/3/1 6/3/1 11/3/1
f 13/1/1 9/1/1 8/1/1
f 14/1/1 9/1/1 13/1/1
f 15/1/1 11/1/1 10/1/1
f 16/1/1 11/1/1 15/1/1
f 19/3/1 18/3/1 17/3/1
f 20/3/1 18/3/1 19/3/1
f 23/3/1 22/3/1 21/3/1
f 24/3/1 22/3/1 23/3/1
f 25/3/1 22/3/1 24/3/1
f 26/3/1 22/3/1 25/3/1
f 27/3/1 22/3/1 26/3/1
f 28/3/1 22/3/1 27/3/1
f 29/1/1 25/1/1 24/1/1
f 30/1/1 25/1/1 29/1/1
f 31/1/1 27/1/1 26/1/1
f 32/1/1 27/1/1 31/1/1
f 33/3/2 34/3/2 35/3/2
f 35/3/2 34/3/2 36/3/2
f 36/3/2 34/3/2 37/3/2
f 37/3/2 34/3/2 38/3/2
f 38/3/2 34/3/2 39/3/2
f 39/3/2 34/3/2 40/3/2
f 36/1/2 37/1/2 41/1/2
f 41/1/2 37/1/2 42/1/2
f 38/1/2 39/1/2 43/1/2
f 43/1/2 39/1/2 44/1/2
f 45/3/2 46/3/2 47/3/2
f 47/3/2 46/3/2 48/3/2
f 49/3/2 50/3/2 51/3/2
f 51/3/2 50/3/2 52/3/2
f 52/3/2 50/3/2 53/3/2
f 53/3/2 50/3/2 54/3/2
f 54/3/2 50/3/2 55/3/2
f 55/3/2 50/3/2 56/3/2
f 52/1/2 53/1/2 57/1/2
f 57/1/2 53/1/2 58/1/2
f 54/1/2 55/1/2 59/1/2
f 59/1/2 55/1/2 60/1/2
f 61/2/2 62/2/2 63/2/2
f 63/2/2 62/2/2 64/2/2
f 67/2/3 66/2/3 65/2/3
f 68/2/3 66/2/3 67/2/3
f 71/3/3 70/3/3 69/3/3
f 72/3/3 70/3/3 71/3/3
f 75/3/3 74/3/3 73/3/3
f 76/3/3 74/3/3 75/3/3
f 79/3/3 78/3/3 77/3/3
f 80/3/3 78/3/3 79/3/3
f 83/1/3 82/1/3 81/1/3
f 84/1/3 82/1/3 83/1/3
f 87/1/3 86/1/3 85/1/3
f 88/1/3 86/1/3 87/1/3
f 91/1/3 90/1/3 89/1/3
f 92/1/3 90/1/3 91/1/3
f 95/1/3 94/1/3 93/1/3
f 96/1/3 94/1/3 95/1/3
f 97/1/4 98/1/4 99/1/4
f 99/1/4 98/1/4 100/1/4
f 101/1/4 102/1/4 103/1/4
f 103/1/4 102/1/4 104/1/4
f 105/1/4 106/1/4 107/1/4
f 107/1/4 106/1/4 108/1/4
f 109/1/4 110/1/4 111/1/4
f 111/1/4 110/1/4 112/1/4
f 113/3/4 114/3/4 115/3/4
f 115/3/4 114/3/4 116/3/4
f 117/3/4 118/3/4 119/3/4
f 119/3/4 118/3/4 120/3/4
f 121/3/4 122/3/4 123/3/4
f 123/3/4 122/3/4 124/3/4
f 125/2/4 126/2/4 127/2/4
f 127/2/4 126/2/4 128/2/4
f 131/2/5 130/2/5 129/2/5
f 132/2/5 130/2/5 131/2/5
f 133/2/6 134/2/6 135/2/6
f 135/2/6 134/2/6 136/2/6
f 136/2/6 134/2/6 137/2/6
f 137/2/6 134/2/6 138/2/6
f 138/2/6 134/2/6 139/2/6
f 139/2/6 134/2/6 140/2/6
f 133/2/6 135/2/6 141/2/6
f 136/2/6 137/2/6 142/2/6
f 142/2/6 137/2/6 143/2/6
f 138/2/6 139/2/6 144/2/6
f 144/2/6 139/2/6 145/2/6
f 140/2/6 134/2/6 146/2/6
f 144/2/6 145/2/6 147/2/6
f 145/2/6 146/2/6 147/2/6
f 142/2/6 143/2/6 147/2/6
f 133/2/6 141/2/6 147/2/6
f 143/2/6 144/2/6 147/2/6
f 141/2/6 142/2/6 147/2/6
f 146/2/6 134/2/6 148/2/6
f 147/2/6 146/2/6 148/2/6
f 149/3/6 150/3/6 155/3/6
f 155/3/6 150/3/6 156/3/6
f 153/3/6 154/3/6 157/3/6
f 157/3/6 154/3/6 158/3/6
f 159/3/6 160/3/6 163/3/6
f 163/3/6 160/3/6 164/3/6
f 161/3/6 162/3/6 165/3/6
f 165/3/6 162/3/6 166/3/6
f 167/3/6 168/3/6 171/3/6
f 171/3/6 168/3/6 172/3/6
f 151/3/6 152/3/6 173/3/6
f 173/3/6 152/3/6 174/3/6
f 169/3/6 170/3/6 175/3/6
f 175/3/6 170/3/6 176/3/6
f 177/1/6 178/1/6 181/1/6
f 181/1/6 178/1/6 182/1/6
f 179/1/6 180/1/6 183/1/6
f 183/1/6 180/1/6 184/1/6
f 185/1/6 186/1/6 189/1/6
f 189/1/6 186/1/6 190/1/6
f 187/1/6 188/1/6 191/1/6
f 191/1/6 188/1/6 192/1/6
