# MagicaVoxel @ Ephtracy

# group
o 

# material
mtllib Corn.mtl
usemtl palette

# normals
vn -1 0 0
vn 1 0 0
vn 0 0 1
vn 0 0 -1
vn 0 -1 0
vn 0 1 0

# texcoords
vt 0.0761719 0.5
vt 0.166016 0.5
vt 0.169922 0.5

# verts
v -0.15 -0.1 0.05
v -0.15 -0.1 -0.05
v -0.15 0 0.05
v -0.15 0 -0.05
v -0.15 0.1 0.05
v -0.15 0.1 -0.05
v -0.15 0.2 0.05
v -0.15 0.2 -0.05
v -0.05 -0.2 0.05
v -0.05 -0.2 -0.05
v -0.05 -0.1 0.15
v -0.05 -0.1 0.05
v -0.05 -0.1 -0.05
v -0.05 -0.1 -0.15
v -0.05 0 0.15
v -0.05 0 0.05
v -0.05 0 -0.05
v -0.05 0 -0.15
v -0.05 0.1 0.15
v -0.05 0.1 0.05
v -0.05 0.1 -0.05
v -0.05 0.1 -0.15
v -0.05 0.2 0.15
v -0.05 0.2 0.05
v -0.05 0.2 -0.05
v -0.05 0.2 -0.15
v -0.05 0.3 0.05
v -0.05 0.3 -0.05
v 0.05 -0.2 0.05
v 0.05 -0.2 -0.05
v 0.05 -0.1 0.15
v 0.05 -0.1 0.05
v 0.05 -0.1 -0.05
v 0.05 -0.1 -0.15
v 0.05 0 0.15
v 0.05 0 0.05
v 0.05 0 -0.05
v 0.05 0 -0.15
v 0.05 0.1 0.15
v 0.05 0.1 0.05
v 0.05 0.1 -0.05
v 0.05 0.1 -0.15
v 0.05 0.2 0.15
v 0.05 0.2 0.05
v 0.05 0.2 -0.05
v 0.05 0.2 -0.15
v 0.05 0.3 0.05
v 0.05 0.3 -0.05
v 0.15 -0.1 0.05
v 0.15 -0.1 -0.05
v 0.15 0 0.05
v 0.15 0 -0.05
v 0.15 0.1 0.05
v 0.15 0.1 -0.05
v 0.15 0.2 0.05
v 0.15 0.2 -0.05
v -0.05 -0.1 0.15
v -0.05 0 0.15
v -0.05 0.1 0.15
v -0.05 0.2 0.15
v 0.05 -0.1 0.15
v 0.05 0 0.15
v 0.05 0.1 0.15
v 0.05 0.2 0.15
v -0.15 -0.1 0.05
v -0.15 0 0.05
v -0.15 0.1 0.05
v -0.15 0.2 0.05
v -0.05 -0.2 0.05
v -0.05 -0.1 0.05
v -0.05 0 0.05
v -0.05 0.1 0.05
v -0.05 0.2 0.05
v -0.05 0.3 0.05
v 0.05 -0.2 0.05
v 0.05 -0.1 0.05
v 0.05 0 0.05
v 0.05 0.1 0.05
v 0.05 0.2 0.05
v 0.05 0.3 0.05
v 0.15 -0.1 0.05
v 0.15 0 0.05
v 0.15 0.1 0.05
v 0.15 0.2 0.05
v -0.15 -0.1 -0.05
v -0.15 0 -0.05
v -0.15 0.1 -0.05
v -0.15 0.2 -0.05
v -0.05 -0.2 -0.05
v -0.05 -0.1 -0.05
v -0.05 0 -0.05
v -0.05 0.1 -0.05
v -0.05 0.2 -0.05
v -0.05 0.3 -0.05
v 0.05 -0.2 -0.05
v 0.05 -0.1 -0.05
v 0.05 0 -0.05
v 0.05 0.1 -0.05
v 0.05 0.2 -0.05
v 0.05 0.3 -0.05
v 0.15 -0.1 -0.05
v 0.15 0 -0.05
v 0.15 0.1 -0.05
v 0.15 0.2 -0.05
v -0.05 -0.1 -0.15
v -0.05 0 -0.15
v -0.05 0.1 -0.15
v -0.05 0.2 -0.15
v 0.05 -0.1 -0.15
v 0.05 0 -0.15
v 0.05 0.1 -0.15
v 0.05 0.2 -0.15
v -0.05 -0.2 0.05
v 0.05 -0.2 0.05
v -0.05 -0.2 -0.05
v 0.05 -0.2 -0.05
v -0.05 -0.1 0.15
v 0.05 -0.1 0.15
v -0.15 -0.1 0.05
v -0.05 -0.1 0.05
v 0.05 -0.1 0.05
v 0.15 -0.1 0.05
v -0.15 -0.1 -0.05
v -0.05 -0.1 -0.05
v 0.05 -0.1 -0.05
v 0.15 -0.1 -0.05
v -0.05 -0.1 -0.15
v 0.05 -0.1 -0.15
v -0.05 0.2 0.15
v 0.05 0.2 0.15
v -0.15 0.2 0.05
v -0.05 0.2 0.05
v 0.05 0.2 0.05
v 0.15 0.2 0.05
v -0.15 0.2 -0.05
v -0.05 0.2 -0.05
v 0.05 0.2 -0.05
v 0.15 0.2 -0.05
v -0.05 0.2 -0.15
v 0.05 0.2 -0.15
v -0.05 0.3 0.05
v 0.05 0.3 0.05
v -0.05 0.3 -0.05
v 0.05 0.3 -0.05

# faces
f 3/2/1 2/2/1 1/2/1
f 4/2/1 2/2/1 3/2/1
f 5/3/1 4/3/1 3/3/1
f 6/3/1 4/3/1 5/3/1
f 7/2/1 6/2/1 5/2/1
f 8/2/1 6/2/1 7/2/1
f 12/2/1 10/2/1 9/2/1
f 13/2/1 10/2/1 12/2/1
f 15/2/1 12/2/1 11/2/1
f 16/2/1 12/2/1 15/2/1
f 17/3/1 14/3/1 13/3/1
f 18/3/1 14/3/1 17/3/1
f 19/3/1 16/3/1 15/3/1
f 20/3/1 16/3/1 19/3/1
f 21/2/1 18/2/1 17/2/1
f 22/2/1 18/2/1 21/2/1
f 23/2/1 20/2/1 19/2/1
f 24/2/1 20/2/1 23/2/1
f 25/3/1 22/3/1 21/3/1
f 26/3/1 22/3/1 25/3/1
f 27/2/1 25/2/1 24/2/1
f 28/2/1 25/2/1 27/2/1
f 29/2/2 30/2/2 32/2/2
f 32/2/2 30/2/2 33/2/2
f 31/2/2 32/2/2 35/2/2
f 35/2/2 32/2/2 36/2/2
f 33/3/2 34/3/2 37/3/2
f 37/3/2 34/3/2 38/3/2
f 35/3/2 36/3/2 39/3/2
f 39/3/2 36/3/2 40/3/2
f 37/2/2 38/2/2 41/2/2
f 41/2/2 38/2/2 42/2/2
f 39/2/2 40/2/2 43/2/2
f 43/2/2 40/2/2 44/2/2
f 41/3/2 42/3/2 45/3/2
f 45/3/2 42/3/2 46/3/2
f 44/2/2 45/2/2 47/2/2
f 47/2/2 45/2/2 48/2/2
f 49/3/2 50/3/2 51/3/2
f 51/3/2 50/3/2 52/3/2
f 51/2/2 52/2/2 53/2/2
f 53/2/2 52/2/2 54/2/2
f 53/3/2 54/3/2 55/3/2
f 55/3/2 54/3/2 56/3/2
f 61/2/3 58/2/3 57/2/3
f 62/3/3 59/3/3 58/3/3
f 62/2/3 58/2/3 61/2/3
f 63/2/3 60/2/3 59/2/3
f 63/3/3 59/3/3 62/3/3
f 64/2/3 60/2/3 63/2/3
f 70/2/3 66/2/3 65/2/3
f 71/3/3 67/3/3 66/3/3
f 71/2/3 66/2/3 70/2/3
f 72/2/3 68/2/3 67/2/3
f 72/3/3 67/3/3 71/3/3
f 73/2/3 68/2/3 72/2/3
f 75/2/3 70/2/3 69/2/3
f 76/2/3 70/2/3 75/2/3
f 79/2/3 74/2/3 73/2/3
f 80/2/3 74/2/3 79/2/3
f 81/3/3 77/3/3 76/3/3
f 82/2/3 78/2/3 77/2/3
f 82/3/3 77/3/3 81/3/3
f 83/3/3 79/3/3 78/3/3
f 83/2/3 78/2/3 82/2/3
f 84/3/3 79/3/3 83/3/3
f 85/2/4 86/2/4 90/2/4
f 86/3/4 87/3/4 91/3/4
f 90/2/4 86/2/4 91/2/4
f 87/2/4 88/2/4 92/2/4
f 91/3/4 87/3/4 92/3/4
f 92/2/4 88/2/4 93/2/4
f 89/2/4 90/2/4 95/2/4
f 95/2/4 90/2/4 96/2/4
f 93/2/4 94/2/4 99/2/4
f 99/2/4 94/2/4 100/2/4
f 96/3/4 97/3/4 101/3/4
f 97/2/4 98/2/4 102/2/4
f 101/3/4 97/3/4 102/3/4
f 98/3/4 99/3/4 103/3/4
f 102/2/4 98/2/4 103/2/4
f 103/3/4 99/3/4 104/3/4
f 105/3/4 106/3/4 109/3/4
f 106/2/4 107/2/4 110/2/4
f 109/3/4 106/3/4 110/3/4
f 107/3/4 108/3/4 111/3/4
f 110/2/4 107/2/4 111/2/4
f 111/3/4 108/3/4 112/3/4
f 115/2/5 114/2/5 113/2/5
f 116/2/5 114/2/5 115/2/5
f 120/2/5 118/2/5 117/2/5
f 121/2/5 118/2/5 120/2/5
f 123/2/5 120/2/5 119/2/5
f 124/2/5 120/2/5 123/2/5
f 125/3/5 122/3/5 121/3/5
f 126/3/5 122/3/5 125/3/5
f 127/3/5 125/3/5 124/3/5
f 128/3/5 125/3/5 127/3/5
f 129/2/6 130/2/6 132/2/6
f 132/2/6 130/2/6 133/2/6
f 131/2/6 132/2/6 135/2/6
f 135/2/6 132/2/6 136/2/6
f 133/3/6 134/3/6 137/3/6
f 137/3/6 134/3/6 138/3/6
f 136/3/6 137/3/6 139/3/6
f 139/3/6 137/3/6 140/3/6
f 141/2/6 142/2/6 143/2/6
f 143/2/6 142/2/6 144/2/6
