# MagicaVoxel @ Ephtracy

# group
o 

# material
mtllib Corn 3.mtl
usemtl palette

# normals
vn -1 0 0
vn 1 0 0
vn 0 0 1
vn 0 0 -1
vn 0 -1 0
vn 0 1 0

# texcoords
vt 0.0761719 0.5
vt 0.166016 0.5
vt 0.169922 0.5
vt 0.220703 0.5
vt 0.224609 0.5

# verts
v -0.45 -0.5 0.45
v -0.45 -0.5 -0.45
v -0.45 -0.4 0.45
v -0.45 -0.4 -0.45
v -0.45 -0.1 0.25
v -0.45 -0.1 0.15
v -0.45 -0.1 -0.15
v -0.45 -0.1 -0.25
v -0.45 0 0.25
v -0.45 0 0.15
v -0.45 0 -0.15
v -0.45 0 -0.25
v -0.45 0.1 0.25
v -0.45 0.1 0.15
v -0.45 0.1 -0.15
v -0.45 0.1 -0.25
v -0.45 0.2 0.25
v -0.45 0.2 0.15
v -0.45 0.2 -0.15
v -0.45 0.2 -0.25
v -0.35 -0.4 0.35
v -0.35 -0.4 -0.35
v -0.35 -0.3 0.35
v -0.35 -0.3 0.25
v -0.35 -0.3 0.15
v -0.35 -0.3 -0.15
v -0.35 -0.3 -0.25
v -0.35 -0.3 -0.35
v -0.35 -0.1 0.35
v -0.35 -0.1 0.25
v -0.35 -0.1 0.15
v -0.35 -0.1 0.05
v -0.35 -0.1 -0.05
v -0.35 -0.1 -0.15
v -0.35 -0.1 -0.25
v -0.35 -0.1 -0.35
v -0.35 0 0.35
v -0.35 0 0.25
v -0.35 0 0.15
v -0.35 0 0.05
v -0.35 0 -0.05
v -0.35 0 -0.15
v -0.35 0 -0.25
v -0.35 0 -0.35
v -0.35 0.1 0.35
v -0.35 0.1 0.25
v -0.35 0.1 0.15
v -0.35 0.1 0.05
v -0.35 0.1 -0.05
v -0.35 0.1 -0.15
v -0.35 0.1 -0.25
v -0.35 0.1 -0.35
v -0.35 0.2 0.35
v -0.35 0.2 0.25
v -0.35 0.2 0.15
v -0.35 0.2 0.05
v -0.35 0.2 -0.05
v -0.35 0.2 -0.15
v -0.35 0.2 -0.25
v -0.35 0.2 -0.35
v -0.35 0.3 0.25
v -0.35 0.3 0.15
v -0.35 0.3 -0.15
v -0.35 0.3 -0.25
v -0.05 -0.4 0.35
v -0.05 -0.4 -0.35
v -0.05 -0.3 0.35
v -0.05 -0.3 -0.35
v 0.15 -0.1 0.25
v 0.15 -0.1 0.15
v 0.15 -0.1 -0.15
v 0.15 -0.1 -0.25
v 0.15 0 0.25
v 0.15 0 0.15
v 0.15 0 -0.15
v 0.15 0 -0.25
v 0.15 0.1 0.25
v 0.15 0.1 0.15
v 0.15 0.1 -0.15
v 0.15 0.1 -0.25
v 0.15 0.2 0.25
v 0.15 0.2 0.15
v 0.15 0.2 -0.15
v 0.15 0.2 -0.25
v 0.25 -0.4 0.35
v 0.25 -0.4 -0.35
v 0.25 -0.3 0.35
v 0.25 -0.3 0.25
v 0.25 -0.3 0.15
v 0.25 -0.3 -0.15
v 0.25 -0.3 -0.25
v 0.25 -0.3 -0.35
v 0.25 -0.1 0.35
v 0.25 -0.1 0.25
v 0.25 -0.1 0.15
v 0.25 -0.1 0.05
v 0.25 -0.1 -0.05
v 0.25 -0.1 -0.15
v 0.25 -0.1 -0.25
v 0.25 -0.1 -0.35
v 0.25 0 0.35
v 0.25 0 0.25
v 0.25 0 0.15
v 0.25 0 0.05
v 0.25 0 -0.05
v 0.25 0 -0.15
v 0.25 0 -0.25
v 0.25 0 -0.35
v 0.25 0.1 0.35
v 0.25 0.1 0.25
v 0.25 0.1 0.15
v 0.25 0.1 0.05
v 0.25 0.1 -0.05
v 0.25 0.1 -0.15
v 0.25 0.1 -0.25
v 0.25 0.1 -0.35
v 0.25 0.2 0.35
v 0.25 0.2 0.25
v 0.25 0.2 0.15
v 0.25 0.2 0.05
v 0.25 0.2 -0.05
v 0.25 0.2 -0.15
v 0.25 0.2 -0.25
v 0.25 0.2 -0.35
v 0.25 0.3 0.25
v 0.25 0.3 0.15
v 0.25 0.3 -0.15
v 0.25 0.3 -0.25
v -0.25 -0.4 0.35
v -0.25 -0.4 -0.35
v -0.25 -0.3 0.35
v -0.25 -0.3 0.25
v -0.25 -0.3 0.15
v -0.25 -0.3 -0.15
v -0.25 -0.3 -0.25
v -0.25 -0.3 -0.35
v -0.25 -0.1 0.35
v -0.25 -0.1 0.25
v -0.25 -0.1 0.15
v -0.25 -0.1 0.05
v -0.25 -0.1 -0.05
v -0.25 -0.1 -0.15
v -0.25 -0.1 -0.25
v -0.25 -0.1 -0.35
v -0.25 0 0.35
v -0.25 0 0.25
v -0.25 0 0.15
v -0.25 0 0.05
v -0.25 0 -0.05
v -0.25 0 -0.15
v -0.25 0 -0.25
v -0.25 0 -0.35
v -0.25 0.1 0.35
v -0.25 0.1 0.25
v -0.25 0.1 0.15
v -0.25 0.1 0.05
v -0.25 0.1 -0.05
v -0.25 0.1 -0.15
v -0.25 0.1 -0.25
v -0.25 0.1 -0.35
v -0.25 0.2 0.35
v -0.25 0.2 0.25
v -0.25 0.2 0.15
v -0.25 0.2 0.05
v -0.25 0.2 -0.05
v -0.25 0.2 -0.15
v -0.25 0.2 -0.25
v -0.25 0.2 -0.35
v -0.25 0.3 0.25
v -0.25 0.3 0.15
v -0.25 0.3 -0.15
v -0.25 0.3 -0.25
v -0.15 -0.1 0.25
v -0.15 -0.1 0.15
v -0.15 -0.1 -0.15
v -0.15 -0.1 -0.25
v -0.15 0 0.25
v -0.15 0 0.15
v -0.15 0 -0.15
v -0.15 0 -0.25
v -0.15 0.1 0.25
v -0.15 0.1 0.15
v -0.15 0.1 -0.15
v -0.15 0.1 -0.25
v -0.15 0.2 0.25
v -0.15 0.2 0.15
v -0.15 0.2 -0.15
v -0.15 0.2 -0.25
v 0.05 -0.4 0.35
v 0.05 -0.4 -0.35
v 0.05 -0.3 0.35
v 0.05 -0.3 -0.35
v 0.35 -0.4 0.35
v 0.35 -0.4 -0.35
v 0.35 -0.3 0.35
v 0.35 -0.3 0.25
v 0.35 -0.3 0.15
v 0.35 -0.3 -0.15
v 0.35 -0.3 -0.25
v 0.35 -0.3 -0.35
v 0.35 -0.1 0.35
v 0.35 -0.1 0.25
v 0.35 -0.1 0.15
v 0.35 -0.1 0.05
v 0.35 -0.1 -0.05
v 0.35 -0.1 -0.15
v 0.35 -0.1 -0.25
v 0.35 -0.1 -0.35
v 0.35 0 0.35
v 0.35 0 0.25
v 0.35 0 0.15
v 0.35 0 0.05
v 0.35 0 -0.05
v 0.35 0 -0.15
v 0.35 0 -0.25
v 0.35 0 -0.35
v 0.35 0.1 0.35
v 0.35 0.1 0.25
v 0.35 0.1 0.15
v 0.35 0.1 0.05
v 0.35 0.1 -0.05
v 0.35 0.1 -0.15
v 0.35 0.1 -0.25
v 0.35 0.1 -0.35
v 0.35 0.2 0.35
v 0.35 0.2 0.25
v 0.35 0.2 0.15
v 0.35 0.2 0.05
v 0.35 0.2 -0.05
v 0.35 0.2 -0.15
v 0.35 0.2 -0.25
v 0.35 0.2 -0.35
v 0.35 0.3 0.25
v 0.35 0.3 0.15
v 0.35 0.3 -0.15
v 0.35 0.3 -0.25
v 0.45 -0.5 0.45
v 0.45 -0.5 -0.45
v 0.45 -0.4 0.45
v 0.45 -0.4 -0.45
v 0.45 -0.1 0.25
v 0.45 -0.1 0.15
v 0.45 -0.1 -0.15
v 0.45 -0.1 -0.25
v 0.45 0 0.25
v 0.45 0 0.15
v 0.45 0 -0.15
v 0.45 0 -0.25
v 0.45 0.1 0.25
v 0.45 0.1 0.15
v 0.45 0.1 -0.15
v 0.45 0.1 -0.25
v 0.45 0.2 0.25
v 0.45 0.2 0.15
v 0.45 0.2 -0.15
v 0.45 0.2 -0.25
v -0.45 -0.5 0.45
v -0.45 -0.4 0.45
v 0.45 -0.5 0.45
v 0.45 -0.4 0.45
v -0.35 -0.4 0.35
v -0.35 -0.3 0.35
v -0.35 -0.1 0.35
v -0.35 0 0.35
v -0.35 0.1 0.35
v -0.35 0.2 0.35
v -0.25 -0.4 0.35
v -0.25 -0.3 0.35
v -0.25 -0.1 0.35
v -0.25 0 0.35
v -0.25 0.1 0.35
v -0.25 0.2 0.35
v -0.05 -0.4 0.35
v -0.05 -0.3 0.35
v 0.05 -0.4 0.35
v 0.05 -0.3 0.35
v 0.25 -0.4 0.35
v 0.25 -0.3 0.35
v 0.25 -0.1 0.35
v 0.25 0 0.35
v 0.25 0.1 0.35
v 0.25 0.2 0.35
v 0.35 -0.4 0.35
v 0.35 -0.3 0.35
v 0.35 -0.1 0.35
v 0.35 0 0.35
v 0.35 0.1 0.35
v 0.35 0.2 0.35
v -0.45 -0.1 0.25
v -0.45 0 0.25
v -0.45 0.1 0.25
v -0.45 0.2 0.25
v -0.35 -0.3 0.25
v -0.35 -0.1 0.25
v -0.35 0 0.25
v -0.35 0.1 0.25
v -0.35 0.2 0.25
v -0.35 0.3 0.25
v -0.25 -0.3 0.25
v -0.25 -0.1 0.25
v -0.25 0 0.25
v -0.25 0.1 0.25
v -0.25 0.2 0.25
v -0.25 0.3 0.25
v -0.15 -0.1 0.25
v -0.15 0 0.25
v -0.15 0.1 0.25
v -0.15 0.2 0.25
v 0.15 -0.1 0.25
v 0.15 0 0.25
v 0.15 0.1 0.25
v 0.15 0.2 0.25
v 0.25 -0.3 0.25
v 0.25 -0.1 0.25
v 0.25 0 0.25
v 0.25 0.1 0.25
v 0.25 0.2 0.25
v 0.25 0.3 0.25
v 0.35 -0.3 0.25
v 0.35 -0.1 0.25
v 0.35 0 0.25
v 0.35 0.1 0.25
v 0.35 0.2 0.25
v 0.35 0.3 0.25
v 0.45 -0.1 0.25
v 0.45 0 0.25
v 0.45 0.1 0.25
v 0.45 0.2 0.25
v -0.35 -0.1 -0.05
v -0.35 0 -0.05
v -0.35 0.1 -0.05
v -0.35 0.2 -0.05
v -0.25 -0.1 -0.05
v -0.25 0 -0.05
v -0.25 0.1 -0.05
v -0.25 0.2 -0.05
v 0.25 -0.1 -0.05
v 0.25 0 -0.05
v 0.25 0.1 -0.05
v 0.25 0.2 -0.05
v 0.35 -0.1 -0.05
v 0.35 0 -0.05
v 0.35 0.1 -0.05
v 0.35 0.2 -0.05
v -0.45 -0.1 -0.15
v -0.45 0 -0.15
v -0.45 0.1 -0.15
v -0.45 0.2 -0.15
v -0.35 -0.3 -0.15
v -0.35 -0.1 -0.15
v -0.35 0 -0.15
v -0.35 0.1 -0.15
v -0.35 0.2 -0.15
v -0.35 0.3 -0.15
v -0.25 -0.3 -0.15
v -0.25 -0.1 -0.15
v -0.25 0 -0.15
v -0.25 0.1 -0.15
v -0.25 0.2 -0.15
v -0.25 0.3 -0.15
v -0.15 -0.1 -0.15
v -0.15 0 -0.15
v -0.15 0.1 -0.15
v -0.15 0.2 -0.15
v 0.15 -0.1 -0.15
v 0.15 0 -0.15
v 0.15 0.1 -0.15
v 0.15 0.2 -0.15
v 0.25 -0.3 -0.15
v 0.25 -0.1 -0.15
v 0.25 0 -0.15
v 0.25 0.1 -0.15
v 0.25 0.2 -0.15
v 0.25 0.3 -0.15
v 0.35 -0.3 -0.15
v 0.35 -0.1 -0.15
v 0.35 0 -0.15
v 0.35 0.1 -0.15
v 0.35 0.2 -0.15
v 0.35 0.3 -0.15
v 0.45 -0.1 -0.15
v 0.45 0 -0.15
v 0.45 0.1 -0.15
v 0.45 0.2 -0.15
v -0.45 -0.1 0.15
v -0.45 0 0.15
v -0.45 0.1 0.15
v -0.45 0.2 0.15
v -0.35 -0.3 0.15
v -0.35 -0.1 0.15
v -0.35 0 0.15
v -0.35 0.1 0.15
v -0.35 0.2 0.15
v -0.35 0.3 0.15
v -0.25 -0.3 0.15
v -0.25 -0.1 0.15
v -0.25 0 0.15
v -0.25 0.1 0.15
v -0.25 0.2 0.15
v -0.25 0.3 0.15
v -0.15 -0.1 0.15
v -0.15 0 0.15
v -0.15 0.1 0.15
v -0.15 0.2 0.15
v 0.15 -0.1 0.15
v 0.15 0 0.15
v 0.15 0.1 0.15
v 0.15 0.2 0.15
v 0.25 -0.3 0.15
v 0.25 -0.1 0.15
v 0.25 0 0.15
v 0.25 0.1 0.15
v 0.25 0.2 0.15
v 0.25 0.3 0.15
v 0.35 -0.3 0.15
v 0.35 -0.1 0.15
v 0.35 0 0.15
v 0.35 0.1 0.15
v 0.35 0.2 0.15
v 0.35 0.3 0.15
v 0.45 -0.1 0.15
v 0.45 0 0.15
v 0.45 0.1 0.15
v 0.45 0.2 0.15
v -0.35 -0.1 0.05
v -0.35 0 0.05
v -0.35 0.1 0.05
v -0.35 0.2 0.05
v -0.25 -0.1 0.05
v -0.25 0 0.05
v -0.25 0.1 0.05
v -0.25 0.2 0.05
v 0.25 -0.1 0.05
v 0.25 0 0.05
v 0.25 0.1 0.05
v 0.25 0.2 0.05
v 0.35 -0.1 0.05
v 0.35 0 0.05
v 0.35 0.1 0.05
v 0.35 0.2 0.05
v -0.45 -0.1 -0.25
v -0.45 0 -0.25
v -0.45 0.1 -0.25
v -0.45 0.2 -0.25
v -0.35 -0.3 -0.25
v -0.35 -0.1 -0.25
v -0.35 0 -0.25
v -0.35 0.1 -0.25
v -0.35 0.2 -0.25
v -0.35 0.3 -0.25
v -0.25 -0.3 -0.25
v -0.25 -0.1 -0.25
v -0.25 0 -0.25
v -0.25 0.1 -0.25
v -0.25 0.2 -0.25
v -0.25 0.3 -0.25
v -0.15 -0.1 -0.25
v -0.15 0 -0.25
v -0.15 0.1 -0.25
v -0.15 0.2 -0.25
v 0.15 -0.1 -0.25
v 0.15 0 -0.25
v 0.15 0.1 -0.25
v 0.15 0.2 -0.25
v 0.25 -0.3 -0.25
v 0.25 -0.1 -0.25
v 0.25 0 -0.25
v 0.25 0.1 -0.25
v 0.25 0.2 -0.25
v 0.25 0.3 -0.25
v 0.35 -0.3 -0.25
v 0.35 -0.1 -0.25
v 0.35 0 -0.25
v 0.35 0.1 -0.25
v 0.35 0.2 -0.25
v 0.35 0.3 -0.25
v 0.45 -0.1 -0.25
v 0.45 0 -0.25
v 0.45 0.1 -0.25
v 0.45 0.2 -0.25
v -0.35 -0.4 -0.35
v -0.35 -0.3 -0.35
v -0.35 -0.1 -0.35
v -0.35 0 -0.35
v -0.35 0.1 -0.35
v -0.35 0.2 -0.35
v -0.25 -0.4 -0.35
v -0.25 -0.3 -0.35
v -0.25 -0.1 -0.35
v -0.25 0 -0.35
v -0.25 0.1 -0.35
v -0.25 0.2 -0.35
v -0.05 -0.4 -0.35
v -0.05 -0.3 -0.35
v 0.05 -0.4 -0.35
v 0.05 -0.3 -0.35
v 0.25 -0.4 -0.35
v 0.25 -0.3 -0.35
v 0.25 -0.1 -0.35
v 0.25 0 -0.35
v 0.25 0.1 -0.35
v 0.25 0.2 -0.35
v 0.35 -0.4 -0.35
v 0.35 -0.3 -0.35
v 0.35 -0.1 -0.35
v 0.35 0 -0.35
v 0.35 0.1 -0.35
v 0.35 0.2 -0.35
v -0.45 -0.5 -0.45
v -0.45 -0.4 -0.45
v 0.45 -0.5 -0.45
v 0.45 -0.4 -0.45
v -0.45 -0.5 0.45
v 0.45 -0.5 0.45
v -0.45 -0.5 -0.45
v 0.45 -0.5 -0.45
v -0.35 -0.1 0.35
v -0.25 -0.1 0.35
v 0.25 -0.1 0.35
v 0.35 -0.1 0.35
v -0.45 -0.1 0.25
v -0.35 -0.1 0.25
v -0.25 -0.1 0.25
v -0.15 -0.1 0.25
v 0.15 -0.1 0.25
v 0.25 -0.1 0.25
v 0.35 -0.1 0.25
v 0.45 -0.1 0.25
v -0.45 -0.1 0.15
v -0.35 -0.1 0.15
v -0.25 -0.1 0.15
v -0.15 -0.1 0.15
v 0.15 -0.1 0.15
v 0.25 -0.1 0.15
v 0.35 -0.1 0.15
v 0.45 -0.1 0.15
v -0.35 -0.1 0.05
v -0.25 -0.1 0.05
v 0.25 -0.1 0.05
v 0.35 -0.1 0.05
v -0.35 -0.1 -0.05
v -0.25 -0.1 -0.05
v 0.25 -0.1 -0.05
v 0.35 -0.1 -0.05
v -0.45 -0.1 -0.15
v -0.35 -0.1 -0.15
v -0.25 -0.1 -0.15
v -0.15 -0.1 -0.15
v 0.15 -0.1 -0.15
v 0.25 -0.1 -0.15
v 0.35 -0.1 -0.15
v 0.45 -0.1 -0.15
v -0.45 -0.1 -0.25
v -0.35 -0.1 -0.25
v -0.25 -0.1 -0.25
v -0.15 -0.1 -0.25
v 0.15 -0.1 -0.25
v 0.25 -0.1 -0.25
v 0.35 -0.1 -0.25
v 0.45 -0.1 -0.25
v -0.35 -0.1 -0.35
v -0.25 -0.1 -0.35
v 0.25 -0.1 -0.35
v 0.35 -0.1 -0.35
v -0.45 -0.4 0.45
v 0.45 -0.4 0.45
v -0.35 -0.4 0.35
v -0.25 -0.4 0.35
v -0.05 -0.4 0.35
v 0.05 -0.4 0.35
v 0.25 -0.4 0.35
v 0.35 -0.4 0.35
v -0.35 -0.4 -0.35
v -0.25 -0.4 -0.35
v -0.05 -0.4 -0.35
v 0.05 -0.4 -0.35
v 0.25 -0.4 -0.35
v 0.35 -0.4 -0.35
v -0.45 -0.4 -0.45
v 0.45 -0.4 -0.45
v -0.35 -0.3 0.35
v -0.25 -0.3 0.35
v -0.05 -0.3 0.35
v 0.05 -0.3 0.35
v 0.25 -0.3 0.35
v 0.35 -0.3 0.35
v -0.35 -0.3 0.25
v -0.25 -0.3 0.25
v 0.25 -0.3 0.25
v 0.35 -0.3 0.25
v -0.35 -0.3 0.15
v -0.25 -0.3 0.15
v 0.25 -0.3 0.15
v 0.35 -0.3 0.15
v -0.35 -0.3 -0.15
v -0.25 -0.3 -0.15
v 0.25 -0.3 -0.15
v 0.35 -0.3 -0.15
v -0.35 -0.3 -0.25
v -0.25 -0.3 -0.25
v 0.25 -0.3 -0.25
v 0.35 -0.3 -0.25
v -0.35 -0.3 -0.35
v -0.25 -0.3 -0.35
v -0.05 -0.3 -0.35
v 0.05 -0.3 -0.35
v 0.25 -0.3 -0.35
v 0.35 -0.3 -0.35
v -0.35 0.2 0.35
v -0.25 0.2 0.35
v 0.25 0.2 0.35
v 0.35 0.2 0.35
v -0.45 0.2 0.25
v -0.35 0.2 0.25
v -0.25 0.2 0.25
v -0.15 0.2 0.25
v 0.15 0.2 0.25
v 0.25 0.2 0.25
v 0.35 0.2 0.25
v 0.45 0.2 0.25
v -0.45 0.2 0.15
v -0.35 0.2 0.15
v -0.25 0.2 0.15
v -0.15 0.2 0.15
v 0.15 0.2 0.15
v 0.25 0.2 0.15
v 0.35 0.2 0.15
v 0.45 0.2 0.15
v -0.35 0.2 0.05
v -0.25 0.2 0.05
v 0.25 0.2 0.05
v 0.35 0.2 0.05
v -0.35 0.2 -0.05
v -0.25 0.2 -0.05
v 0.25 0.2 -0.05
v 0.35 0.2 -0.05
v -0.45 0.2 -0.15
v -0.35 0.2 -0.15
v -0.25 0.2 -0.15
v -0.15 0.2 -0.15
v 0.15 0.2 -0.15
v 0.25 0.2 -0.15
v 0.35 0.2 -0.15
v 0.45 0.2 -0.15
v -0.45 0.2 -0.25
v -0.35 0.2 -0.25
v -0.25 0.2 -0.25
v -0.15 0.2 -0.25
v 0.15 0.2 -0.25
v 0.25 0.2 -0.25
v 0.35 0.2 -0.25
v 0.45 0.2 -0.25
v -0.35 0.2 -0.35
v -0.25 0.2 -0.35
v 0.25 0.2 -0.35
v 0.35 0.2 -0.35
v -0.35 0.3 0.25
v -0.25 0.3 0.25
v 0.25 0.3 0.25
v 0.35 0.3 0.25
v -0.35 0.3 0.15
v -0.25 0.3 0.15
v 0.25 0.3 0.15
v 0.35 0.3 0.15
v -0.35 0.3 -0.15
v -0.25 0.3 -0.15
v 0.25 0.3 -0.15
v 0.35 0.3 -0.15
v -0.35 0.3 -0.25
v -0.25 0.3 -0.25
v 0.25 0.3 -0.25
v 0.35 0.3 -0.25

# faces
f 3/4/1 2/4/1 1/4/1
f 4/4/1 2/4/1 3/4/1
f 9/3/1 6/3/1 5/3/1
f 10/3/1 6/3/1 9/3/1
f 11/3/1 8/3/1 7/3/1
f 12/3/1 8/3/1 11/3/1
f 13/2/1 10/2/1 9/2/1
f 14/2/1 10/2/1 13/2/1
f 15/2/1 12/2/1 11/2/1
f 16/2/1 12/2/1 15/2/1
f 17/3/1 14/3/1 13/3/1
f 18/3/1 14/3/1 17/3/1
f 19/3/1 16/3/1 15/3/1
f 20/3/1 16/3/1 19/3/1
f 23/5/1 22/5/1 21/5/1
f 24/5/1 22/5/1 23/5/1
f 25/5/1 22/5/1 24/5/1
f 26/5/1 22/5/1 25/5/1
f 27/5/1 22/5/1 26/5/1
f 28/5/1 22/5/1 27/5/1
f 30/1/1 25/1/1 24/1/1
f 31/1/1 25/1/1 30/1/1
f 34/1/1 27/1/1 26/1/1
f 35/1/1 27/1/1 34/1/1
f 37/3/1 30/3/1 29/3/1
f 38/3/1 30/3/1 37/3/1
f 39/2/1 32/2/1 31/2/1
f 40/2/1 32/2/1 39/2/1
f 41/2/1 34/2/1 33/2/1
f 42/2/1 34/2/1 41/2/1
f 43/3/1 36/3/1 35/3/1
f 44/3/1 36/3/1 43/3/1
f 45/2/1 38/2/1 37/2/1
f 46/2/1 38/2/1 45/2/1
f 47/3/1 40/3/1 39/3/1
f 48/3/1 40/3/1 47/3/1
f 49/3/1 42/3/1 41/3/1
f 50/3/1 42/3/1 49/3/1
f 51/2/1 44/2/1 43/2/1
f 52/2/1 44/2/1 51/2/1
f 53/3/1 46/3/1 45/3/1
f 54/3/1 46/3/1 53/3/1
f 55/2/1 48/2/1 47/2/1
f 56/2/1 48/2/1 55/2/1
f 57/2/1 50/2/1 49/2/1
f 58/2/1 50/2/1 57/2/1
f 59/3/1 52/3/1 51/3/1
f 60/3/1 52/3/1 59/3/1
f 61/2/1 55/2/1 54/2/1
f 62/2/1 55/2/1 61/2/1
f 63/2/1 59/2/1 58/2/1
f 64/2/1 59/2/1 63/2/1
f 67/5/1 66/5/1 65/5/1
f 68/5/1 66/5/1 67/5/1
f 73/2/1 70/2/1 69/2/1
f 74/2/1 70/2/1 73/2/1
f 75/2/1 72/2/1 71/2/1
f 76/2/1 72/2/1 75/2/1
f 77/3/1 74/3/1 73/3/1
f 78/3/1 74/3/1 77/3/1
f 79/3/1 76/3/1 75/3/1
f 80/3/1 76/3/1 79/3/1
f 81/2/1 78/2/1 77/2/1
f 82/2/1 78/2/1 81/2/1
f 83/2/1 80/2/1 79/2/1
f 84/2/1 80/2/1 83/2/1
f 87/5/1 86/5/1 85/5/1
f 88/5/1 86/5/1 87/5/1
f 89/5/1 86/5/1 88/5/1
f 90/5/1 86/5/1 89/5/1
f 91/5/1 86/5/1 90/5/1
f 92/5/1 86/5/1 91/5/1
f 94/1/1 89/1/1 88/1/1
f 95/1/1 89/1/1 94/1/1
f 98/1/1 91/1/1 90/1/1
f 99/1/1 91/1/1 98/1/1
f 101/3/1 94/3/1 93/3/1
f 102/3/1 94/3/1 101/3/1
f 103/2/1 96/2/1 95/2/1
f 104/2/1 96/2/1 103/2/1
f 105/2/1 98/2/1 97/2/1
f 106/2/1 98/2/1 105/2/1
f 107/3/1 100/3/1 99/3/1
f 108/3/1 100/3/1 107/3/1
f 109/2/1 102/2/1 101/2/1
f 110/2/1 102/2/1 109/2/1
f 111/3/1 104/3/1 103/3/1
f 112/3/1 104/3/1 111/3/1
f 113/3/1 106/3/1 105/3/1
f 114/3/1 106/3/1 113/3/1
f 115/2/1 108/2/1 107/2/1
f 116/2/1 108/2/1 115/2/1
f 117/3/1 110/3/1 109/3/1
f 118/3/1 110/3/1 117/3/1
f 119/2/1 112/2/1 111/2/1
f 120/2/1 112/2/1 119/2/1
f 121/2/1 114/2/1 113/2/1
f 122/2/1 114/2/1 121/2/1
f 123/3/1 116/3/1 115/3/1
f 124/3/1 116/3/1 123/3/1
f 125/2/1 119/2/1 118/2/1
f 126/2/1 119/2/1 125/2/1
f 127/2/1 123/2/1 122/2/1
f 128/2/1 123/2/1 127/2/1
f 129/5/2 130/5/2 131/5/2
f 131/5/2 130/5/2 132/5/2
f 132/5/2 130/5/2 133/5/2
f 133/5/2 130/5/2 134/5/2
f 134/5/2 130/5/2 135/5/2
f 135/5/2 130/5/2 136/5/2
f 132/1/2 133/1/2 138/1/2
f 138/1/2 133/1/2 139/1/2
f 134/1/2 135/1/2 142/1/2
f 142/1/2 135/1/2 143/1/2
f 137/3/2 138/3/2 145/3/2
f 145/3/2 138/3/2 146/3/2
f 139/2/2 140/2/2 147/2/2
f 147/2/2 140/2/2 148/2/2
f 141/2/2 142/2/2 149/2/2
f 149/2/2 142/2/2 150/2/2
f 143/3/2 144/3/2 151/3/2
f 151/3/2 144/3/2 152/3/2
f 145/2/2 146/2/2 153/2/2
f 153/2/2 146/2/2 154/2/2
f 147/3/2 148/3/2 155/3/2
f 155/3/2 148/3/2 156/3/2
f 149/3/2 150/3/2 157/3/2
f 157/3/2 150/3/2 158/3/2
f 151/2/2 152/2/2 159/2/2
f 159/2/2 152/2/2 160/2/2
f 153/3/2 154/3/2 161/3/2
f 161/3/2 154/3/2 162/3/2
f 155/2/2 156/2/2 163/2/2
f 163/2/2 156/2/2 164/2/2
f 157/2/2 158/2/2 165/2/2
f 165/2/2 158/2/2 166/2/2
f 159/3/2 160/3/2 167/3/2
f 167/3/2 160/3/2 168/3/2
f 162/2/2 163/2/2 169/2/2
f 169/2/2 163/2/2 170/2/2
f 166/2/2 167/2/2 171/2/2
f 171/2/2 167/2/2 172/2/2
f 173/2/2 174/2/2 177/2/2
f 177/2/2 174/2/2 178/2/2
f 175/2/2 176/2/2 179/2/2
f 179/2/2 176/2/2 180/2/2
f 177/3/2 178/3/2 181/3/2
f 181/3/2 178/3/2 182/3/2
f 179/3/2 180/3/2 183/3/2
f 183/3/2 180/3/2 184/3/2
f 181/2/2 182/2/2 185/2/2
f 185/2/2 182/2/2 186/2/2
f 183/2/2 184/2/2 187/2/2
f 187/2/2 184/2/2 188/2/2
f 189/5/2 190/5/2 191/5/2
f 191/5/2 190/5/2 192/5/2
f 193/5/2 194/5/2 195/5/2
f 195/5/2 194/5/2 196/5/2
f 196/5/2 194/5/2 197/5/2
f 197/5/2 194/5/2 198/5/2
f 198/5/2 194/5/2 199/5/2
f 199/5/2 194/5/2 200/5/2
f 196/1/2 197/1/2 202/1/2
f 202/1/2 197/1/2 203/1/2
f 198/1/2 199/1/2 206/1/2
f 206/1/2 199/1/2 207/1/2
f 201/3/2 202/3/2 209/3/2
f 209/3/2 202/3/2 210/3/2
f 203/2/2 204/2/2 211/2/2
f 211/2/2 204/2/2 212/2/2
f 205/2/2 206/2/2 213/2/2
f 213/2/2 206/2/2 214/2/2
f 207/3/2 208/3/2 215/3/2
f 215/3/2 208/3/2 216/3/2
f 209/2/2 210/2/2 217/2/2
f 217/2/2 210/2/2 218/2/2
f 211/3/2 212/3/2 219/3/2
f 219/3/2 212/3/2 220/3/2
f 213/3/2 214/3/2 221/3/2
f 221/3/2 214/3/2 222/3/2
f 215/2/2 216/2/2 223/2/2
f 223/2/2 216/2/2 224/2/2
f 217/3/2 218/3/2 225/3/2
f 225/3/2 218/3/2 226/3/2
f 219/2/2 220/2/2 227/2/2
f 227/2/2 220/2/2 228/2/2
f 221/2/2 222/2/2 229/2/2
f 229/2/2 222/2/2 230/2/2
f 223/3/2 224/3/2 231/3/2
f 231/3/2 224/3/2 232/3/2
f 226/2/2 227/2/2 233/2/2
f 233/2/2 227/2/2 234/2/2
f 230/2/2 231/2/2 235/2/2
f 235/2/2 231/2/2 236/2/2
f 237/4/2 238/4/2 239/4/2
f 239/4/2 238/4/2 240/4/2
f 241/3/2 242/3/2 245/3/2
f 245/3/2 242/3/2 246/3/2
f 243/3/2 244/3/2 247/3/2
f 247/3/2 244/3/2 248/3/2
f 245/2/2 246/2/2 249/2/2
f 249/2/2 246/2/2 250/2/2
f 247/2/2 248/2/2 251/2/2
f 251/2/2 248/2/2 252/2/2
f 249/3/2 250/3/2 253/3/2
f 253/3/2 250/3/2 254/3/2
f 251/3/2 252/3/2 255/3/2
f 255/3/2 252/3/2 256/3/2
f 259/4/3 258/4/3 257/4/3
f 260/4/3 258/4/3 259/4/3
f 267/5/3 262/5/3 261/5/3
f 268/5/3 262/5/3 267/5/3
f 269/3/3 264/3/3 263/3/3
f 270/2/3 265/2/3 264/2/3
f 270/3/3 264/3/3 269/3/3
f 271/3/3 266/3/3 265/3/3
f 271/2/3 265/2/3 270/2/3
f 272/3/3 266/3/3 271/3/3
f 275/5/3 274/5/3 273/5/3
f 276/5/3 274/5/3 275/5/3
f 283/5/3 278/5/3 277/5/3
f 284/5/3 278/5/3 283/5/3
f 285/3/3 280/3/3 279/3/3
f 286/2/3 281/2/3 280/2/3
f 286/3/3 280/3/3 285/3/3
f 287/3/3 282/3/3 281/3/3
f 287/2/3 281/2/3 286/2/3
f 288/3/3 282/3/3 287/3/3
f 294/3/3 290/3/3 289/3/3
f 295/2/3 291/2/3 290/2/3
f 295/3/3 290/3/3 294/3/3
f 296/3/3 292/3/3 291/3/3
f 296/2/3 291/2/3 295/2/3
f 297/3/3 292/3/3 296/3/3
f 299/1/3 294/1/3 293/1/3
f 300/1/3 294/1/3 299/1/3
f 303/2/3 298/2/3 297/2/3
f 304/2/3 298/2/3 303/2/3
f 305/2/3 301/2/3 300/2/3
f 306/3/3 302/3/3 301/3/3
f 306/2/3 301/2/3 305/2/3
f 307/2/3 303/2/3 302/2/3
f 307/3/3 302/3/3 306/3/3
f 308/2/3 303/2/3 307/2/3
f 314/2/3 310/2/3 309/2/3
f 315/3/3 311/3/3 310/3/3
f 315/2/3 310/2/3 314/2/3
f 316/2/3 312/2/3 311/2/3
f 316/3/3 311/3/3 315/3/3
f 317/2/3 312/2/3 316/2/3
f 319/1/3 314/1/3 313/1/3
f 320/1/3 314/1/3 319/1/3
f 323/2/3 318/2/3 317/2/3
f 324/2/3 318/2/3 323/2/3
f 325/3/3 321/3/3 320/3/3
f 326/2/3 322/2/3 321/2/3
f 326/3/3 321/3/3 325/3/3
f 327/3/3 323/3/3 322/3/3
f 327/2/3 322/2/3 326/2/3
f 328/3/3 323/3/3 327/3/3
f 333/2/3 330/2/3 329/2/3
f 334/3/3 331/3/3 330/3/3
f 334/2/3 330/2/3 333/2/3
f 335/2/3 332/2/3 331/2/3
f 335/3/3 331/3/3 334/3/3
f 336/2/3 332/2/3 335/2/3
f 341/2/3 338/2/3 337/2/3
f 342/3/3 339/3/3 338/3/3
f 342/2/3 338/2/3 341/2/3
f 343/2/3 340/2/3 339/2/3
f 343/3/3 339/3/3 342/3/3
f 344/2/3 340/2/3 343/2/3
f 350/3/3 346/3/3 345/3/3
f 351/2/3 347/2/3 346/2/3
f 351/3/3 346/3/3 350/3/3
f 352/3/3 348/3/3 347/3/3
f 352/2/3 347/2/3 351/2/3
f 353/3/3 348/3/3 352/3/3
f 355/1/3 350/1/3 349/1/3
f 356/1/3 350/1/3 355/1/3
f 359/2/3 354/2/3 353/2/3
f 360/2/3 354/2/3 359/2/3
f 361/2/3 357/2/3 356/2/3
f 362/3/3 358/3/3 357/3/3
f 362/2/3 357/2/3 361/2/3
f 363/2/3 359/2/3 358/2/3
f 363/3/3 358/3/3 362/3/3
f 364/2/3 359/2/3 363/2/3
f 370/2/3 366/2/3 365/2/3
f 371/3/3 367/3/3 366/3/3
f 371/2/3 366/2/3 370/2/3
f 372/2/3 368/2/3 367/2/3
f 372/3/3 367/3/3 371/3/3
f 373/2/3 368/2/3 372/2/3
f 375/1/3 370/1/3 369/1/3
f 376/1/3 370/1/3 375/1/3
f 379/2/3 374/2/3 373/2/3
f 380/2/3 374/2/3 379/2/3
f 381/3/3 377/3/3 376/3/3
f 382/2/3 378/2/3 377/2/3
f 382/3/3 377/3/3 381/3/3
f 383/3/3 379/3/3 378/3/3
f 383/2/3 378/2/3 382/2/3
f 384/3/3 379/3/3 383/3/3
f 385/3/4 386/3/4 390/3/4
f 386/2/4 387/2/4 391/2/4
f 390/3/4 386/3/4 391/3/4
f 387/3/4 388/3/4 392/3/4
f 391/2/4 387/2/4 392/2/4
f 392/3/4 388/3/4 393/3/4
f 389/1/4 390/1/4 395/1/4
f 395/1/4 390/1/4 396/1/4
f 393/2/4 394/2/4 399/2/4
f 399/2/4 394/2/4 400/2/4
f 396/2/4 397/2/4 401/2/4
f 397/3/4 398/3/4 402/3/4
f 401/2/4 397/2/4 402/2/4
f 398/2/4 399/2/4 403/2/4
f 402/3/4 398/3/4 403/3/4
f 403/2/4 399/2/4 404/2/4
f 405/2/4 406/2/4 410/2/4
f 406/3/4 407/3/4 411/3/4
f 410/2/4 406/2/4 411/2/4
f 407/2/4 408/2/4 412/2/4
f 411/3/4 407/3/4 412/3/4
f 412/2/4 408/2/4 413/2/4
f 409/1/4 410/1/4 415/1/4
f 415/1/4 410/1/4 416/1/4
f 413/2/4 414/2/4 419/2/4
f 419/2/4 414/2/4 420/2/4
f 416/3/4 417/3/4 421/3/4
f 417/2/4 418/2/4 422/2/4
f 421/3/4 417/3/4 422/3/4
f 418/3/4 419/3/4 423/3/4
f 422/2/4 418/2/4 423/2/4
f 423/3/4 419/3/4 424/3/4
f 425/2/4 426/2/4 429/2/4
f 426/3/4 427/3/4 430/3/4
f 429/2/4 426/2/4 430/2/4
f 427/2/4 428/2/4 431/2/4
f 430/3/4 427/3/4 431/3/4
f 431/2/4 428/2/4 432/2/4
f 433/2/4 434/2/4 437/2/4
f 434/3/4 435/3/4 438/3/4
f 437/2/4 434/2/4 438/2/4
f 435/2/4 436/2/4 439/2/4
f 438/3/4 435/3/4 439/3/4
f 439/2/4 436/2/4 440/2/4
f 441/3/4 442/3/4 446/3/4
f 442/2/4 443/2/4 447/2/4
f 446/3/4 442/3/4 447/3/4
f 443/3/4 444/3/4 448/3/4
f 447/2/4 443/2/4 448/2/4
f 448/3/4 444/3/4 449/3/4
f 445/1/4 446/1/4 451/1/4
f 451/1/4 446/1/4 452/1/4
f 449/2/4 450/2/4 455/2/4
f 455/2/4 450/2/4 456/2/4
f 452/2/4 453/2/4 457/2/4
f 453/3/4 454/3/4 458/3/4
f 457/2/4 453/2/4 458/2/4
f 454/2/4 455/2/4 459/2/4
f 458/3/4 454/3/4 459/3/4
f 459/2/4 455/2/4 460/2/4
f 461/2/4 462/2/4 466/2/4
f 462/3/4 463/3/4 467/3/4
f 466/2/4 462/2/4 467/2/4
f 463/2/4 464/2/4 468/2/4
f 467/3/4 463/3/4 468/3/4
f 468/2/4 464/2/4 469/2/4
f 465/1/4 466/1/4 471/1/4
f 471/1/4 466/1/4 472/1/4
f 469/2/4 470/2/4 475/2/4
f 475/2/4 470/2/4 476/2/4
f 472/3/4 473/3/4 477/3/4
f 473/2/4 474/2/4 478/2/4
f 477/3/4 473/3/4 478/3/4
f 474/3/4 475/3/4 479/3/4
f 478/2/4 474/2/4 479/2/4
f 479/3/4 475/3/4 480/3/4
f 481/5/4 482/5/4 487/5/4
f 487/5/4 482/5/4 488/5/4
f 483/3/4 484/3/4 489/3/4
f 484/2/4 485/2/4 490/2/4
f 489/3/4 484/3/4 490/3/4
f 485/3/4 486/3/4 491/3/4
f 490/2/4 485/2/4 491/2/4
f 491/3/4 486/3/4 492/3/4
f 493/5/4 494/5/4 495/5/4
f 495/5/4 494/5/4 496/5/4
f 497/5/4 498/5/4 503/5/4
f 503/5/4 498/5/4 504/5/4
f 499/3/4 500/3/4 505/3/4
f 500/2/4 501/2/4 506/2/4
f 505/3/4 500/3/4 506/3/4
f 501/3/4 502/3/4 507/3/4
f 506/2/4 501/2/4 507/2/4
f 507/3/4 502/3/4 508/3/4
f 509/4/4 510/4/4 511/4/4
f 511/4/4 510/4/4 512/4/4
f 515/4/5 514/4/5 513/4/5
f 516/4/5 514/4/5 515/4/5
f 522/3/5 518/3/5 517/3/5
f 523/3/5 518/3/5 522/3/5
f 526/3/5 520/3/5 519/3/5
f 527/3/5 520/3/5 526/3/5
f 529/3/5 522/3/5 521/3/5
f 530/3/5 522/3/5 529/3/5
f 531/2/5 524/2/5 523/2/5
f 532/2/5 524/2/5 531/2/5
f 533/2/5 526/2/5 525/2/5
f 534/2/5 526/2/5 533/2/5
f 535/3/5 528/3/5 527/3/5
f 536/3/5 528/3/5 535/3/5
f 537/2/5 531/2/5 530/2/5
f 538/2/5 531/2/5 537/2/5
f 539/2/5 535/2/5 534/2/5
f 540/2/5 535/2/5 539/2/5
f 546/2/5 542/2/5 541/2/5
f 547/2/5 542/2/5 546/2/5
f 550/2/5 544/2/5 543/2/5
f 551/2/5 544/2/5 550/2/5
f 553/3/5 546/3/5 545/3/5
f 554/3/5 546/3/5 553/3/5
f 555/2/5 548/2/5 547/2/5
f 556/2/5 548/2/5 555/2/5
f 557/2/5 550/2/5 549/2/5
f 558/2/5 550/2/5 557/2/5
f 559/3/5 552/3/5 551/3/5
f 560/3/5 552/3/5 559/3/5
f 561/3/5 555/3/5 554/3/5
f 562/3/5 555/3/5 561/3/5
f 563/3/5 559/3/5 558/3/5
f 564/3/5 559/3/5 563/3/5
f 565/4/6 566/4/6 567/4/6
f 567/4/6 566/4/6 568/4/6
f 568/4/6 566/4/6 569/4/6
f 569/4/6 566/4/6 570/4/6
f 570/4/6 566/4/6 571/4/6
f 571/4/6 566/4/6 572/4/6
f 565/4/6 567/4/6 573/4/6
f 568/4/6 569/4/6 574/4/6
f 574/4/6 569/4/6 575/4/6
f 570/4/6 571/4/6 576/4/6
f 576/4/6 571/4/6 577/4/6
f 572/4/6 566/4/6 578/4/6
f 576/4/6 577/4/6 579/4/6
f 577/4/6 578/4/6 579/4/6
f 574/4/6 575/4/6 579/4/6
f 565/4/6 573/4/6 579/4/6
f 575/4/6 576/4/6 579/4/6
f 573/4/6 574/4/6 579/4/6
f 578/4/6 566/4/6 580/4/6
f 579/4/6 578/4/6 580/4/6
f 581/5/6 582/5/6 587/5/6
f 587/5/6 582/5/6 588/5/6
f 585/5/6 586/5/6 589/5/6
f 589/5/6 586/5/6 590/5/6
f 591/5/6 592/5/6 595/5/6
f 595/5/6 592/5/6 596/5/6
f 593/5/6 594/5/6 597/5/6
f 597/5/6 594/5/6 598/5/6
f 599/5/6 600/5/6 603/5/6
f 603/5/6 600/5/6 604/5/6
f 583/5/6 584/5/6 605/5/6
f 605/5/6 584/5/6 606/5/6
f 601/5/6 602/5/6 607/5/6
f 607/5/6 602/5/6 608/5/6
f 609/3/6 610/3/6 614/3/6
f 614/3/6 610/3/6 615/3/6
f 611/3/6 612/3/6 618/3/6
f 618/3/6 612/3/6 619/3/6
f 613/3/6 614/3/6 621/3/6
f 621/3/6 614/3/6 622/3/6
f 615/2/6 616/2/6 623/2/6
f 623/2/6 616/2/6 624/2/6
f 617/2/6 618/2/6 625/2/6
f 625/2/6 618/2/6 626/2/6
f 619/3/6 620/3/6 627/3/6
f 627/3/6 620/3/6 628/3/6
f 622/2/6 623/2/6 629/2/6
f 629/2/6 623/2/6 630/2/6
f 626/2/6 627/2/6 631/2/6
f 631/2/6 627/2/6 632/2/6
f 633/2/6 634/2/6 638/2/6
f 638/2/6 634/2/6 639/2/6
f 635/2/6 636/2/6 642/2/6
f 642/2/6 636/2/6 643/2/6
f 637/3/6 638/3/6 645/3/6
f 645/3/6 638/3/6 646/3/6
f 639/2/6 640/2/6 647/2/6
f 647/2/6 640/2/6 648/2/6
f 641/2/6 642/2/6 649/2/6
f 649/2/6 642/2/6 650/2/6
f 643/3/6 644/3/6 651/3/6
f 651/3/6 644/3/6 652/3/6
f 646/3/6 647/3/6 653/3/6
f 653/3/6 647/3/6 654/3/6
f 650/3/6 651/3/6 655/3/6
f 655/3/6 651/3/6 656/3/6
f 657/2/6 658/2/6 661/2/6
f 661/2/6 658/2/6 662/2/6
f 659/2/6 660/2/6 663/2/6
f 663/2/6 660/2/6 664/2/6
f 665/2/6 666/2/6 669/2/6
f 669/2/6 666/2/6 670/2/6
f 667/2/6 668/2/6 671/2/6
f 671/2/6 668/2/6 672/2/6
