# MagicaVoxel @ Ephtracy

# group
o 

# material
mtllib Red Pepper.mtl
usemtl palette

# normals
vn -1 0 0
vn 1 0 0
vn 0 0 1
vn 0 0 -1
vn 0 -1 0
vn 0 1 0

# texcoords
vt 0.0761719 0.5
vt 0.0800781 0.5
vt 0.189453 0.5

# verts
v -0.15 -0.2 0.05
v -0.15 -0.2 -0.15
v -0.15 -0.1 -0.05
v -0.15 -0.1 -0.15
v -0.15 0 0.05
v -0.15 0 -0.05
v -0.15 0.1 0.05
v -0.15 0.1 -0.05
v -0.05 -0.2 0.25
v -0.05 -0.2 0.05
v -0.05 -0.1 0.25
v -0.05 -0.1 0.15
v -0.05 -0.1 -0.05
v -0.05 -0.1 -0.15
v -0.05 -0.1 -0.25
v -0.05 0 0.15
v -0.05 0 0.05
v -0.05 0 -0.05
v -0.05 0 -0.15
v -0.05 0 -0.25
v -0.05 0.1 0.15
v -0.05 0.1 0.05
v -0.05 0.1 -0.05
v -0.05 0.1 -0.15
v -0.05 0.2 0.05
v -0.05 0.2 -0.05
v 0.05 -0.2 -0.05
v 0.05 -0.2 -0.15
v 0.05 -0.1 -0.05
v 0.05 -0.1 -0.15
v -0.05 -0.2 -0.05
v -0.05 -0.2 -0.15
v -0.05 -0.1 -0.05
v -0.05 -0.1 -0.15
v 0.05 -0.2 0.25
v 0.05 -0.2 0.05
v 0.05 -0.1 0.25
v 0.05 -0.1 0.15
v 0.05 -0.1 -0.05
v 0.05 -0.1 -0.15
v 0.05 -0.1 -0.25
v 0.05 0 0.15
v 0.05 0 0.05
v 0.05 0 -0.05
v 0.05 0 -0.15
v 0.05 0 -0.25
v 0.05 0.1 0.15
v 0.05 0.1 0.05
v 0.05 0.1 -0.05
v 0.05 0.1 -0.15
v 0.05 0.2 0.05
v 0.05 0.2 -0.05
v 0.15 -0.2 0.05
v 0.15 -0.2 -0.15
v 0.15 -0.1 -0.05
v 0.15 -0.1 -0.15
v 0.15 0 0.05
v 0.15 0 -0.05
v 0.15 0.1 0.05
v 0.15 0.1 -0.05
v -0.05 -0.2 0.25
v -0.05 -0.1 0.25
v 0.05 -0.2 0.25
v 0.05 -0.1 0.25
v -0.05 -0.1 0.15
v -0.05 0 0.15
v -0.05 0.1 0.15
v 0.05 -0.1 0.15
v 0.05 0 0.15
v 0.05 0.1 0.15
v -0.15 -0.2 0.05
v -0.15 0 0.05
v -0.15 0.1 0.05
v -0.05 -0.2 0.05
v -0.05 0 0.05
v -0.05 0.1 0.05
v -0.05 0.2 0.05
v 0.05 -0.2 0.05
v 0.05 0 0.05
v 0.05 0.1 0.05
v 0.05 0.2 0.05
v 0.15 -0.2 0.05
v 0.15 0 0.05
v 0.15 0.1 0.05
v -0.15 -0.1 -0.05
v -0.15 0 -0.05
v -0.15 0.1 -0.05
v -0.05 -0.2 -0.05
v -0.05 -0.1 -0.05
v -0.05 0 -0.05
v -0.05 0.1 -0.05
v -0.05 0.2 -0.05
v 0.05 -0.2 -0.05
v 0.05 -0.1 -0.05
v 0.05 0 -0.05
v 0.05 0.1 -0.05
v 0.05 0.2 -0.05
v 0.15 -0.1 -0.05
v 0.15 0 -0.05
v 0.15 0.1 -0.05
v -0.15 -0.2 -0.15
v -0.15 -0.1 -0.15
v -0.05 -0.2 -0.15
v -0.05 -0.1 -0.15
v -0.05 0 -0.15
v -0.05 0.1 -0.15
v 0.05 -0.2 -0.15
v 0.05 -0.1 -0.15
v 0.05 0 -0.15
v 0.05 0.1 -0.15
v 0.15 -0.2 -0.15
v 0.15 -0.1 -0.15
v -0.05 -0.1 -0.25
v -0.05 0 -0.25
v 0.05 -0.1 -0.25
v 0.05 0 -0.25
v -0.05 -0.2 0.25
v 0.05 -0.2 0.25
v -0.15 -0.2 0.05
v -0.05 -0.2 0.05
v 0.05 -0.2 0.05
v 0.15 -0.2 0.05
v -0.05 -0.2 -0.05
v 0.05 -0.2 -0.05
v -0.15 -0.2 -0.15
v -0.05 -0.2 -0.15
v 0.05 -0.2 -0.15
v 0.15 -0.2 -0.15
v -0.05 -0.1 -0.05
v 0.05 -0.1 -0.05
v -0.05 -0.1 -0.15
v 0.05 -0.1 -0.15
v -0.05 -0.1 -0.25
v 0.05 -0.1 -0.25
v -0.05 -0.1 0.25
v 0.05 -0.1 0.25
v -0.05 -0.1 0.15
v 0.05 -0.1 0.15
v -0.15 -0.1 -0.05
v -0.05 -0.1 -0.05
v 0.05 -0.1 -0.05
v 0.15 -0.1 -0.05
v -0.15 -0.1 -0.15
v -0.05 -0.1 -0.15
v 0.05 -0.1 -0.15
v 0.15 -0.1 -0.15
v -0.05 0 -0.15
v 0.05 0 -0.15
v -0.05 0 -0.25
v 0.05 0 -0.25
v -0.05 0.1 0.15
v 0.05 0.1 0.15
v -0.15 0.1 0.05
v -0.05 0.1 0.05
v 0.05 0.1 0.05
v 0.15 0.1 0.05
v -0.15 0.1 -0.05
v -0.05 0.1 -0.05
v 0.05 0.1 -0.05
v 0.15 0.1 -0.05
v -0.05 0.1 -0.15
v 0.05 0.1 -0.15
v -0.05 0.2 0.05
v 0.05 0.2 0.05
v -0.05 0.2 -0.05
v 0.05 0.2 -0.05

# faces
f 3/3/1 2/3/1 1/3/1
f 4/3/1 2/3/1 3/3/1
f 5/3/1 3/3/1 1/3/1
f 6/3/1 3/3/1 5/3/1
f 7/1/1 6/1/1 5/1/1
f 8/1/1 6/1/1 7/1/1
f 11/3/1 10/3/1 9/3/1
f 12/3/1 10/3/1 11/3/1
f 16/3/1 10/3/1 12/3/1
f 17/3/1 10/3/1 16/3/1
f 18/3/1 15/3/1 14/3/1
f 18/3/1 14/3/1 13/3/1
f 19/3/1 15/3/1 18/3/1
f 20/3/1 15/3/1 19/3/1
f 21/1/1 17/1/1 16/1/1
f 22/1/1 17/1/1 21/1/1
f 23/1/1 19/1/1 18/1/1
f 24/1/1 19/1/1 23/1/1
f 25/2/1 23/2/1 22/2/1
f 26/2/1 23/2/1 25/2/1
f 29/3/1 28/3/1 27/3/1
f 30/3/1 28/3/1 29/3/1
f 31/3/2 32/3/2 33/3/2
f 33/3/2 32/3/2 34/3/2
f 35/3/2 36/3/2 37/3/2
f 37/3/2 36/3/2 38/3/2
f 38/3/2 36/3/2 42/3/2
f 42/3/2 36/3/2 43/3/2
f 40/3/2 41/3/2 44/3/2
f 39/3/2 40/3/2 44/3/2
f 44/3/2 41/3/2 45/3/2
f 45/3/2 41/3/2 46/3/2
f 42/1/2 43/1/2 47/1/2
f 47/1/2 43/1/2 48/1/2
f 44/1/2 45/1/2 49/1/2
f 49/1/2 45/1/2 50/1/2
f 48/2/2 49/2/2 51/2/2
f 51/2/2 49/2/2 52/2/2
f 53/3/2 54/3/2 55/3/2
f 55/3/2 54/3/2 56/3/2
f 53/3/2 55/3/2 57/3/2
f 57/3/2 55/3/2 58/3/2
f 57/1/2 58/1/2 59/1/2
f 59/1/2 58/1/2 60/1/2
f 63/3/3 62/3/3 61/3/3
f 64/3/3 62/3/3 63/3/3
f 68/3/3 66/3/3 65/3/3
f 69/1/3 67/1/3 66/1/3
f 69/3/3 66/3/3 68/3/3
f 70/1/3 67/1/3 69/1/3
f 74/3/3 72/3/3 71/3/3
f 75/1/3 73/1/3 72/1/3
f 75/3/3 72/3/3 74/3/3
f 76/1/3 73/1/3 75/1/3
f 80/2/3 77/2/3 76/2/3
f 81/2/3 77/2/3 80/2/3
f 82/3/3 79/3/3 78/3/3
f 83/1/3 80/1/3 79/1/3
f 83/3/3 79/3/3 82/3/3
f 84/1/3 80/1/3 83/1/3
f 85/3/4 86/3/4 89/3/4
f 86/1/4 87/1/4 90/1/4
f 89/3/4 86/3/4 90/3/4
f 90/1/4 87/1/4 91/1/4
f 88/3/4 89/3/4 93/3/4
f 93/3/4 89/3/4 94/3/4
f 91/2/4 92/2/4 96/2/4
f 96/2/4 92/2/4 97/2/4
f 94/3/4 95/3/4 98/3/4
f 95/1/4 96/1/4 99/1/4
f 98/3/4 95/3/4 99/3/4
f 99/1/4 96/1/4 100/1/4
f 101/3/4 102/3/4 103/3/4
f 103/3/4 102/3/4 104/3/4
f 105/1/4 106/1/4 109/1/4
f 109/1/4 106/1/4 110/1/4
f 107/3/4 108/3/4 111/3/4
f 111/3/4 108/3/4 112/3/4
f 113/3/4 114/3/4 115/3/4
f 115/3/4 114/3/4 116/3/4
f 120/3/5 118/3/5 117/3/5
f 121/3/5 118/3/5 120/3/5
f 123/3/5 120/3/5 119/3/5
f 123/3/5 122/3/5 121/3/5
f 123/3/5 121/3/5 120/3/5
f 124/3/5 122/3/5 123/3/5
f 125/3/5 123/3/5 119/3/5
f 126/3/5 123/3/5 125/3/5
f 127/3/5 122/3/5 124/3/5
f 128/3/5 122/3/5 127/3/5
f 131/3/5 130/3/5 129/3/5
f 132/3/5 130/3/5 131/3/5
f 133/3/5 132/3/5 131/3/5
f 134/3/5 132/3/5 133/3/5
f 135/3/6 136/3/6 137/3/6
f 137/3/6 136/3/6 138/3/6
f 139/3/6 140/3/6 143/3/6
f 143/3/6 140/3/6 144/3/6
f 141/3/6 142/3/6 145/3/6
f 145/3/6 142/3/6 146/3/6
f 147/3/6 148/3/6 149/3/6
f 149/3/6 148/3/6 150/3/6
f 151/1/6 152/1/6 154/1/6
f 154/1/6 152/1/6 155/1/6
f 153/1/6 154/1/6 157/1/6
f 157/1/6 154/1/6 158/1/6
f 155/1/6 156/1/6 159/1/6
f 159/1/6 156/1/6 160/1/6
f 158/1/6 159/1/6 161/1/6
f 161/1/6 159/1/6 162/1/6
f 163/2/6 164/2/6 165/2/6
f 165/2/6 164/2/6 166/2/6
