# MagicaVoxel @ Ephtracy

# group
o 

# material
mtllib Cow.mtl
usemtl palette

# normals
vn -1 0 0
vn 1 0 0
vn 0 0 1
vn 0 0 -1
vn 0 -1 0
vn 0 1 0

# texcoords
vt 0.00195313 0.5
vt 0.0292969 0.5
vt 0.166016 0.5
vt 0.208984 0.5
vt 0.212891 0.5

# verts
v -0.5 -0.1 0.05
v -0.5 -0.1 -0.05
v -0.5 0 0.05
v -0.5 0 -0.05
v -0.4 -0.1 0.15
v -0.4 -0.1 0.05
v -0.4 -0.1 -0.05
v -0.4 -0.1 -0.15
v -0.4 0 0.05
v -0.4 0 -0.05
v -0.4 0.1 0.15
v -0.4 0.1 -0.15
v -0.3 -0.2 0.05
v -0.3 -0.2 -0.05
v -0.3 -0.1 0.05
v -0.3 -0.1 -0.05
v -0.3 0.1 0.15
v -0.3 0.1 0.05
v -0.3 0.1 -0.05
v -0.3 0.1 -0.15
v -0.3 0.2 0.15
v -0.3 0.2 0.05
v -0.3 0.2 -0.05
v -0.3 0.2 -0.15
v -0.2 -0.5 0.25
v -0.2 -0.5 0.15
v -0.2 -0.5 -0.15
v -0.2 -0.5 -0.25
v -0.2 -0.4 0.25
v -0.2 -0.4 0.15
v -0.2 -0.4 -0.15
v -0.2 -0.4 -0.25
v -0.2 -0.3 0.15
v -0.2 -0.3 -0.15
v -0.2 -0.2 0.05
v -0.2 -0.2 -0.05
v -0.2 -0.1 0.25
v -0.2 -0.1 0.15
v -0.2 -0.1 0.05
v -0.2 -0.1 -0.05
v -0.2 -0.1 -0.15
v -0.2 -0.1 -0.25
v -0.2 0.1 0.25
v -0.2 0.1 0.15
v -0.2 0.1 -0.15
v -0.2 0.1 -0.25
v -0.2 0.2 0.15
v -0.2 0.2 0.05
v -0.2 0.2 -0.05
v -0.2 0.2 -0.15
v -0.2 0.3 0.25
v -0.2 0.3 0.15
v -0.2 0.3 0.05
v -0.2 0.3 -0.05
v -0.2 0.3 -0.15
v -0.2 0.3 -0.25
v -0.1 0 0.25
v -0.1 0 0.15
v -0.1 0 -0.15
v -0.1 0 -0.25
v -0.1 0.1 0.25
v -0.1 0.1 0.15
v -0.1 0.1 -0.15
v -0.1 0.1 -0.25
v 0 -0.1 0.25
v 0 -0.1 0.15
v 0 -0.1 -0.15
v 0 -0.1 -0.25
v 0 0 0.25
v 0 0 0.15
v 0 0 -0.15
v 0 0 -0.25
v 0.1 -0.4 0.05
v 0.1 -0.4 -0.05
v 0.1 -0.3 0.05
v 0.1 -0.3 -0.05
v 0.3 -0.5 0.25
v 0.3 -0.5 0.15
v 0.3 -0.5 -0.15
v 0.3 -0.5 -0.25
v 0.3 -0.4 0.25
v 0.3 -0.4 0.15
v 0.3 -0.4 -0.15
v 0.3 -0.4 -0.25
v 0.3 -0.3 0.25
v 0.3 -0.3 0.15
v 0.3 -0.3 -0.15
v 0.3 -0.3 -0.25
v -0.1 -0.5 0.25
v -0.1 -0.5 0.15
v -0.1 -0.5 -0.15
v -0.1 -0.5 -0.25
v -0.1 -0.4 0.25
v -0.1 -0.4 0.15
v -0.1 -0.4 -0.15
v -0.1 -0.4 -0.25
v -0.1 -0.3 0.25
v -0.1 -0.3 0.15
v -0.1 -0.3 -0.15
v -0.1 -0.3 -0.25
v -0.1 0.1 0.25
v -0.1 0.1 0.15
v -0.1 0.1 -0.15
v -0.1 0.1 -0.25
v -0.1 0.2 0.15
v -0.1 0.2 0.05
v -0.1 0.2 -0.05
v -0.1 0.2 -0.15
v -0.1 0.3 0.25
v -0.1 0.3 0.15
v -0.1 0.3 0.05
v -0.1 0.3 -0.05
v -0.1 0.3 -0.15
v -0.1 0.3 -0.25
v 0 0 0.25
v 0 0 0.15
v 0 0 0.05
v 0 0 -0.05
v 0 0 -0.15
v 0 0 -0.25
v 0 0.1 0.25
v 0 0.1 0.15
v 0 0.1 0.05
v 0 0.1 -0.05
v 0 0.1 -0.15
v 0 0.1 -0.25
v 0 0.2 0.15
v 0 0.2 -0.15
v 0.3 -0.4 0.05
v 0.3 -0.4 -0.05
v 0.3 -0.3 0.05
v 0.3 -0.3 -0.05
v 0.3 -0.1 0.25
v 0.3 -0.1 0.15
v 0.3 -0.1 -0.15
v 0.3 -0.1 -0.25
v 0.3 0 0.25
v 0.3 0 0.15
v 0.3 0 -0.15
v 0.3 0 -0.25
v 0.4 -0.5 0.25
v 0.4 -0.5 0.15
v 0.4 -0.5 -0.15
v 0.4 -0.5 -0.25
v 0.4 -0.4 0.25
v 0.4 -0.4 0.15
v 0.4 -0.4 -0.15
v 0.4 -0.4 -0.25
v 0.4 -0.3 0.15
v 0.4 -0.3 0.05
v 0.4 -0.3 -0.05
v 0.4 -0.3 -0.15
v 0.4 -0.2 0.25
v 0.4 -0.2 0.05
v 0.4 -0.2 -0.05
v 0.4 -0.1 0.25
v 0.4 -0.1 0.15
v 0.4 -0.1 0.05
v 0.4 -0.1 -0.05
v 0.4 -0.1 -0.15
v 0.4 -0.1 -0.25
v 0.4 0 0.15
v 0.4 0 0.05
v 0.4 0 -0.05
v 0.4 0 -0.15
v 0.4 0.1 0.05
v 0.4 0.1 -0.05
v 0.5 -0.3 0.05
v 0.5 -0.3 -0.05
v 0.5 -0.2 0.05
v 0.5 -0.2 -0.05
v 0.5 -0.1 0.05
v 0.5 -0.1 -0.05
v -0.2 -0.5 0.25
v -0.2 -0.4 0.25
v -0.2 -0.1 0.25
v -0.2 0.1 0.25
v -0.2 0.3 0.25
v -0.1 -0.5 0.25
v -0.1 -0.4 0.25
v -0.1 -0.3 0.25
v -0.1 -0.1 0.25
v -0.1 0 0.25
v -0.1 0.1 0.25
v -0.1 0.3 0.25
v 0 -0.1 0.25
v 0 0 0.25
v 0 0.1 0.25
v 0.1 -0.2 0.25
v 0.1 0 0.25
v 0.2 -0.3 0.25
v 0.2 -0.2 0.25
v 0.3 -0.5 0.25
v 0.3 -0.4 0.25
v 0.3 -0.3 0.25
v 0.3 -0.2 0.25
v 0.3 -0.1 0.25
v 0.3 0 0.25
v 0.4 -0.5 0.25
v 0.4 -0.4 0.25
v 0.4 -0.2 0.25
v 0.4 -0.1 0.25
v -0.4 -0.1 0.15
v -0.4 0.1 0.15
v -0.3 0 0.15
v -0.3 0.1 0.15
v -0.3 0.2 0.15
v -0.2 -0.1 0.15
v -0.2 0 0.15
v -0.2 0.1 0.15
v -0.2 0.2 0.15
v -0.1 -0.1 0.15
v -0.1 0 0.15
v -0.1 0.1 0.15
v -0.1 0.2 0.15
v 0 -0.1 0.15
v 0 0 0.15
v 0 0.1 0.15
v 0 0.2 0.15
v 0.3 -0.1 0.15
v 0.3 0 0.15
v 0.4 -0.1 0.15
v 0.4 0 0.15
v -0.5 -0.1 0.05
v -0.5 0 0.05
v -0.4 -0.1 0.05
v -0.4 0 0.05
v -0.3 -0.2 0.05
v -0.3 -0.1 0.05
v -0.2 -0.2 0.05
v -0.2 -0.1 0.05
v -0.2 0.2 0.05
v -0.2 0.3 0.05
v -0.1 0.2 0.05
v -0.1 0.3 0.05
v 0 0 0.05
v 0 0.1 0.05
v 0.1 -0.4 0.05
v 0.1 -0.3 0.05
v 0.1 0 0.05
v 0.1 0.1 0.05
v 0.2 0 0.05
v 0.2 0.1 0.05
v 0.3 -0.4 0.05
v 0.3 -0.3 0.05
v 0.3 0 0.05
v 0.3 0.1 0.05
v 0.4 -0.3 0.05
v 0.4 -0.2 0.05
v 0.4 -0.1 0.05
v 0.4 0 0.05
v 0.4 0.1 0.05
v 0.5 -0.3 0.05
v 0.5 -0.2 0.05
v 0.5 -0.1 0.05
v -0.2 -0.5 -0.15
v -0.2 -0.4 -0.15
v -0.2 -0.3 -0.15
v -0.2 0.2 -0.15
v -0.2 0.3 -0.15
v -0.1 -0.5 -0.15
v -0.1 -0.4 -0.15
v -0.1 -0.3 -0.15
v -0.1 0.2 -0.15
v -0.1 0.3 -0.15
v 0.3 -0.5 -0.15
v 0.3 -0.4 -0.15
v 0.3 -0.3 -0.15
v 0.4 -0.5 -0.15
v 0.4 -0.4 -0.15
v 0.4 -0.3 -0.15
v -0.2 -0.5 0.15
v -0.2 -0.4 0.15
v -0.2 -0.3 0.15
v -0.2 0.2 0.15
v -0.2 0.3 0.15
v -0.1 -0.5 0.15
v -0.1 -0.4 0.15
v -0.1 -0.3 0.15
v -0.1 0.2 0.15
v -0.1 0.3 0.15
v 0.3 -0.5 0.15
v 0.3 -0.4 0.15
v 0.3 -0.3 0.15
v 0.4 -0.5 0.15
v 0.4 -0.4 0.15
v 0.4 -0.3 0.15
v -0.5 -0.1 -0.05
v -0.5 0 -0.05
v -0.4 -0.1 -0.05
v -0.4 0 -0.05
v -0.3 -0.2 -0.05
v -0.3 -0.1 -0.05
v -0.2 -0.2 -0.05
v -0.2 -0.1 -0.05
v -0.2 0.2 -0.05
v -0.2 0.3 -0.05
v -0.1 0.2 -0.05
v -0.1 0.3 -0.05
v 0 0 -0.05
v 0 0.1 -0.05
v 0.1 -0.4 -0.05
v 0.1 -0.3 -0.05
v 0.1 0 -0.05
v 0.1 0.1 -0.05
v 0.2 0 -0.05
v 0.2 0.1 -0.05
v 0.3 -0.4 -0.05
v 0.3 -0.3 -0.05
v 0.3 0 -0.05
v 0.3 0.1 -0.05
v 0.4 -0.3 -0.05
v 0.4 -0.2 -0.05
v 0.4 -0.1 -0.05
v 0.4 0 -0.05
v 0.4 0.1 -0.05
v 0.5 -0.3 -0.05
v 0.5 -0.2 -0.05
v 0.5 -0.1 -0.05
v -0.4 -0.1 -0.15
v -0.4 0.1 -0.15
v -0.3 0 -0.15
v -0.3 0.1 -0.15
v -0.3 0.2 -0.15
v -0.2 -0.1 -0.15
v -0.2 0 -0.15
v -0.2 0.1 -0.15
v -0.2 0.2 -0.15
v -0.1 0 -0.15
v -0.1 0.1 -0.15
v -0.1 0.2 -0.15
v 0 -0.1 -0.15
v 0 0 -0.15
v 0 0.1 -0.15
v 0 0.2 -0.15
v 0.3 -0.1 -0.15
v 0.3 0 -0.15
v 0.4 -0.1 -0.15
v 0.4 0 -0.15
v -0.2 -0.5 -0.25
v -0.2 -0.4 -0.25
v -0.2 -0.1 -0.25
v -0.2 0.1 -0.25
v -0.2 0.3 -0.25
v -0.1 -0.5 -0.25
v -0.1 -0.4 -0.25
v -0.1 -0.3 -0.25
v -0.1 0 -0.25
v -0.1 0.1 -0.25
v -0.1 0.3 -0.25
v 0 -0.2 -0.25
v 0 -0.1 -0.25
v 0 0 -0.25
v 0 0.1 -0.25
v 0.1 -0.3 -0.25
v 0.1 -0.2 -0.25
v 0.2 -0.3 -0.25
v 0.2 -0.2 -0.25
v 0.2 -0.1 -0.25
v 0.2 0 -0.25
v 0.3 -0.5 -0.25
v 0.3 -0.4 -0.25
v 0.3 -0.3 -0.25
v 0.3 -0.2 -0.25
v 0.3 -0.1 -0.25
v 0.3 0 -0.25
v 0.4 -0.5 -0.25
v 0.4 -0.4 -0.25
v 0.4 -0.1 -0.25
v -0.2 -0.5 0.25
v -0.1 -0.5 0.25
v 0.3 -0.5 0.25
v 0.4 -0.5 0.25
v -0.2 -0.5 0.15
v -0.1 -0.5 0.15
v 0.3 -0.5 0.15
v 0.4 -0.5 0.15
v -0.2 -0.5 -0.15
v -0.1 -0.5 -0.15
v 0.3 -0.5 -0.15
v 0.4 -0.5 -0.15
v -0.2 -0.5 -0.25
v -0.1 -0.5 -0.25
v 0.3 -0.5 -0.25
v 0.4 -0.5 -0.25
v 0.1 -0.4 0.05
v 0.3 -0.4 0.05
v 0.1 -0.4 -0.05
v 0.3 -0.4 -0.05
v -0.1 -0.3 0.25
v 0.2 -0.3 0.25
v 0.3 -0.3 0.25
v -0.2 -0.3 0.15
v -0.1 -0.3 0.15
v 0.2 -0.3 0.15
v 0.3 -0.3 0.15
v 0.4 -0.3 0.15
v 0.1 -0.3 0.05
v 0.3 -0.3 0.05
v 0.4 -0.3 0.05
v 0.5 -0.3 0.05
v 0.1 -0.3 -0.05
v 0.3 -0.3 -0.05
v 0.4 -0.3 -0.05
v 0.5 -0.3 -0.05
v -0.2 -0.3 -0.15
v -0.1 -0.3 -0.15
v 0.1 -0.3 -0.15
v 0.2 -0.3 -0.15
v 0.3 -0.3 -0.15
v 0.4 -0.3 -0.15
v -0.1 -0.3 -0.25
v 0.1 -0.3 -0.25
v 0.2 -0.3 -0.25
v 0.3 -0.3 -0.25
v -0.3 -0.2 0.05
v -0.2 -0.2 0.05
v -0.3 -0.2 -0.05
v -0.2 -0.2 -0.05
v -0.4 -0.1 0.15
v -0.2 -0.1 0.15
v -0.5 -0.1 0.05
v -0.4 -0.1 0.05
v -0.3 -0.1 0.05
v -0.2 -0.1 0.05
v -0.5 -0.1 -0.05
v -0.4 -0.1 -0.05
v -0.3 -0.1 -0.05
v -0.2 -0.1 -0.05
v -0.4 -0.1 -0.15
v -0.2 -0.1 -0.15
v -0.1 0 0.25
v 0 0 0.25
v -0.1 0 0.15
v 0 0 0.15
v -0.1 0 -0.15
v 0 0 -0.15
v -0.1 0 -0.25
v 0 0 -0.25
v -0.2 0.1 0.25
v -0.1 0.1 0.25
v -0.2 0.1 0.15
v -0.1 0.1 0.15
v -0.2 0.1 -0.15
v -0.1 0.1 -0.15
v -0.2 0.1 -0.25
v -0.1 0.1 -0.25
v -0.2 -0.1 0.25
v -0.1 -0.1 0.25
v 0 -0.1 0.25
v 0.3 -0.1 0.25
v 0.4 -0.1 0.25
v -0.2 -0.1 0.15
v -0.1 -0.1 0.15
v 0 -0.1 0.15
v 0.3 -0.1 0.15
v 0.4 -0.1 0.15
v 0.4 -0.1 0.05
v 0.5 -0.1 0.05
v 0.4 -0.1 -0.05
v 0.5 -0.1 -0.05
v -0.2 -0.1 -0.15
v 0 -0.1 -0.15
v 0.3 -0.1 -0.15
v 0.4 -0.1 -0.15
v -0.2 -0.1 -0.25
v 0 -0.1 -0.25
v 0.3 -0.1 -0.25
v 0.4 -0.1 -0.25
v 0 0 0.25
v 0.1 0 0.25
v 0.3 0 0.25
v 0 0 0.15
v 0.1 0 0.15
v 0.3 0 0.15
v 0.4 0 0.15
v -0.5 0 0.05
v -0.4 0 0.05
v 0 0 0.05
v 0.1 0 0.05
v 0.2 0 0.05
v 0.3 0 0.05
v 0.4 0 0.05
v -0.5 0 -0.05
v -0.4 0 -0.05
v 0 0 -0.05
v 0.1 0 -0.05
v 0.2 0 -0.05
v 0.3 0 -0.05
v 0.4 0 -0.05
v 0 0 -0.15
v 0.3 0 -0.15
v 0.4 0 -0.15
v 0 0 -0.25
v 0.2 0 -0.25
v 0.3 0 -0.25
v -0.1 0.1 0.25
v 0 0.1 0.25
v -0.4 0.1 0.15
v -0.3 0.1 0.15
v -0.1 0.1 0.15
v 0 0.1 0.15
v -0.3 0.1 0.05
v 0 0.1 0.05
v 0.1 0.1 0.05
v 0.2 0.1 0.05
v 0.3 0.1 0.05
v 0.4 0.1 0.05
v -0.3 0.1 -0.05
v 0 0.1 -0.05
v 0.1 0.1 -0.05
v 0.2 0.1 -0.05
v 0.3 0.1 -0.05
v 0.4 0.1 -0.05
v -0.4 0.1 -0.15
v -0.3 0.1 -0.15
v -0.1 0.1 -0.15
v 0 0.1 -0.15
v -0.1 0.1 -0.25
v 0 0.1 -0.25
v -0.3 0.2 0.15
v -0.2 0.2 0.15
v -0.1 0.2 0.15
v 0 0.2 0.15
v -0.3 0.2 0.05
v -0.2 0.2 0.05
v -0.1 0.2 0.05
v -0.3 0.2 -0.05
v -0.2 0.2 -0.05
v -0.1 0.2 -0.05
v -0.3 0.2 -0.15
v -0.2 0.2 -0.15
v -0.1 0.2 -0.15
v 0 0.2 -0.15
v -0.2 0.3 0.25
v -0.1 0.3 0.25
v -0.2 0.3 0.15
v -0.1 0.3 0.15
v -0.2 0.3 0.05
v -0.1 0.3 0.05
v -0.2 0.3 -0.05
v -0.1 0.3 -0.05
v -0.2 0.3 -0.15
v -0.1 0.3 -0.15
v -0.2 0.3 -0.25
v -0.1 0.3 -0.25

# faces
f 3/4/1 2/4/1 1/4/1
f 4/4/1 2/4/1 3/4/1
f 9/2/1 6/2/1 5/2/1
f 10/2/1 8/2/1 7/2/1
f 11/2/1 9/2/1 5/2/1
f 11/2/1 10/2/1 9/2/1
f 12/2/1 8/2/1 10/2/1
f 12/2/1 10/2/1 11/2/1
f 15/3/1 14/3/1 13/3/1
f 16/3/1 14/3/1 15/3/1
f 21/2/1 18/2/1 17/2/1
f 22/1/1 19/1/1 18/1/1
f 22/2/1 18/2/1 21/2/1
f 23/2/1 20/2/1 19/2/1
f 23/1/1 19/1/1 22/1/1
f 24/2/1 20/2/1 23/2/1
f 29/1/1 26/1/1 25/1/1
f 30/1/1 26/1/1 29/1/1
f 31/1/1 28/1/1 27/1/1
f 32/1/1 28/1/1 31/1/1
f 33/2/1 30/2/1 29/2/1
f 34/2/1 32/2/1 31/2/1
f 35/2/1 34/2/1 33/2/1
f 36/2/1 34/2/1 35/2/1
f 37/2/1 33/2/1 29/2/1
f 37/2/1 35/2/1 33/2/1
f 38/2/1 35/2/1 37/2/1
f 39/2/1 35/2/1 38/2/1
f 40/2/1 34/2/1 36/2/1
f 41/2/1 32/2/1 34/2/1
f 41/2/1 34/2/1 40/2/1
f 42/2/1 32/2/1 41/2/1
f 47/5/1 44/5/1 43/5/1
f 50/5/1 46/5/1 45/5/1
f 51/5/1 47/5/1 43/5/1
f 52/5/1 47/5/1 51/5/1
f 53/2/1 49/2/1 48/2/1
f 54/2/1 49/2/1 53/2/1
f 55/5/1 46/5/1 50/5/1
f 56/5/1 46/5/1 55/5/1
f 61/1/1 58/1/1 57/1/1
f 62/1/1 58/1/1 61/1/1
f 63/1/1 60/1/1 59/1/1
f 64/1/1 60/1/1 63/1/1
f 69/1/1 66/1/1 65/1/1
f 70/1/1 66/1/1 69/1/1
f 71/1/1 68/1/1 67/1/1
f 72/1/1 68/1/1 71/1/1
f 75/4/1 74/4/1 73/4/1
f 76/4/1 74/4/1 75/4/1
f 81/1/1 78/1/1 77/1/1
f 82/1/1 78/1/1 81/1/1
f 83/1/1 80/1/1 79/1/1
f 84/1/1 80/1/1 83/1/1
f 85/2/1 82/2/1 81/2/1
f 86/2/1 82/2/1 85/2/1
f 87/2/1 84/2/1 83/2/1
f 88/2/1 84/2/1 87/2/1
f 89/1/2 90/1/2 93/1/2
f 93/1/2 90/1/2 94/1/2
f 91/1/2 92/1/2 95/1/2
f 95/1/2 92/1/2 96/1/2
f 93/2/2 94/2/2 97/2/2
f 97/2/2 94/2/2 98/2/2
f 95/2/2 96/2/2 99/2/2
f 99/2/2 96/2/2 100/2/2
f 101/5/2 102/5/2 105/5/2
f 103/5/2 104/5/2 108/5/2
f 101/5/2 105/5/2 109/5/2
f 109/5/2 105/5/2 110/5/2
f 106/2/2 107/2/2 111/2/2
f 111/2/2 107/2/2 112/2/2
f 108/5/2 104/5/2 113/5/2
f 113/5/2 104/5/2 114/5/2
f 115/1/2 116/1/2 121/1/2
f 116/2/2 117/2/2 122/2/2
f 121/1/2 116/1/2 122/1/2
f 122/2/2 117/2/2 123/2/2
f 118/2/2 119/2/2 124/2/2
f 119/1/2 120/1/2 125/1/2
f 124/2/2 119/2/2 125/2/2
f 125/1/2 120/1/2 126/1/2
f 123/2/2 124/2/2 127/2/2
f 122/2/2 123/2/2 127/2/2
f 124/2/2 125/2/2 127/2/2
f 127/2/2 125/2/2 128/2/2
f 129/4/2 130/4/2 131/4/2
f 131/4/2 130/4/2 132/4/2
f 133/2/2 134/2/2 137/2/2
f 137/2/2 134/2/2 138/2/2
f 135/2/2 136/2/2 139/2/2
f 139/2/2 136/2/2 140/2/2
f 141/1/2 142/1/2 145/1/2
f 145/1/2 142/1/2 146/1/2
f 143/1/2 144/1/2 147/1/2
f 147/1/2 144/1/2 148/1/2
f 145/2/2 146/2/2 149/2/2
f 147/2/2 148/2/2 152/2/2
f 149/2/2 150/2/2 153/2/2
f 145/2/2 149/2/2 153/2/2
f 153/2/2 150/2/2 154/2/2
f 151/2/2 152/2/2 155/2/2
f 153/1/2 154/1/2 156/1/2
f 156/1/2 154/1/2 157/1/2
f 157/1/2 154/1/2 158/1/2
f 155/2/2 152/2/2 159/2/2
f 152/2/2 148/2/2 160/2/2
f 159/2/2 152/2/2 160/2/2
f 160/2/2 148/2/2 161/2/2
f 157/1/2 158/1/2 162/1/2
f 158/1/2 159/1/2 162/1/2
f 162/1/2 159/1/2 163/1/2
f 159/2/2 160/2/2 164/2/2
f 163/1/2 159/1/2 164/1/2
f 164/2/2 160/2/2 165/2/2
f 163/1/2 164/1/2 166/1/2
f 166/1/2 164/1/2 167/1/2
f 168/1/2 169/1/2 170/1/2
f 170/1/2 169/1/2 171/1/2
f 170/2/2 171/2/2 172/2/2
f 172/2/2 171/2/2 173/2/2
f 179/1/3 175/1/3 174/1/3
f 180/2/3 176/2/3 175/2/3
f 180/1/3 175/1/3 179/1/3
f 181/2/3 176/2/3 180/2/3
f 182/2/3 176/2/3 181/2/3
f 184/5/3 178/5/3 177/5/3
f 185/5/3 178/5/3 184/5/3
f 186/1/3 182/1/3 181/1/3
f 187/1/3 184/1/3 183/1/3
f 188/1/3 184/1/3 187/1/3
f 189/1/3 186/1/3 181/1/3
f 189/1/3 187/1/3 186/1/3
f 190/1/3 187/1/3 189/1/3
f 191/1/3 189/1/3 181/1/3
f 192/2/3 190/2/3 189/2/3
f 192/1/3 189/1/3 191/1/3
f 195/2/3 192/2/3 191/2/3
f 196/2/3 190/2/3 192/2/3
f 196/2/3 192/2/3 195/2/3
f 197/2/3 190/2/3 196/2/3
f 198/2/3 190/2/3 197/2/3
f 199/1/3 194/1/3 193/1/3
f 200/2/3 195/2/3 194/2/3
f 200/1/3 194/1/3 199/1/3
f 200/2/3 196/2/3 195/2/3
f 201/1/3 197/1/3 196/1/3
f 201/2/3 196/2/3 200/2/3
f 202/1/3 197/1/3 201/1/3
f 205/2/3 204/2/3 203/2/3
f 206/2/3 204/2/3 205/2/3
f 208/2/3 205/2/3 203/2/3
f 209/1/3 206/1/3 205/1/3
f 209/2/3 205/2/3 208/2/3
f 210/2/3 207/2/3 206/2/3
f 210/1/3 206/1/3 209/1/3
f 211/2/3 207/2/3 210/2/3
f 212/2/3 209/2/3 208/2/3
f 212/2/3 210/2/3 209/2/3
f 213/2/3 210/2/3 212/2/3
f 214/2/3 210/2/3 213/2/3
f 216/2/3 213/2/3 212/2/3
f 217/2/3 213/2/3 216/2/3
f 218/2/3 215/2/3 214/2/3
f 219/2/3 215/2/3 218/2/3
f 222/1/3 221/1/3 220/1/3
f 223/1/3 221/1/3 222/1/3
f 226/4/3 225/4/3 224/4/3
f 227/4/3 225/4/3 226/4/3
f 230/3/3 229/3/3 228/3/3
f 231/3/3 229/3/3 230/3/3
f 234/2/3 233/2/3 232/2/3
f 235/2/3 233/2/3 234/2/3
f 240/2/3 237/2/3 236/2/3
f 241/2/3 237/2/3 240/2/3
f 242/1/3 241/1/3 240/1/3
f 243/1/3 241/1/3 242/1/3
f 244/4/3 239/4/3 238/4/3
f 245/4/3 239/4/3 244/4/3
f 246/2/3 243/2/3 242/2/3
f 247/2/3 243/2/3 246/2/3
f 251/1/3 247/1/3 246/1/3
f 252/1/3 247/1/3 251/1/3
f 253/1/3 249/1/3 248/1/3
f 254/2/3 250/2/3 249/2/3
f 254/1/3 249/1/3 253/1/3
f 255/2/3 250/2/3 254/2/3
f 261/1/3 257/1/3 256/1/3
f 262/2/3 258/2/3 257/2/3
f 262/1/3 257/1/3 261/1/3
f 263/2/3 258/2/3 262/2/3
f 264/5/3 260/5/3 259/5/3
f 265/5/3 260/5/3 264/5/3
f 269/1/3 267/1/3 266/1/3
f 270/2/3 268/2/3 267/2/3
f 270/1/3 267/1/3 269/1/3
f 271/2/3 268/2/3 270/2/3
f 272/1/4 273/1/4 277/1/4
f 273/2/4 274/2/4 278/2/4
f 277/1/4 273/1/4 278/1/4
f 278/2/4 274/2/4 279/2/4
f 275/5/4 276/5/4 280/5/4
f 280/5/4 276/5/4 281/5/4
f 282/1/4 283/1/4 285/1/4
f 283/2/4 284/2/4 286/2/4
f 285/1/4 283/1/4 286/1/4
f 286/2/4 284/2/4 287/2/4
f 288/4/4 289/4/4 290/4/4
f 290/4/4 289/4/4 291/4/4
f 292/3/4 293/3/4 294/3/4
f 294/3/4 293/3/4 295/3/4
f 296/2/4 297/2/4 298/2/4
f 298/2/4 297/2/4 299/2/4
f 300/2/4 301/2/4 304/2/4
f 304/2/4 301/2/4 305/2/4
f 304/1/4 305/1/4 306/1/4
f 306/1/4 305/1/4 307/1/4
f 302/4/4 303/4/4 308/4/4
f 308/4/4 303/4/4 309/4/4
f 306/2/4 307/2/4 310/2/4
f 310/2/4 307/2/4 311/2/4
f 310/1/4 311/1/4 315/1/4
f 315/1/4 311/1/4 316/1/4
f 312/1/4 313/1/4 317/1/4
f 313/2/4 314/2/4 318/2/4
f 317/1/4 313/1/4 318/1/4
f 318/2/4 314/2/4 319/2/4
f 320/2/4 321/2/4 322/2/4
f 322/2/4 321/2/4 323/2/4
f 320/2/4 322/2/4 325/2/4
f 322/1/4 323/1/4 326/1/4
f 325/2/4 322/2/4 326/2/4
f 323/2/4 324/2/4 327/2/4
f 326/1/4 323/1/4 327/1/4
f 327/2/4 324/2/4 328/2/4
f 325/2/4 326/2/4 329/2/4
f 326/2/4 327/2/4 329/2/4
f 329/2/4 327/2/4 330/2/4
f 325/2/4 329/2/4 332/2/4
f 332/2/4 329/2/4 333/2/4
f 330/2/4 331/2/4 334/2/4
f 334/2/4 331/2/4 335/2/4
f 336/2/4 337/2/4 338/2/4
f 338/2/4 337/2/4 339/2/4
f 340/1/4 341/1/4 345/1/4
f 341/2/4 342/2/4 346/2/4
f 345/1/4 341/1/4 346/1/4
f 346/2/4 342/2/4 347/2/4
f 343/5/4 344/5/4 349/5/4
f 349/5/4 344/5/4 350/5/4
f 347/2/4 342/2/4 351/2/4
f 351/2/4 342/2/4 352/2/4
f 348/1/4 349/1/4 353/1/4
f 353/1/4 349/1/4 354/1/4
f 347/2/4 351/2/4 355/2/4
f 351/1/4 352/1/4 356/1/4
f 355/2/4 351/2/4 356/2/4
f 352/1/4 353/1/4 356/1/4
f 355/1/4 356/1/4 357/1/4
f 356/1/4 353/1/4 358/1/4
f 357/1/4 356/1/4 358/1/4
f 358/1/4 353/1/4 359/1/4
f 359/1/4 353/1/4 360/1/4
f 357/2/4 358/2/4 363/2/4
f 358/1/4 359/1/4 364/1/4
f 363/2/4 358/2/4 364/2/4
f 359/2/4 360/2/4 365/2/4
f 364/1/4 359/1/4 365/1/4
f 365/2/4 360/2/4 366/2/4
f 361/1/4 362/1/4 367/1/4
f 362/2/4 363/2/4 368/2/4
f 367/1/4 362/1/4 368/1/4
f 363/2/4 364/2/4 368/2/4
f 364/2/4 365/2/4 368/2/4
f 368/2/4 365/2/4 369/2/4
f 374/1/5 371/1/5 370/1/5
f 375/1/5 371/1/5 374/1/5
f 376/1/5 373/1/5 372/1/5
f 377/1/5 373/1/5 376/1/5
f 382/1/5 379/1/5 378/1/5
f 383/1/5 379/1/5 382/1/5
f 384/1/5 381/1/5 380/1/5
f 385/1/5 381/1/5 384/1/5
f 388/4/5 387/4/5 386/4/5
f 389/4/5 387/4/5 388/4/5
f 394/1/5 391/1/5 390/1/5
f 395/2/5 392/2/5 391/2/5
f 395/1/5 391/1/5 394/1/5
f 396/2/5 392/2/5 395/2/5
f 398/2/5 394/2/5 393/2/5
f 398/2/5 397/2/5 396/2/5
f 398/2/5 396/2/5 395/2/5
f 398/2/5 395/2/5 394/2/5
f 399/2/5 397/2/5 398/2/5
f 400/2/5 397/2/5 399/2/5
f 402/2/5 398/2/5 393/2/5
f 403/2/5 400/2/5 399/2/5
f 404/1/5 401/1/5 400/1/5
f 404/2/5 400/2/5 403/2/5
f 405/1/5 401/1/5 404/1/5
f 406/2/5 403/2/5 402/2/5
f 406/2/5 402/2/5 393/2/5
f 406/2/5 404/2/5 403/2/5
f 407/2/5 404/2/5 406/2/5
f 408/2/5 404/2/5 407/2/5
f 409/2/5 404/2/5 408/2/5
f 410/2/5 404/2/5 409/2/5
f 411/2/5 404/2/5 410/2/5
f 412/2/5 408/2/5 407/2/5
f 413/1/5 409/1/5 408/1/5
f 413/2/5 408/2/5 412/2/5
f 414/2/5 410/2/5 409/2/5
f 414/1/5 409/1/5 413/1/5
f 415/2/5 410/2/5 414/2/5
f 418/3/5 417/3/5 416/3/5
f 419/3/5 417/3/5 418/3/5
f 423/2/5 421/2/5 420/2/5
f 424/2/5 421/2/5 423/2/5
f 425/2/5 421/2/5 424/2/5
f 426/4/5 423/4/5 422/4/5
f 427/2/5 424/2/5 423/2/5
f 427/4/5 423/4/5 426/4/5
f 428/2/5 424/2/5 427/2/5
f 430/2/5 429/2/5 428/2/5
f 430/2/5 428/2/5 427/2/5
f 431/2/5 429/2/5 430/2/5
f 434/1/5 433/1/5 432/1/5
f 435/1/5 433/1/5 434/1/5
f 438/1/5 437/1/5 436/1/5
f 439/1/5 437/1/5 438/1/5
f 442/5/5 441/5/5 440/5/5
f 443/5/5 441/5/5 442/5/5
f 446/5/5 445/5/5 444/5/5
f 447/5/5 445/5/5 446/5/5
f 448/2/6 449/2/6 453/2/6
f 449/1/6 450/1/6 454/1/6
f 453/2/6 449/2/6 454/2/6
f 454/1/6 450/1/6 455/1/6
f 451/1/6 452/1/6 456/1/6
f 456/1/6 452/1/6 457/1/6
f 458/2/6 459/2/6 460/2/6
f 460/2/6 459/2/6 461/2/6
f 462/2/6 463/2/6 466/2/6
f 466/2/6 463/2/6 467/2/6
f 464/2/6 465/2/6 468/2/6
f 468/2/6 465/2/6 469/2/6
f 470/1/6 471/1/6 473/1/6
f 471/2/6 472/2/6 474/2/6
f 473/1/6 471/1/6 474/1/6
f 474/2/6 472/2/6 475/2/6
f 473/2/6 474/2/6 479/2/6
f 474/2/6 475/2/6 479/2/6
f 479/2/6 475/2/6 480/2/6
f 480/2/6 475/2/6 481/2/6
f 475/1/6 476/1/6 482/1/6
f 481/2/6 475/2/6 482/2/6
f 482/1/6 476/1/6 483/1/6
f 477/4/6 478/4/6 484/4/6
f 484/4/6 478/4/6 485/4/6
f 486/1/6 487/1/6 491/1/6
f 487/1/6 488/1/6 491/1/6
f 489/2/6 490/2/6 492/2/6
f 488/2/6 489/2/6 492/2/6
f 492/2/6 490/2/6 493/2/6
f 491/1/6 488/1/6 494/1/6
f 488/2/6 492/2/6 495/2/6
f 494/1/6 488/1/6 495/1/6
f 495/2/6 492/2/6 496/2/6
f 497/1/6 498/1/6 501/1/6
f 501/1/6 498/1/6 502/1/6
f 499/2/6 500/2/6 503/2/6
f 499/2/6 503/2/6 509/2/6
f 504/2/6 505/2/6 510/2/6
f 505/1/6 506/1/6 511/1/6
f 510/2/6 505/2/6 511/2/6
f 506/2/6 507/2/6 512/2/6
f 511/1/6 506/1/6 512/1/6
f 507/1/6 508/1/6 513/1/6
f 512/2/6 507/2/6 513/2/6
f 513/1/6 508/1/6 514/1/6
f 499/2/6 509/2/6 515/2/6
f 515/2/6 509/2/6 516/2/6
f 517/1/6 518/1/6 519/1/6
f 519/1/6 518/1/6 520/1/6
f 521/2/6 522/2/6 525/2/6
f 523/2/6 524/2/6 525/2/6
f 522/2/6 523/2/6 525/2/6
f 525/2/6 524/2/6 526/2/6
f 526/2/6 524/2/6 527/2/6
f 525/1/6 526/1/6 528/1/6
f 528/1/6 526/1/6 529/1/6
f 527/2/6 524/2/6 530/2/6
f 528/2/6 529/2/6 531/2/6
f 529/2/6 530/2/6 531/2/6
f 531/2/6 530/2/6 532/2/6
f 530/2/6 524/2/6 533/2/6
f 532/2/6 530/2/6 533/2/6
f 533/2/6 524/2/6 534/2/6
f 535/5/6 536/5/6 537/5/6
f 537/5/6 536/5/6 538/5/6
f 539/2/6 540/2/6 541/2/6
f 541/2/6 540/2/6 542/2/6
f 543/5/6 544/5/6 545/5/6
f 545/5/6 544/5/6 546/5/6
