# MagicaVoxel @ Ephtracy

# group
o 

# material
mtllib Horse.mtl
usemtl palette

# normals
vn -1 0 0
vn 1 0 0
vn 0 0 1
vn 0 0 -1
vn 0 -1 0
vn 0 1 0

# texcoords
vt 0.00195313 0.5
vt 0.220703 0.5
vt 0.224609 0.5

# verts
v -0.5 0.1 0.05
v -0.5 0.1 -0.05
v -0.5 0.2 0.05
v -0.5 0.2 -0.05
v -0.4 0.1 0.15
v -0.4 0.1 0.05
v -0.4 0.1 -0.05
v -0.4 0.1 -0.15
v -0.4 0.2 0.05
v -0.4 0.2 -0.05
v -0.4 0.3 0.15
v -0.4 0.3 0.05
v -0.4 0.3 -0.05
v -0.4 0.3 -0.15
v -0.4 0.4 0.05
v -0.4 0.4 -0.05
v -0.3 0.3 0.15
v -0.3 0.3 0.05
v -0.3 0.3 -0.05
v -0.3 0.3 -0.15
v -0.3 0.4 0.15
v -0.3 0.4 0.05
v -0.3 0.4 -0.05
v -0.3 0.4 -0.15
v -0.3 0.5 0.05
v -0.3 0.5 -0.05
v -0.2 -0.5 0.25
v -0.2 -0.5 0.15
v -0.2 -0.5 -0.15
v -0.2 -0.5 -0.25
v -0.2 -0.4 0.25
v -0.2 -0.4 0.15
v -0.2 -0.4 -0.15
v -0.2 -0.4 -0.25
v -0.2 -0.3 0.15
v -0.2 -0.3 -0.15
v -0.2 -0.1 0.25
v -0.2 -0.1 0.15
v -0.2 -0.1 -0.15
v -0.2 -0.1 -0.25
v -0.2 0.1 0.15
v -0.2 0.1 -0.15
v -0.2 0.2 0.25
v -0.2 0.2 0.15
v -0.2 0.2 -0.15
v -0.2 0.2 -0.25
v -0.2 0.3 0.25
v -0.2 0.3 0.15
v -0.2 0.3 -0.15
v -0.2 0.3 -0.25
v -0.1 -0.1 0.25
v -0.1 -0.1 0.15
v -0.1 -0.1 -0.15
v -0.1 -0.1 -0.25
v -0.1 0 0.25
v -0.1 0 0.15
v -0.1 0 -0.15
v -0.1 0 -0.25
v 0.3 -0.5 0.25
v 0.3 -0.5 0.15
v 0.3 -0.5 -0.15
v 0.3 -0.5 -0.25
v 0.3 -0.4 0.25
v 0.3 -0.4 0.15
v 0.3 -0.4 -0.15
v 0.3 -0.4 -0.25
v 0.3 -0.3 0.25
v 0.3 -0.3 0.15
v 0.3 -0.3 -0.15
v 0.3 -0.3 -0.25
v -0.2 0.3 0.15
v -0.2 0.3 0.05
v -0.2 0.3 -0.05
v -0.2 0.3 -0.15
v -0.2 0.4 0.15
v -0.2 0.4 0.05
v -0.2 0.4 -0.05
v -0.2 0.4 -0.15
v -0.2 0.5 0.05
v -0.2 0.5 -0.05
v -0.1 -0.5 0.25
v -0.1 -0.5 0.15
v -0.1 -0.5 -0.15
v -0.1 -0.5 -0.25
v -0.1 -0.4 0.25
v -0.1 -0.4 0.15
v -0.1 -0.4 -0.15
v -0.1 -0.4 -0.25
v -0.1 -0.3 0.25
v -0.1 -0.3 0.15
v -0.1 -0.3 -0.15
v -0.1 -0.3 -0.25
v -0.1 0.2 0.25
v -0.1 0.2 0.15
v -0.1 0.2 0.05
v -0.1 0.2 -0.05
v -0.1 0.2 -0.15
v -0.1 0.2 -0.25
v -0.1 0.3 0.25
v -0.1 0.3 0.15
v -0.1 0.3 0.05
v -0.1 0.3 -0.05
v -0.1 0.3 -0.15
v -0.1 0.3 -0.25
v -0.1 0.4 0.05
v -0.1 0.4 -0.05
v 0 0 0.15
v 0 0 0.05
v 0 0 -0.05
v 0 0 -0.15
v 0 0.1 0.05
v 0 0.1 -0.05
v 0 0.2 0.15
v 0 0.2 0.05
v 0 0.2 -0.05
v 0 0.2 -0.15
v 0 0.3 0.05
v 0 0.3 -0.05
v 0.1 0.1 0.05
v 0.1 0.1 -0.05
v 0.1 0.2 0.05
v 0.1 0.2 -0.05
v 0.3 -0.1 0.25
v 0.3 -0.1 0.15
v 0.3 -0.1 -0.15
v 0.3 -0.1 -0.25
v 0.3 0 0.25
v 0.3 0 0.15
v 0.3 0 0.05
v 0.3 0 -0.05
v 0.3 0 -0.15
v 0.3 0 -0.25
v 0.3 0.1 0.05
v 0.3 0.1 -0.05
v 0.4 -0.5 0.25
v 0.4 -0.5 0.15
v 0.4 -0.5 -0.15
v 0.4 -0.5 -0.25
v 0.4 -0.4 0.25
v 0.4 -0.4 0.15
v 0.4 -0.4 -0.15
v 0.4 -0.4 -0.25
v 0.4 -0.3 0.15
v 0.4 -0.3 0.05
v 0.4 -0.3 -0.05
v 0.4 -0.3 -0.15
v 0.4 -0.1 0.25
v 0.4 -0.1 0.15
v 0.4 -0.1 0.05
v 0.4 -0.1 -0.05
v 0.4 -0.1 -0.15
v 0.4 -0.1 -0.25
v 0.4 0 0.15
v 0.4 0 -0.15
v 0.5 -0.3 0.05
v 0.5 -0.3 -0.05
v 0.5 -0.1 0.05
v 0.5 -0.1 -0.05
v -0.2 -0.5 0.25
v -0.2 -0.4 0.25
v -0.2 -0.1 0.25
v -0.2 0.2 0.25
v -0.2 0.3 0.25
v -0.1 -0.5 0.25
v -0.1 -0.4 0.25
v -0.1 -0.3 0.25
v -0.1 -0.1 0.25
v -0.1 0 0.25
v -0.1 0.2 0.25
v -0.1 0.3 0.25
v 0.3 -0.5 0.25
v 0.3 -0.4 0.25
v 0.3 -0.3 0.25
v 0.3 -0.1 0.25
v 0.3 0 0.25
v 0.4 -0.5 0.25
v 0.4 -0.4 0.25
v 0.4 -0.1 0.25
v -0.4 0.1 0.15
v -0.4 0.3 0.15
v -0.3 0.2 0.15
v -0.3 0.3 0.15
v -0.3 0.4 0.15
v -0.2 -0.1 0.15
v -0.2 0.1 0.15
v -0.2 0.2 0.15
v -0.2 0.3 0.15
v -0.2 0.4 0.15
v -0.1 -0.1 0.15
v -0.1 0 0.15
v -0.1 0.2 0.15
v 0 0 0.15
v 0 0.2 0.15
v 0.3 -0.1 0.15
v 0.3 0 0.15
v 0.4 -0.1 0.15
v 0.4 0 0.15
v -0.5 0.1 0.05
v -0.5 0.2 0.05
v -0.4 0.1 0.05
v -0.4 0.2 0.05
v -0.4 0.3 0.05
v -0.4 0.4 0.05
v -0.3 0.3 0.05
v -0.3 0.4 0.05
v -0.3 0.5 0.05
v -0.2 0.3 0.05
v -0.2 0.4 0.05
v -0.2 0.5 0.05
v -0.1 0.2 0.05
v -0.1 0.3 0.05
v -0.1 0.4 0.05
v 0 0 0.05
v 0 0.1 0.05
v 0 0.2 0.05
v 0 0.3 0.05
v 0.1 0.1 0.05
v 0.1 0.2 0.05
v 0.3 0 0.05
v 0.3 0.1 0.05
v 0.4 -0.3 0.05
v 0.4 -0.1 0.05
v 0.5 -0.3 0.05
v 0.5 -0.1 0.05
v -0.2 -0.5 -0.15
v -0.2 -0.4 -0.15
v -0.2 -0.3 -0.15
v -0.1 -0.5 -0.15
v -0.1 -0.4 -0.15
v -0.1 -0.3 -0.15
v 0.3 -0.5 -0.15
v 0.3 -0.4 -0.15
v 0.3 -0.3 -0.15
v 0.4 -0.5 -0.15
v 0.4 -0.4 -0.15
v 0.4 -0.3 -0.15
v -0.2 -0.5 0.15
v -0.2 -0.4 0.15
v -0.2 -0.3 0.15
v -0.1 -0.5 0.15
v -0.1 -0.4 0.15
v -0.1 -0.3 0.15
v 0.3 -0.5 0.15
v 0.3 -0.4 0.15
v 0.3 -0.3 0.15
v 0.4 -0.5 0.15
v 0.4 -0.4 0.15
v 0.4 -0.3 0.15
v -0.5 0.1 -0.05
v -0.5 0.2 -0.05
v -0.4 0.1 -0.05
v -0.4 0.2 -0.05
v -0.4 0.3 -0.05
v -0.4 0.4 -0.05
v -0.3 0.3 -0.05
v -0.3 0.4 -0.05
v -0.3 0.5 -0.05
v -0.2 0.3 -0.05
v -0.2 0.4 -0.05
v -0.2 0.5 -0.05
v -0.1 0.2 -0.05
v -0.1 0.3 -0.05
v -0.1 0.4 -0.05
v 0 0 -0.05
v 0 0.1 -0.05
v 0 0.2 -0.05
v 0 0.3 -0.05
v 0.1 0.1 -0.05
v 0.1 0.2 -0.05
v 0.3 0 -0.05
v 0.3 0.1 -0.05
v 0.4 -0.3 -0.05
v 0.4 -0.1 -0.05
v 0.5 -0.3 -0.05
v 0.5 -0.1 -0.05
v -0.4 0.1 -0.15
v -0.4 0.3 -0.15
v -0.3 0.2 -0.15
v -0.3 0.3 -0.15
v -0.3 0.4 -0.15
v -0.2 -0.1 -0.15
v -0.2 0.1 -0.15
v -0.2 0.2 -0.15
v -0.2 0.3 -0.15
v -0.2 0.4 -0.15
v -0.1 -0.1 -0.15
v -0.1 0 -0.15
v -0.1 0.2 -0.15
v 0 0 -0.15
v 0 0.2 -0.15
v 0.3 -0.1 -0.15
v 0.3 0 -0.15
v 0.4 -0.1 -0.15
v 0.4 0 -0.15
v -0.2 -0.5 -0.25
v -0.2 -0.4 -0.25
v -0.2 -0.1 -0.25
v -0.2 0.2 -0.25
v -0.2 0.3 -0.25
v -0.1 -0.5 -0.25
v -0.1 -0.4 -0.25
v -0.1 -0.3 -0.25
v -0.1 -0.1 -0.25
v -0.1 0 -0.25
v -0.1 0.2 -0.25
v -0.1 0.3 -0.25
v 0.3 -0.5 -0.25
v 0.3 -0.4 -0.25
v 0.3 -0.3 -0.25
v 0.3 -0.1 -0.25
v 0.3 0 -0.25
v 0.4 -0.5 -0.25
v 0.4 -0.4 -0.25
v 0.4 -0.1 -0.25
v -0.2 -0.5 0.25
v -0.1 -0.5 0.25
v 0.3 -0.5 0.25
v 0.4 -0.5 0.25
v -0.2 -0.5 0.15
v -0.1 -0.5 0.15
v 0.3 -0.5 0.15
v 0.4 -0.5 0.15
v -0.2 -0.5 -0.15
v -0.1 -0.5 -0.15
v 0.3 -0.5 -0.15
v 0.4 -0.5 -0.15
v -0.2 -0.5 -0.25
v -0.1 -0.5 -0.25
v 0.3 -0.5 -0.25
v 0.4 -0.5 -0.25
v -0.1 -0.3 0.25
v 0.3 -0.3 0.25
v -0.2 -0.3 0.15
v -0.1 -0.3 0.15
v 0.3 -0.3 0.15
v 0.4 -0.3 0.15
v 0.4 -0.3 0.05
v 0.5 -0.3 0.05
v 0.4 -0.3 -0.05
v 0.5 -0.3 -0.05
v -0.2 -0.3 -0.15
v -0.1 -0.3 -0.15
v 0.3 -0.3 -0.15
v 0.4 -0.3 -0.15
v -0.1 -0.3 -0.25
v 0.3 -0.3 -0.25
v -0.4 0.1 0.15
v -0.2 0.1 0.15
v -0.5 0.1 0.05
v -0.4 0.1 0.05
v -0.5 0.1 -0.05
v -0.4 0.1 -0.05
v -0.4 0.1 -0.15
v -0.2 0.1 -0.15
v -0.2 0.2 0.25
v -0.1 0.2 0.25
v -0.2 0.2 0.15
v -0.1 0.2 0.15
v -0.2 0.2 -0.15
v -0.1 0.2 -0.15
v -0.2 0.2 -0.25
v -0.1 0.2 -0.25
v -0.2 -0.1 0.25
v -0.1 -0.1 0.25
v 0.3 -0.1 0.25
v 0.4 -0.1 0.25
v -0.2 -0.1 0.15
v -0.1 -0.1 0.15
v 0.3 -0.1 0.15
v 0.4 -0.1 0.15
v 0.4 -0.1 0.05
v 0.5 -0.1 0.05
v 0.4 -0.1 -0.05
v 0.5 -0.1 -0.05
v -0.2 -0.1 -0.15
v -0.1 -0.1 -0.15
v 0.3 -0.1 -0.15
v 0.4 -0.1 -0.15
v -0.2 -0.1 -0.25
v -0.1 -0.1 -0.25
v 0.3 -0.1 -0.25
v 0.4 -0.1 -0.25
v -0.1 0 0.25
v 0.3 0 0.25
v -0.1 0 0.15
v 0 0 0.15
v 0.3 0 0.15
v 0.4 0 0.15
v 0 0 0.05
v 0.3 0 0.05
v 0 0 -0.05
v 0.3 0 -0.05
v -0.1 0 -0.15
v 0 0 -0.15
v 0.3 0 -0.15
v 0.4 0 -0.15
v -0.1 0 -0.25
v 0.3 0 -0.25
v 0.1 0.1 0.05
v 0.3 0.1 0.05
v 0.1 0.1 -0.05
v 0.3 0.1 -0.05
v -0.1 0.2 0.15
v 0 0.2 0.15
v -0.5 0.2 0.05
v -0.4 0.2 0.05
v -0.1 0.2 0.05
v 0 0.2 0.05
v 0.1 0.2 0.05
v -0.5 0.2 -0.05
v -0.4 0.2 -0.05
v -0.1 0.2 -0.05
v 0 0.2 -0.05
v 0.1 0.2 -0.05
v -0.1 0.2 -0.15
v 0 0.2 -0.15
v -0.2 0.3 0.25
v -0.1 0.3 0.25
v -0.4 0.3 0.15
v -0.3 0.3 0.15
v -0.2 0.3 0.15
v -0.1 0.3 0.15
v -0.4 0.3 0.05
v -0.3 0.3 0.05
v -0.2 0.3 0.05
v -0.1 0.3 0.05
v 0 0.3 0.05
v -0.4 0.3 -0.05
v -0.3 0.3 -0.05
v -0.2 0.3 -0.05
v -0.1 0.3 -0.05
v 0 0.3 -0.05
v -0.4 0.3 -0.15
v -0.3 0.3 -0.15
v -0.2 0.3 -0.15
v -0.1 0.3 -0.15
v -0.2 0.3 -0.25
v -0.1 0.3 -0.25
v -0.3 0.4 0.15
v -0.2 0.4 0.15
v -0.4 0.4 0.05
v -0.3 0.4 0.05
v -0.2 0.4 0.05
v -0.1 0.4 0.05
v -0.4 0.4 -0.05
v -0.3 0.4 -0.05
v -0.2 0.4 -0.05
v -0.1 0.4 -0.05
v -0.3 0.4 -0.15
v -0.2 0.4 -0.15
v -0.3 0.5 0.05
v -0.2 0.5 0.05
v -0.3 0.5 -0.05
v -0.2 0.5 -0.05

# faces
f 3/2/1 2/2/1 1/2/1
f 4/2/1 2/2/1 3/2/1
f 9/3/1 6/3/1 5/3/1
f 10/3/1 8/3/1 7/3/1
f 11/3/1 9/3/1 5/3/1
f 11/3/1 10/3/1 9/3/1
f 12/3/1 10/3/1 11/3/1
f 13/3/1 8/3/1 10/3/1
f 13/3/1 10/3/1 12/3/1
f 14/3/1 8/3/1 13/3/1
f 15/3/1 13/3/1 12/3/1
f 16/3/1 13/3/1 15/3/1
f 21/3/1 18/3/1 17/3/1
f 22/3/1 18/3/1 21/3/1
f 23/3/1 20/3/1 19/3/1
f 24/3/1 20/3/1 23/3/1
f 25/1/1 23/1/1 22/1/1
f 26/1/1 23/1/1 25/1/1
f 31/1/1 28/1/1 27/1/1
f 32/1/1 28/1/1 31/1/1
f 33/1/1 30/1/1 29/1/1
f 34/1/1 30/1/1 33/1/1
f 35/3/1 32/3/1 31/3/1
f 36/3/1 34/3/1 33/3/1
f 37/3/1 35/3/1 31/3/1
f 37/3/1 36/3/1 35/3/1
f 38/3/1 36/3/1 37/3/1
f 39/3/1 34/3/1 36/3/1
f 39/3/1 36/3/1 38/3/1
f 40/3/1 34/3/1 39/3/1
f 41/3/1 39/3/1 38/3/1
f 42/3/1 39/3/1 41/3/1
f 47/2/1 44/2/1 43/2/1
f 48/2/1 44/2/1 47/2/1
f 49/2/1 46/2/1 45/2/1
f 50/2/1 46/2/1 49/2/1
f 55/3/1 52/3/1 51/3/1
f 56/3/1 52/3/1 55/3/1
f 57/3/1 54/3/1 53/3/1
f 58/3/1 54/3/1 57/3/1
f 63/1/1 60/1/1 59/1/1
f 64/1/1 60/1/1 63/1/1
f 65/1/1 62/1/1 61/1/1
f 66/1/1 62/1/1 65/1/1
f 67/3/1 64/3/1 63/3/1
f 68/3/1 64/3/1 67/3/1
f 69/3/1 66/3/1 65/3/1
f 70/3/1 66/3/1 69/3/1
f 71/3/2 72/3/2 75/3/2
f 75/3/2 72/3/2 76/3/2
f 73/3/2 74/3/2 77/3/2
f 77/3/2 74/3/2 78/3/2
f 76/1/2 77/1/2 79/1/2
f 79/1/2 77/1/2 80/1/2
f 81/1/2 82/1/2 85/1/2
f 85/1/2 82/1/2 86/1/2
f 83/1/2 84/1/2 87/1/2
f 87/1/2 84/1/2 88/1/2
f 85/3/2 86/3/2 89/3/2
f 89/3/2 86/3/2 90/3/2
f 87/3/2 88/3/2 91/3/2
f 91/3/2 88/3/2 92/3/2
f 93/2/2 94/2/2 99/2/2
f 94/3/2 95/3/2 100/3/2
f 99/2/2 94/2/2 100/2/2
f 100/3/2 95/3/2 101/3/2
f 96/3/2 97/3/2 102/3/2
f 97/2/2 98/2/2 103/2/2
f 102/3/2 97/3/2 103/3/2
f 103/2/2 98/2/2 104/2/2
f 101/1/2 102/1/2 105/1/2
f 105/1/2 102/1/2 106/1/2
f 107/3/2 108/3/2 111/3/2
f 109/3/2 110/3/2 112/3/2
f 107/3/2 111/3/2 113/3/2
f 113/3/2 111/3/2 114/3/2
f 112/3/2 110/3/2 115/3/2
f 115/3/2 110/3/2 116/3/2
f 114/1/2 115/1/2 117/1/2
f 117/1/2 115/1/2 118/1/2
f 119/1/2 120/1/2 121/1/2
f 121/1/2 120/1/2 122/1/2
f 123/3/2 124/3/2 127/3/2
f 127/3/2 124/3/2 128/3/2
f 125/3/2 126/3/2 131/3/2
f 131/3/2 126/3/2 132/3/2
f 129/3/2 130/3/2 133/3/2
f 133/3/2 130/3/2 134/3/2
f 135/1/2 136/1/2 139/1/2
f 139/1/2 136/1/2 140/1/2
f 137/1/2 138/1/2 141/1/2
f 141/1/2 138/1/2 142/1/2
f 139/3/2 140/3/2 143/3/2
f 141/3/2 142/3/2 146/3/2
f 143/3/2 144/3/2 147/3/2
f 139/3/2 143/3/2 147/3/2
f 147/3/2 144/3/2 148/3/2
f 148/3/2 144/3/2 149/3/2
f 145/3/2 146/3/2 150/3/2
f 146/3/2 142/3/2 151/3/2
f 150/3/2 146/3/2 151/3/2
f 151/3/2 142/3/2 152/3/2
f 148/3/2 149/3/2 153/3/2
f 149/3/2 150/3/2 153/3/2
f 150/3/2 151/3/2 153/3/2
f 153/3/2 151/3/2 154/3/2
f 155/1/2 156/1/2 157/1/2
f 157/1/2 156/1/2 158/1/2
f 164/1/3 160/1/3 159/1/3
f 165/3/3 161/3/3 160/3/3
f 165/1/3 160/1/3 164/1/3
f 166/3/3 161/3/3 165/3/3
f 167/3/3 161/3/3 166/3/3
f 169/2/3 163/2/3 162/2/3
f 170/2/3 163/2/3 169/2/3
f 173/3/3 168/3/3 167/3/3
f 173/3/3 167/3/3 166/3/3
f 174/3/3 168/3/3 173/3/3
f 175/3/3 168/3/3 174/3/3
f 176/1/3 172/1/3 171/1/3
f 177/3/3 173/3/3 172/3/3
f 177/1/3 172/1/3 176/1/3
f 177/3/3 174/3/3 173/3/3
f 178/3/3 174/3/3 177/3/3
f 181/3/3 180/3/3 179/3/3
f 182/3/3 180/3/3 181/3/3
f 185/3/3 181/3/3 179/3/3
f 186/1/3 182/1/3 181/1/3
f 186/3/3 181/3/3 185/3/3
f 187/3/3 183/3/3 182/3/3
f 187/1/3 182/1/3 186/1/3
f 188/3/3 183/3/3 187/3/3
f 189/3/3 186/3/3 185/3/3
f 189/3/3 185/3/3 184/3/3
f 190/3/3 186/3/3 189/3/3
f 191/3/3 186/3/3 190/3/3
f 192/3/3 191/3/3 190/3/3
f 193/3/3 191/3/3 192/3/3
f 196/3/3 195/3/3 194/3/3
f 197/3/3 195/3/3 196/3/3
f 200/2/3 199/2/3 198/2/3
f 201/2/3 199/2/3 200/2/3
f 204/3/3 203/3/3 202/3/3
f 205/3/3 203/3/3 204/3/3
f 208/1/3 206/1/3 205/1/3
f 209/1/3 206/1/3 208/1/3
f 211/1/3 208/1/3 207/1/3
f 212/1/3 208/1/3 211/1/3
f 215/1/3 211/1/3 210/1/3
f 216/1/3 211/1/3 215/1/3
f 217/3/3 214/3/3 213/3/3
f 217/1/3 215/1/3 214/1/3
f 218/1/3 215/1/3 217/1/3
f 219/3/3 217/3/3 213/3/3
f 220/3/3 217/3/3 219/3/3
f 223/1/3 222/1/3 221/1/3
f 224/1/3 222/1/3 223/1/3
f 228/1/3 226/1/3 225/1/3
f 229/3/3 227/3/3 226/3/3
f 229/1/3 226/1/3 228/1/3
f 230/3/3 227/3/3 229/3/3
f 234/1/3 232/1/3 231/1/3
f 235/3/3 233/3/3 232/3/3
f 235/1/3 232/1/3 234/1/3
f 236/3/3 233/3/3 235/3/3
f 237/1/4 238/1/4 240/1/4
f 238/3/4 239/3/4 241/3/4
f 240/1/4 238/1/4 241/1/4
f 241/3/4 239/3/4 242/3/4
f 243/1/4 244/1/4 246/1/4
f 244/3/4 245/3/4 247/3/4
f 246/1/4 244/1/4 247/1/4
f 247/3/4 245/3/4 248/3/4
f 249/2/4 250/2/4 251/2/4
f 251/2/4 250/2/4 252/2/4
f 253/3/4 254/3/4 255/3/4
f 255/3/4 254/3/4 256/3/4
f 256/1/4 257/1/4 259/1/4
f 259/1/4 257/1/4 260/1/4
f 258/1/4 259/1/4 262/1/4
f 262/1/4 259/1/4 263/1/4
f 261/1/4 262/1/4 266/1/4
f 266/1/4 262/1/4 267/1/4
f 264/3/4 265/3/4 268/3/4
f 265/1/4 266/1/4 268/1/4
f 268/1/4 266/1/4 269/1/4
f 264/3/4 268/3/4 270/3/4
f 270/3/4 268/3/4 271/3/4
f 272/1/4 273/1/4 274/1/4
f 274/1/4 273/1/4 275/1/4
f 276/3/4 277/3/4 278/3/4
f 278/3/4 277/3/4 279/3/4
f 276/3/4 278/3/4 282/3/4
f 278/1/4 279/1/4 283/1/4
f 282/3/4 278/3/4 283/3/4
f 279/3/4 280/3/4 284/3/4
f 283/1/4 279/1/4 284/1/4
f 284/3/4 280/3/4 285/3/4
f 282/3/4 283/3/4 286/3/4
f 281/3/4 282/3/4 286/3/4
f 286/3/4 283/3/4 287/3/4
f 287/3/4 283/3/4 288/3/4
f 287/3/4 288/3/4 289/3/4
f 289/3/4 288/3/4 290/3/4
f 291/3/4 292/3/4 293/3/4
f 293/3/4 292/3/4 294/3/4
f 295/1/4 296/1/4 300/1/4
f 296/3/4 297/3/4 301/3/4
f 300/1/4 296/1/4 301/1/4
f 301/3/4 297/3/4 302/3/4
f 302/3/4 297/3/4 303/3/4
f 298/2/4 299/2/4 305/2/4
f 305/2/4 299/2/4 306/2/4
f 303/3/4 304/3/4 309/3/4
f 302/3/4 303/3/4 309/3/4
f 309/3/4 304/3/4 310/3/4
f 310/3/4 304/3/4 311/3/4
f 307/1/4 308/1/4 312/1/4
f 308/3/4 309/3/4 313/3/4
f 312/1/4 308/1/4 313/1/4
f 309/3/4 310/3/4 313/3/4
f 313/3/4 310/3/4 314/3/4
f 319/1/5 316/1/5 315/1/5
f 320/1/5 316/1/5 319/1/5
f 321/1/5 318/1/5 317/1/5
f 322/1/5 318/1/5 321/1/5
f 327/1/5 324/1/5 323/1/5
f 328/1/5 324/1/5 327/1/5
f 329/1/5 326/1/5 325/1/5
f 330/1/5 326/1/5 329/1/5
f 334/3/5 332/3/5 331/3/5
f 335/3/5 332/3/5 334/3/5
f 337/3/5 334/3/5 333/3/5
f 337/3/5 336/3/5 335/3/5
f 337/3/5 335/3/5 334/3/5
f 339/3/5 337/3/5 333/3/5
f 339/1/5 338/1/5 337/1/5
f 340/1/5 338/1/5 339/1/5
f 341/3/5 339/3/5 333/3/5
f 342/3/5 339/3/5 341/3/5
f 343/3/5 339/3/5 342/3/5
f 344/3/5 339/3/5 343/3/5
f 345/3/5 343/3/5 342/3/5
f 346/3/5 343/3/5 345/3/5
f 350/3/5 348/3/5 347/3/5
f 351/2/5 350/2/5 349/2/5
f 352/3/5 348/3/5 350/3/5
f 352/2/5 350/2/5 351/2/5
f 353/3/5 348/3/5 352/3/5
f 354/3/5 348/3/5 353/3/5
f 357/2/5 356/2/5 355/2/5
f 358/2/5 356/2/5 357/2/5
f 361/2/5 360/2/5 359/2/5
f 362/2/5 360/2/5 361/2/5
f 363/3/6 364/3/6 367/3/6
f 367/3/6 364/3/6 368/3/6
f 365/3/6 366/3/6 369/3/6
f 369/3/6 366/3/6 370/3/6
f 371/1/6 372/1/6 373/1/6
f 373/1/6 372/1/6 374/1/6
f 375/3/6 376/3/6 379/3/6
f 379/3/6 376/3/6 380/3/6
f 377/3/6 378/3/6 381/3/6
f 381/3/6 378/3/6 382/3/6
f 383/3/6 384/3/6 385/3/6
f 385/3/6 384/3/6 386/3/6
f 386/3/6 384/3/6 387/3/6
f 387/3/6 388/3/6 389/3/6
f 386/3/6 387/3/6 389/3/6
f 389/3/6 388/3/6 390/3/6
f 390/3/6 388/3/6 392/3/6
f 391/3/6 392/3/6 394/3/6
f 392/3/6 388/3/6 395/3/6
f 394/3/6 392/3/6 395/3/6
f 395/3/6 388/3/6 396/3/6
f 393/3/6 394/3/6 397/3/6
f 394/3/6 395/3/6 397/3/6
f 397/3/6 395/3/6 398/3/6
f 399/3/6 400/3/6 401/3/6
f 401/3/6 400/3/6 402/3/6
f 403/3/6 404/3/6 407/3/6
f 407/3/6 404/3/6 408/3/6
f 405/2/6 406/2/6 410/2/6
f 410/2/6 406/2/6 411/2/6
f 408/1/6 409/1/6 413/1/6
f 413/1/6 409/1/6 414/1/6
f 412/3/6 413/3/6 415/3/6
f 415/3/6 413/3/6 416/3/6
f 417/2/6 418/2/6 421/2/6
f 421/2/6 418/2/6 422/2/6
f 419/3/6 420/3/6 423/3/6
f 423/3/6 420/3/6 424/3/6
f 421/3/6 422/3/6 425/3/6
f 425/3/6 422/3/6 426/3/6
f 426/1/6 427/1/6 431/1/6
f 431/1/6 427/1/6 432/1/6
f 428/3/6 429/3/6 433/3/6
f 433/3/6 429/3/6 434/3/6
f 430/3/6 431/3/6 435/3/6
f 435/3/6 431/3/6 436/3/6
f 435/2/6 436/2/6 437/2/6
f 437/2/6 436/2/6 438/2/6
f 439/3/6 440/3/6 442/3/6
f 442/3/6 440/3/6 443/3/6
f 441/3/6 442/3/6 445/3/6
f 445/3/6 442/3/6 446/3/6
f 443/1/6 444/1/6 447/1/6
f 447/1/6 444/1/6 448/1/6
f 446/3/6 447/3/6 449/3/6
f 449/3/6 447/3/6 450/3/6
f 451/1/6 452/1/6 453/1/6
f 453/1/6 452/1/6 454/1/6
