# MagicaVoxel @ Ephtracy

# group
o 

# material
mtllib Beet 2.mtl
usemtl palette

# normals
vn -1 0 0
vn 1 0 0
vn 0 0 1
vn 0 0 -1
vn 0 -1 0
vn 0 1 0

# texcoords
vt 0.0683594 0.5
vt 0.193359 0.5
vt 0.220703 0.5
vt 0.224609 0.5

# verts
v -0.45 -0.5 0.45
v -0.45 -0.5 -0.45
v -0.45 -0.4 0.45
v -0.45 -0.4 -0.45
v -0.35 -0.4 0.35
v -0.35 -0.4 -0.35
v -0.35 -0.3 0.35
v -0.35 -0.3 0.25
v -0.35 -0.3 0.15
v -0.35 -0.3 -0.15
v -0.35 -0.3 -0.25
v -0.35 -0.3 -0.35
v -0.35 -0.2 0.25
v -0.35 -0.2 0.15
v -0.35 -0.2 -0.15
v -0.35 -0.2 -0.25
v -0.35 -0.1 0.25
v -0.35 -0.1 0.15
v -0.35 -0.1 -0.15
v -0.35 -0.1 -0.25
v -0.05 -0.4 0.35
v -0.05 -0.4 -0.35
v -0.05 -0.3 0.35
v -0.05 -0.3 -0.35
v 0.25 -0.4 0.35
v 0.25 -0.4 -0.35
v 0.25 -0.3 0.35
v 0.25 -0.3 0.25
v 0.25 -0.3 0.15
v 0.25 -0.3 -0.15
v 0.25 -0.3 -0.25
v 0.25 -0.3 -0.35
v 0.25 -0.2 0.25
v 0.25 -0.2 0.15
v 0.25 -0.2 -0.15
v 0.25 -0.2 -0.25
v 0.25 -0.1 0.25
v 0.25 -0.1 0.15
v 0.25 -0.1 -0.15
v 0.25 -0.1 -0.25
v -0.25 -0.4 0.35
v -0.25 -0.4 -0.35
v -0.25 -0.3 0.35
v -0.25 -0.3 0.25
v -0.25 -0.3 0.15
v -0.25 -0.3 -0.15
v -0.25 -0.3 -0.25
v -0.25 -0.3 -0.35
v -0.25 -0.2 0.25
v -0.25 -0.2 0.15
v -0.25 -0.2 -0.15
v -0.25 -0.2 -0.25
v -0.25 -0.1 0.25
v -0.25 -0.1 0.15
v -0.25 -0.1 -0.15
v -0.25 -0.1 -0.25
v 0.05 -0.4 0.35
v 0.05 -0.4 -0.35
v 0.05 -0.3 0.35
v 0.05 -0.3 -0.35
v 0.35 -0.4 0.35
v 0.35 -0.4 -0.35
v 0.35 -0.3 0.35
v 0.35 -0.3 0.25
v 0.35 -0.3 0.15
v 0.35 -0.3 -0.15
v 0.35 -0.3 -0.25
v 0.35 -0.3 -0.35
v 0.35 -0.2 0.25
v 0.35 -0.2 0.15
v 0.35 -0.2 -0.15
v 0.35 -0.2 -0.25
v 0.35 -0.1 0.25
v 0.35 -0.1 0.15
v 0.35 -0.1 -0.15
v 0.35 -0.1 -0.25
v 0.45 -0.5 0.45
v 0.45 -0.5 -0.45
v 0.45 -0.4 0.45
v 0.45 -0.4 -0.45
v -0.45 -0.5 0.45
v -0.45 -0.4 0.45
v 0.45 -0.5 0.45
v 0.45 -0.4 0.45
v -0.35 -0.4 0.35
v -0.35 -0.3 0.35
v -0.25 -0.4 0.35
v -0.25 -0.3 0.35
v -0.05 -0.4 0.35
v -0.05 -0.3 0.35
v 0.05 -0.4 0.35
v 0.05 -0.3 0.35
v 0.25 -0.4 0.35
v 0.25 -0.3 0.35
v 0.35 -0.4 0.35
v 0.35 -0.3 0.35
v -0.35 -0.3 0.25
v -0.35 -0.2 0.25
v -0.35 -0.1 0.25
v -0.25 -0.3 0.25
v -0.25 -0.2 0.25
v -0.25 -0.1 0.25
v 0.25 -0.3 0.25
v 0.25 -0.2 0.25
v 0.25 -0.1 0.25
v 0.35 -0.3 0.25
v 0.35 -0.2 0.25
v 0.35 -0.1 0.25
v -0.35 -0.3 -0.15
v -0.35 -0.2 -0.15
v -0.35 -0.1 -0.15
v -0.25 -0.3 -0.15
v -0.25 -0.2 -0.15
v -0.25 -0.1 -0.15
v 0.25 -0.3 -0.15
v 0.25 -0.2 -0.15
v 0.25 -0.1 -0.15
v 0.35 -0.3 -0.15
v 0.35 -0.2 -0.15
v 0.35 -0.1 -0.15
v -0.35 -0.3 0.15
v -0.35 -0.2 0.15
v -0.35 -0.1 0.15
v -0.25 -0.3 0.15
v -0.25 -0.2 0.15
v -0.25 -0.1 0.15
v 0.25 -0.3 0.15
v 0.25 -0.2 0.15
v 0.25 -0.1 0.15
v 0.35 -0.3 0.15
v 0.35 -0.2 0.15
v 0.35 -0.1 0.15
v -0.35 -0.3 -0.25
v -0.35 -0.2 -0.25
v -0.35 -0.1 -0.25
v -0.25 -0.3 -0.25
v -0.25 -0.2 -0.25
v -0.25 -0.1 -0.25
v 0.25 -0.3 -0.25
v 0.25 -0.2 -0.25
v 0.25 -0.1 -0.25
v 0.35 -0.3 -0.25
v 0.35 -0.2 -0.25
v 0.35 -0.1 -0.25
v -0.35 -0.4 -0.35
v -0.35 -0.3 -0.35
v -0.25 -0.4 -0.35
v -0.25 -0.3 -0.35
v -0.05 -0.4 -0.35
v -0.05 -0.3 -0.35
v 0.05 -0.4 -0.35
v 0.05 -0.3 -0.35
v 0.25 -0.4 -0.35
v 0.25 -0.3 -0.35
v 0.35 -0.4 -0.35
v 0.35 -0.3 -0.35
v -0.45 -0.5 -0.45
v -0.45 -0.4 -0.45
v 0.45 -0.5 -0.45
v 0.45 -0.4 -0.45
v -0.45 -0.5 0.45
v 0.45 -0.5 0.45
v -0.45 -0.5 -0.45
v 0.45 -0.5 -0.45
v -0.45 -0.4 0.45
v 0.45 -0.4 0.45
v -0.35 -0.4 0.35
v -0.25 -0.4 0.35
v -0.05 -0.4 0.35
v 0.05 -0.4 0.35
v 0.25 -0.4 0.35
v 0.35 -0.4 0.35
v -0.35 -0.4 -0.35
v -0.25 -0.4 -0.35
v -0.05 -0.4 -0.35
v 0.05 -0.4 -0.35
v 0.25 -0.4 -0.35
v 0.35 -0.4 -0.35
v -0.45 -0.4 -0.45
v 0.45 -0.4 -0.45
v -0.35 -0.3 0.35
v -0.25 -0.3 0.35
v -0.05 -0.3 0.35
v 0.05 -0.3 0.35
v 0.25 -0.3 0.35
v 0.35 -0.3 0.35
v -0.35 -0.3 0.25
v -0.25 -0.3 0.25
v 0.25 -0.3 0.25
v 0.35 -0.3 0.25
v -0.35 -0.3 0.15
v -0.25 -0.3 0.15
v 0.25 -0.3 0.15
v 0.35 -0.3 0.15
v -0.35 -0.3 -0.15
v -0.25 -0.3 -0.15
v 0.25 -0.3 -0.15
v 0.35 -0.3 -0.15
v -0.35 -0.3 -0.25
v -0.25 -0.3 -0.25
v 0.25 -0.3 -0.25
v 0.35 -0.3 -0.25
v -0.35 -0.3 -0.35
v -0.25 -0.3 -0.35
v -0.05 -0.3 -0.35
v 0.05 -0.3 -0.35
v 0.25 -0.3 -0.35
v 0.35 -0.3 -0.35
v -0.35 -0.1 0.25
v -0.25 -0.1 0.25
v 0.25 -0.1 0.25
v 0.35 -0.1 0.25
v -0.35 -0.1 0.15
v -0.25 -0.1 0.15
v 0.25 -0.1 0.15
v 0.35 -0.1 0.15
v -0.35 -0.1 -0.15
v -0.25 -0.1 -0.15
v 0.25 -0.1 -0.15
v 0.35 -0.1 -0.15
v -0.35 -0.1 -0.25
v -0.25 -0.1 -0.25
v 0.25 -0.1 -0.25
v 0.35 -0.1 -0.25

# faces
f 3/3/1 2/3/1 1/3/1
f 4/3/1 2/3/1 3/3/1
f 7/4/1 6/4/1 5/4/1
f 8/4/1 6/4/1 7/4/1
f 9/4/1 6/4/1 8/4/1
f 10/4/1 6/4/1 9/4/1
f 11/4/1 6/4/1 10/4/1
f 12/4/1 6/4/1 11/4/1
f 13/2/1 9/2/1 8/2/1
f 14/2/1 9/2/1 13/2/1
f 15/2/1 11/2/1 10/2/1
f 16/2/1 11/2/1 15/2/1
f 17/1/1 14/1/1 13/1/1
f 18/1/1 14/1/1 17/1/1
f 19/1/1 16/1/1 15/1/1
f 20/1/1 16/1/1 19/1/1
f 23/4/1 22/4/1 21/4/1
f 24/4/1 22/4/1 23/4/1
f 27/4/1 26/4/1 25/4/1
f 28/4/1 26/4/1 27/4/1
f 29/4/1 26/4/1 28/4/1
f 30/4/1 26/4/1 29/4/1
f 31/4/1 26/4/1 30/4/1
f 32/4/1 26/4/1 31/4/1
f 33/2/1 29/2/1 28/2/1
f 34/2/1 29/2/1 33/2/1
f 35/2/1 31/2/1 30/2/1
f 36/2/1 31/2/1 35/2/1
f 37/1/1 34/1/1 33/1/1
f 38/1/1 34/1/1 37/1/1
f 39/1/1 36/1/1 35/1/1
f 40/1/1 36/1/1 39/1/1
f 41/4/2 42/4/2 43/4/2
f 43/4/2 42/4/2 44/4/2
f 44/4/2 42/4/2 45/4/2
f 45/4/2 42/4/2 46/4/2
f 46/4/2 42/4/2 47/4/2
f 47/4/2 42/4/2 48/4/2
f 44/2/2 45/2/2 49/2/2
f 49/2/2 45/2/2 50/2/2
f 46/2/2 47/2/2 51/2/2
f 51/2/2 47/2/2 52/2/2
f 49/1/2 50/1/2 53/1/2
f 53/1/2 50/1/2 54/1/2
f 51/1/2 52/1/2 55/1/2
f 55/1/2 52/1/2 56/1/2
f 57/4/2 58/4/2 59/4/2
f 59/4/2 58/4/2 60/4/2
f 61/4/2 62/4/2 63/4/2
f 63/4/2 62/4/2 64/4/2
f 64/4/2 62/4/2 65/4/2
f 65/4/2 62/4/2 66/4/2
f 66/4/2 62/4/2 67/4/2
f 67/4/2 62/4/2 68/4/2
f 64/2/2 65/2/2 69/2/2
f 69/2/2 65/2/2 70/2/2
f 66/2/2 67/2/2 71/2/2
f 71/2/2 67/2/2 72/2/2
f 69/1/2 70/1/2 73/1/2
f 73/1/2 70/1/2 74/1/2
f 71/1/2 72/1/2 75/1/2
f 75/1/2 72/1/2 76/1/2
f 77/3/2 78/3/2 79/3/2
f 79/3/2 78/3/2 80/3/2
f 83/3/3 82/3/3 81/3/3
f 84/3/3 82/3/3 83/3/3
f 87/4/3 86/4/3 85/4/3
f 88/4/3 86/4/3 87/4/3
f 91/4/3 90/4/3 89/4/3
f 92/4/3 90/4/3 91/4/3
f 95/4/3 94/4/3 93/4/3
f 96/4/3 94/4/3 95/4/3
f 100/2/3 98/2/3 97/2/3
f 101/1/3 99/1/3 98/1/3
f 101/2/3 98/2/3 100/2/3
f 102/1/3 99/1/3 101/1/3
f 106/2/3 104/2/3 103/2/3
f 107/1/3 105/1/3 104/1/3
f 107/2/3 104/2/3 106/2/3
f 108/1/3 105/1/3 107/1/3
f 112/2/3 110/2/3 109/2/3
f 113/1/3 111/1/3 110/1/3
f 113/2/3 110/2/3 112/2/3
f 114/1/3 111/1/3 113/1/3
f 118/2/3 116/2/3 115/2/3
f 119/1/3 117/1/3 116/1/3
f 119/2/3 116/2/3 118/2/3
f 120/1/3 117/1/3 119/1/3
f 121/2/4 122/2/4 124/2/4
f 122/1/4 123/1/4 125/1/4
f 124/2/4 122/2/4 125/2/4
f 125/1/4 123/1/4 126/1/4
f 127/2/4 128/2/4 130/2/4
f 128/1/4 129/1/4 131/1/4
f 130/2/4 128/2/4 131/2/4
f 131/1/4 129/1/4 132/1/4
f 133/2/4 134/2/4 136/2/4
f 134/1/4 135/1/4 137/1/4
f 136/2/4 134/2/4 137/2/4
f 137/1/4 135/1/4 138/1/4
f 139/2/4 140/2/4 142/2/4
f 140/1/4 141/1/4 143/1/4
f 142/2/4 140/2/4 143/2/4
f 143/1/4 141/1/4 144/1/4
f 145/4/4 146/4/4 147/4/4
f 147/4/4 146/4/4 148/4/4
f 149/4/4 150/4/4 151/4/4
f 151/4/4 150/4/4 152/4/4
f 153/4/4 154/4/4 155/4/4
f 155/4/4 154/4/4 156/4/4
f 157/3/4 158/3/4 159/3/4
f 159/3/4 158/3/4 160/3/4
f 163/3/5 162/3/5 161/3/5
f 164/3/5 162/3/5 163/3/5
f 165/3/6 166/3/6 167/3/6
f 167/3/6 166/3/6 168/3/6
f 168/3/6 166/3/6 169/3/6
f 169/3/6 166/3/6 170/3/6
f 170/3/6 166/3/6 171/3/6
f 171/3/6 166/3/6 172/3/6
f 165/3/6 167/3/6 173/3/6
f 168/3/6 169/3/6 174/3/6
f 174/3/6 169/3/6 175/3/6
f 170/3/6 171/3/6 176/3/6
f 176/3/6 171/3/6 177/3/6
f 172/3/6 166/3/6 178/3/6
f 176/3/6 177/3/6 179/3/6
f 177/3/6 178/3/6 179/3/6
f 174/3/6 175/3/6 179/3/6
f 165/3/6 173/3/6 179/3/6
f 175/3/6 176/3/6 179/3/6
f 173/3/6 174/3/6 179/3/6
f 178/3/6 166/3/6 180/3/6
f 179/3/6 178/3/6 180/3/6
f 181/4/6 182/4/6 187/4/6
f 187/4/6 182/4/6 188/4/6
f 185/4/6 186/4/6 189/4/6
f 189/4/6 186/4/6 190/4/6
f 191/4/6 192/4/6 195/4/6
f 195/4/6 192/4/6 196/4/6
f 193/4/6 194/4/6 197/4/6
f 197/4/6 194/4/6 198/4/6
f 199/4/6 200/4/6 203/4/6
f 203/4/6 200/4/6 204/4/6
f 183/4/6 184/4/6 205/4/6
f 205/4/6 184/4/6 206/4/6
f 201/4/6 202/4/6 207/4/6
f 207/4/6 202/4/6 208/4/6
f 209/1/6 210/1/6 213/1/6
f 213/1/6 210/1/6 214/1/6
f 211/1/6 212/1/6 215/1/6
f 215/1/6 212/1/6 216/1/6
f 217/1/6 218/1/6 221/1/6
f 221/1/6 218/1/6 222/1/6
f 219/1/6 220/1/6 223/1/6
f 223/1/6 220/1/6 224/1/6
