# MagicaVoxel @ Ephtracy

# group
o 

# material
mtllib Beet 3.mtl
usemtl palette

# normals
vn -1 0 0
vn 1 0 0
vn 0 0 1
vn 0 0 -1
vn 0 -1 0
vn 0 1 0

# texcoords
vt 0.0683594 0.5
vt 0.193359 0.5
vt 0.220703 0.5
vt 0.224609 0.5

# verts
v -0.45 -0.5 0.45
v -0.45 -0.5 -0.45
v -0.45 -0.4 0.45
v -0.45 -0.4 -0.45
v -0.45 -0.2 0.25
v -0.45 -0.2 0.15
v -0.45 -0.2 -0.15
v -0.45 -0.2 -0.25
v -0.45 -0.1 0.25
v -0.45 -0.1 0.15
v -0.45 -0.1 -0.15
v -0.45 -0.1 -0.25
v -0.45 0.1 0.25
v -0.45 0.1 0.15
v -0.45 0.1 -0.15
v -0.45 0.1 -0.25
v -0.45 0.2 0.25
v -0.45 0.2 0.15
v -0.45 0.2 -0.15
v -0.45 0.2 -0.25
v -0.35 -0.4 0.35
v -0.35 -0.4 -0.35
v -0.35 -0.3 0.35
v -0.35 -0.3 0.25
v -0.35 -0.3 0.15
v -0.35 -0.3 -0.15
v -0.35 -0.3 -0.25
v -0.35 -0.3 -0.35
v -0.35 -0.2 0.35
v -0.35 -0.2 0.25
v -0.35 -0.2 0.15
v -0.35 -0.2 0.05
v -0.35 -0.2 -0.05
v -0.35 -0.2 -0.15
v -0.35 -0.2 -0.25
v -0.35 -0.2 -0.35
v -0.35 -0.1 0.35
v -0.35 -0.1 0.25
v -0.35 -0.1 0.15
v -0.35 -0.1 0.05
v -0.35 -0.1 -0.05
v -0.35 -0.1 -0.15
v -0.35 -0.1 -0.25
v -0.35 -0.1 -0.35
v -0.35 0 0.25
v -0.35 0 0.15
v -0.35 0 -0.15
v -0.35 0 -0.25
v -0.35 0.1 0.25
v -0.35 0.1 0.15
v -0.35 0.1 0.05
v -0.35 0.1 -0.15
v -0.35 0.1 -0.25
v -0.35 0.1 -0.35
v -0.35 0.2 0.15
v -0.35 0.2 0.05
v -0.35 0.2 -0.25
v -0.35 0.2 -0.35
v -0.05 -0.4 0.35
v -0.05 -0.4 -0.35
v -0.05 -0.3 0.35
v -0.05 -0.3 -0.35
v 0.15 -0.2 0.25
v 0.15 -0.2 0.15
v 0.15 -0.2 -0.15
v 0.15 -0.2 -0.25
v 0.15 -0.1 0.25
v 0.15 -0.1 0.15
v 0.15 -0.1 -0.15
v 0.15 -0.1 -0.25
v 0.15 0.1 0.25
v 0.15 0.1 0.15
v 0.15 0.1 -0.15
v 0.15 0.1 -0.25
v 0.15 0.2 0.25
v 0.15 0.2 0.15
v 0.15 0.2 -0.15
v 0.15 0.2 -0.25
v 0.25 -0.4 0.35
v 0.25 -0.4 -0.35
v 0.25 -0.3 0.35
v 0.25 -0.3 0.25
v 0.25 -0.3 0.15
v 0.25 -0.3 -0.15
v 0.25 -0.3 -0.25
v 0.25 -0.3 -0.35
v 0.25 -0.2 0.35
v 0.25 -0.2 0.25
v 0.25 -0.2 0.15
v 0.25 -0.2 0.05
v 0.25 -0.2 -0.05
v 0.25 -0.2 -0.15
v 0.25 -0.2 -0.25
v 0.25 -0.2 -0.35
v 0.25 -0.1 0.35
v 0.25 -0.1 0.25
v 0.25 -0.1 0.15
v 0.25 -0.1 0.05
v 0.25 -0.1 -0.05
v 0.25 -0.1 -0.15
v 0.25 -0.1 -0.25
v 0.25 -0.1 -0.35
v 0.25 0 0.25
v 0.25 0 0.15
v 0.25 0 -0.15
v 0.25 0 -0.25
v 0.25 0.1 0.25
v 0.25 0.1 0.15
v 0.25 0.1 0.05
v 0.25 0.1 -0.15
v 0.25 0.1 -0.25
v 0.25 0.1 -0.35
v 0.25 0.2 0.15
v 0.25 0.2 0.05
v 0.25 0.2 -0.25
v 0.25 0.2 -0.35
v -0.25 -0.4 0.35
v -0.25 -0.4 -0.35
v -0.25 -0.3 0.35
v -0.25 -0.3 0.25
v -0.25 -0.3 0.15
v -0.25 -0.3 -0.15
v -0.25 -0.3 -0.25
v -0.25 -0.3 -0.35
v -0.25 -0.2 0.35
v -0.25 -0.2 0.25
v -0.25 -0.2 0.15
v -0.25 -0.2 0.05
v -0.25 -0.2 -0.05
v -0.25 -0.2 -0.15
v -0.25 -0.2 -0.25
v -0.25 -0.2 -0.35
v -0.25 -0.1 0.35
v -0.25 -0.1 0.25
v -0.25 -0.1 0.15
v -0.25 -0.1 0.05
v -0.25 -0.1 -0.05
v -0.25 -0.1 -0.15
v -0.25 -0.1 -0.25
v -0.25 -0.1 -0.35
v -0.25 0 0.25
v -0.25 0 0.15
v -0.25 0 -0.15
v -0.25 0 -0.25
v -0.25 0.1 0.15
v -0.25 0.1 0.05
v -0.25 0.1 -0.25
v -0.25 0.1 -0.35
v -0.25 0.2 0.25
v -0.25 0.2 0.05
v -0.25 0.2 -0.15
v -0.25 0.2 -0.35
v -0.15 -0.2 0.25
v -0.15 -0.2 0.15
v -0.15 -0.2 -0.15
v -0.15 -0.2 -0.25
v -0.15 -0.1 0.25
v -0.15 -0.1 0.15
v -0.15 -0.1 -0.15
v -0.15 -0.1 -0.25
v 0.05 -0.4 0.35
v 0.05 -0.4 -0.35
v 0.05 -0.3 0.35
v 0.05 -0.3 -0.35
v 0.35 -0.4 0.35
v 0.35 -0.4 -0.35
v 0.35 -0.3 0.35
v 0.35 -0.3 0.25
v 0.35 -0.3 0.15
v 0.35 -0.3 -0.15
v 0.35 -0.3 -0.25
v 0.35 -0.3 -0.35
v 0.35 -0.2 0.35
v 0.35 -0.2 0.25
v 0.35 -0.2 0.15
v 0.35 -0.2 0.05
v 0.35 -0.2 -0.05
v 0.35 -0.2 -0.15
v 0.35 -0.2 -0.25
v 0.35 -0.2 -0.35
v 0.35 -0.1 0.35
v 0.35 -0.1 0.25
v 0.35 -0.1 0.15
v 0.35 -0.1 0.05
v 0.35 -0.1 -0.05
v 0.35 -0.1 -0.15
v 0.35 -0.1 -0.25
v 0.35 -0.1 -0.35
v 0.35 0 0.25
v 0.35 0 0.15
v 0.35 0 -0.15
v 0.35 0 -0.25
v 0.35 0.1 0.15
v 0.35 0.1 0.05
v 0.35 0.1 -0.25
v 0.35 0.1 -0.35
v 0.35 0.2 0.25
v 0.35 0.2 0.05
v 0.35 0.2 -0.15
v 0.35 0.2 -0.35
v 0.45 -0.5 0.45
v 0.45 -0.5 -0.45
v 0.45 -0.4 0.45
v 0.45 -0.4 -0.45
v 0.45 -0.2 0.25
v 0.45 -0.2 0.15
v 0.45 -0.2 -0.15
v 0.45 -0.2 -0.25
v 0.45 -0.1 0.25
v 0.45 -0.1 0.15
v 0.45 -0.1 -0.15
v 0.45 -0.1 -0.25
v -0.45 -0.5 0.45
v -0.45 -0.4 0.45
v 0.45 -0.5 0.45
v 0.45 -0.4 0.45
v -0.35 -0.4 0.35
v -0.35 -0.3 0.35
v -0.35 -0.2 0.35
v -0.35 -0.1 0.35
v -0.25 -0.4 0.35
v -0.25 -0.3 0.35
v -0.25 -0.2 0.35
v -0.25 -0.1 0.35
v -0.05 -0.4 0.35
v -0.05 -0.3 0.35
v 0.05 -0.4 0.35
v 0.05 -0.3 0.35
v 0.25 -0.4 0.35
v 0.25 -0.3 0.35
v 0.25 -0.2 0.35
v 0.25 -0.1 0.35
v 0.35 -0.4 0.35
v 0.35 -0.3 0.35
v 0.35 -0.2 0.35
v 0.35 -0.1 0.35
v -0.45 -0.2 0.25
v -0.45 -0.1 0.25
v -0.45 0.1 0.25
v -0.45 0.2 0.25
v -0.35 -0.3 0.25
v -0.35 -0.2 0.25
v -0.35 -0.1 0.25
v -0.35 0 0.25
v -0.35 0.1 0.25
v -0.25 -0.3 0.25
v -0.25 -0.2 0.25
v -0.25 -0.1 0.25
v -0.25 0 0.25
v -0.25 0.2 0.25
v -0.15 -0.2 0.25
v -0.15 -0.1 0.25
v 0.15 -0.2 0.25
v 0.15 -0.1 0.25
v 0.15 0.1 0.25
v 0.15 0.2 0.25
v 0.25 -0.3 0.25
v 0.25 -0.2 0.25
v 0.25 -0.1 0.25
v 0.25 0 0.25
v 0.25 0.1 0.25
v 0.35 -0.3 0.25
v 0.35 -0.2 0.25
v 0.35 -0.1 0.25
v 0.35 0 0.25
v 0.35 0.2 0.25
v 0.45 -0.2 0.25
v 0.45 -0.1 0.25
v -0.35 -0.2 -0.05
v -0.35 -0.1 -0.05
v -0.25 -0.2 -0.05
v -0.25 -0.1 -0.05
v 0.25 -0.2 -0.05
v 0.25 -0.1 -0.05
v 0.35 -0.2 -0.05
v 0.35 -0.1 -0.05
v -0.45 -0.2 -0.15
v -0.45 -0.1 -0.15
v -0.45 0.1 -0.15
v -0.45 0.2 -0.15
v -0.35 -0.3 -0.15
v -0.35 -0.2 -0.15
v -0.35 -0.1 -0.15
v -0.35 0 -0.15
v -0.35 0.1 -0.15
v -0.25 -0.3 -0.15
v -0.25 -0.2 -0.15
v -0.25 -0.1 -0.15
v -0.25 0 -0.15
v -0.25 0.2 -0.15
v -0.15 -0.2 -0.15
v -0.15 -0.1 -0.15
v 0.15 -0.2 -0.15
v 0.15 -0.1 -0.15
v 0.15 0.1 -0.15
v 0.15 0.2 -0.15
v 0.25 -0.3 -0.15
v 0.25 -0.2 -0.15
v 0.25 -0.1 -0.15
v 0.25 0 -0.15
v 0.25 0.1 -0.15
v 0.35 -0.3 -0.15
v 0.35 -0.2 -0.15
v 0.35 -0.1 -0.15
v 0.35 0 -0.15
v 0.35 0.2 -0.15
v 0.45 -0.2 -0.15
v 0.45 -0.1 -0.15
v -0.45 -0.2 0.15
v -0.45 -0.1 0.15
v -0.45 0.1 0.15
v -0.45 0.2 0.15
v -0.35 -0.3 0.15
v -0.35 -0.2 0.15
v -0.35 -0.1 0.15
v -0.35 0 0.15
v -0.35 0.1 0.15
v -0.35 0.2 0.15
v -0.25 -0.3 0.15
v -0.25 -0.2 0.15
v -0.25 -0.1 0.15
v -0.25 0 0.15
v -0.25 0.1 0.15
v -0.15 -0.2 0.15
v -0.15 -0.1 0.15
v 0.15 -0.2 0.15
v 0.15 -0.1 0.15
v 0.15 0.1 0.15
v 0.15 0.2 0.15
v 0.25 -0.3 0.15
v 0.25 -0.2 0.15
v 0.25 -0.1 0.15
v 0.25 0 0.15
v 0.25 0.1 0.15
v 0.25 0.2 0.15
v 0.35 -0.3 0.15
v 0.35 -0.2 0.15
v 0.35 -0.1 0.15
v 0.35 0 0.15
v 0.35 0.1 0.15
v 0.45 -0.2 0.15
v 0.45 -0.1 0.15
v -0.35 -0.2 0.05
v -0.35 -0.1 0.05
v -0.35 0.1 0.05
v -0.35 0.2 0.05
v -0.25 -0.2 0.05
v -0.25 -0.1 0.05
v -0.25 0.1 0.05
v -0.25 0.2 0.05
v 0.25 -0.2 0.05
v 0.25 -0.1 0.05
v 0.25 0.1 0.05
v 0.25 0.2 0.05
v 0.35 -0.2 0.05
v 0.35 -0.1 0.05
v 0.35 0.1 0.05
v 0.35 0.2 0.05
v -0.45 -0.2 -0.25
v -0.45 -0.1 -0.25
v -0.45 0.1 -0.25
v -0.45 0.2 -0.25
v -0.35 -0.3 -0.25
v -0.35 -0.2 -0.25
v -0.35 -0.1 -0.25
v -0.35 0 -0.25
v -0.35 0.1 -0.25
v -0.35 0.2 -0.25
v -0.25 -0.3 -0.25
v -0.25 -0.2 -0.25
v -0.25 -0.1 -0.25
v -0.25 0 -0.25
v -0.25 0.1 -0.25
v -0.15 -0.2 -0.25
v -0.15 -0.1 -0.25
v 0.15 -0.2 -0.25
v 0.15 -0.1 -0.25
v 0.15 0.1 -0.25
v 0.15 0.2 -0.25
v 0.25 -0.3 -0.25
v 0.25 -0.2 -0.25
v 0.25 -0.1 -0.25
v 0.25 0 -0.25
v 0.25 0.1 -0.25
v 0.25 0.2 -0.25
v 0.35 -0.3 -0.25
v 0.35 -0.2 -0.25
v 0.35 -0.1 -0.25
v 0.35 0 -0.25
v 0.35 0.1 -0.25
v 0.45 -0.2 -0.25
v 0.45 -0.1 -0.25
v -0.35 -0.4 -0.35
v -0.35 -0.3 -0.35
v -0.35 -0.2 -0.35
v -0.35 -0.1 -0.35
v -0.35 0.1 -0.35
v -0.35 0.2 -0.35
v -0.25 -0.4 -0.35
v -0.25 -0.3 -0.35
v -0.25 -0.2 -0.35
v -0.25 -0.1 -0.35
v -0.25 0.1 -0.35
v -0.25 0.2 -0.35
v -0.05 -0.4 -0.35
v -0.05 -0.3 -0.35
v 0.05 -0.4 -0.35
v 0.05 -0.3 -0.35
v 0.25 -0.4 -0.35
v 0.25 -0.3 -0.35
v 0.25 -0.2 -0.35
v 0.25 -0.1 -0.35
v 0.25 0.1 -0.35
v 0.25 0.2 -0.35
v 0.35 -0.4 -0.35
v 0.35 -0.3 -0.35
v 0.35 -0.2 -0.35
v 0.35 -0.1 -0.35
v 0.35 0.1 -0.35
v 0.35 0.2 -0.35
v -0.45 -0.5 -0.45
v -0.45 -0.4 -0.45
v 0.45 -0.5 -0.45
v 0.45 -0.4 -0.45
v -0.45 -0.5 0.45
v 0.45 -0.5 0.45
v -0.45 -0.5 -0.45
v 0.45 -0.5 -0.45
v -0.35 -0.2 0.35
v -0.25 -0.2 0.35
v 0.25 -0.2 0.35
v 0.35 -0.2 0.35
v -0.45 -0.2 0.25
v -0.35 -0.2 0.25
v -0.25 -0.2 0.25
v -0.15 -0.2 0.25
v 0.15 -0.2 0.25
v 0.25 -0.2 0.25
v 0.35 -0.2 0.25
v 0.45 -0.2 0.25
v -0.45 -0.2 0.15
v -0.35 -0.2 0.15
v -0.25 -0.2 0.15
v -0.15 -0.2 0.15
v 0.15 -0.2 0.15
v 0.25 -0.2 0.15
v 0.35 -0.2 0.15
v 0.45 -0.2 0.15
v -0.35 -0.2 0.05
v -0.25 -0.2 0.05
v 0.25 -0.2 0.05
v 0.35 -0.2 0.05
v -0.35 -0.2 -0.05
v -0.25 -0.2 -0.05
v 0.25 -0.2 -0.05
v 0.35 -0.2 -0.05
v -0.45 -0.2 -0.15
v -0.35 -0.2 -0.15
v -0.25 -0.2 -0.15
v -0.15 -0.2 -0.15
v 0.15 -0.2 -0.15
v 0.25 -0.2 -0.15
v 0.35 -0.2 -0.15
v 0.45 -0.2 -0.15
v -0.45 -0.2 -0.25
v -0.35 -0.2 -0.25
v -0.25 -0.2 -0.25
v -0.15 -0.2 -0.25
v 0.15 -0.2 -0.25
v 0.25 -0.2 -0.25
v 0.35 -0.2 -0.25
v 0.45 -0.2 -0.25
v -0.35 -0.2 -0.35
v -0.25 -0.2 -0.35
v 0.25 -0.2 -0.35
v 0.35 -0.2 -0.35
v -0.45 0.1 0.25
v -0.35 0.1 0.25
v 0.15 0.1 0.25
v 0.25 0.1 0.25
v -0.45 0.1 0.15
v -0.35 0.1 0.15
v -0.25 0.1 0.15
v 0.15 0.1 0.15
v 0.25 0.1 0.15
v 0.35 0.1 0.15
v -0.35 0.1 0.05
v -0.25 0.1 0.05
v 0.25 0.1 0.05
v 0.35 0.1 0.05
v -0.45 0.1 -0.15
v -0.35 0.1 -0.15
v 0.15 0.1 -0.15
v 0.25 0.1 -0.15
v -0.45 0.1 -0.25
v -0.35 0.1 -0.25
v -0.25 0.1 -0.25
v 0.15 0.1 -0.25
v 0.25 0.1 -0.25
v 0.35 0.1 -0.25
v -0.35 0.1 -0.35
v -0.25 0.1 -0.35
v 0.25 0.1 -0.35
v 0.35 0.1 -0.35
v -0.45 -0.4 0.45
v 0.45 -0.4 0.45
v -0.35 -0.4 0.35
v -0.25 -0.4 0.35
v -0.05 -0.4 0.35
v 0.05 -0.4 0.35
v 0.25 -0.4 0.35
v 0.35 -0.4 0.35
v -0.35 -0.4 -0.35
v -0.25 -0.4 -0.35
v -0.05 -0.4 -0.35
v 0.05 -0.4 -0.35
v 0.25 -0.4 -0.35
v 0.35 -0.4 -0.35
v -0.45 -0.4 -0.45
v 0.45 -0.4 -0.45
v -0.35 -0.3 0.35
v -0.25 -0.3 0.35
v -0.05 -0.3 0.35
v 0.05 -0.3 0.35
v 0.25 -0.3 0.35
v 0.35 -0.3 0.35
v -0.35 -0.3 0.25
v -0.25 -0.3 0.25
v 0.25 -0.3 0.25
v 0.35 -0.3 0.25
v -0.35 -0.3 0.15
v -0.25 -0.3 0.15
v 0.25 -0.3 0.15
v 0.35 -0.3 0.15
v -0.35 -0.3 -0.15
v -0.25 -0.3 -0.15
v 0.25 -0.3 -0.15
v 0.35 -0.3 -0.15
v -0.35 -0.3 -0.25
v -0.25 -0.3 -0.25
v 0.25 -0.3 -0.25
v 0.35 -0.3 -0.25
v -0.35 -0.3 -0.35
v -0.25 -0.3 -0.35
v -0.05 -0.3 -0.35
v 0.05 -0.3 -0.35
v 0.25 -0.3 -0.35
v 0.35 -0.3 -0.35
v -0.35 -0.1 0.35
v -0.25 -0.1 0.35
v 0.25 -0.1 0.35
v 0.35 -0.1 0.35
v -0.45 -0.1 0.25
v -0.35 -0.1 0.25
v -0.25 -0.1 0.25
v -0.15 -0.1 0.25
v 0.15 -0.1 0.25
v 0.25 -0.1 0.25
v 0.35 -0.1 0.25
v 0.45 -0.1 0.25
v -0.45 -0.1 0.15
v -0.35 -0.1 0.15
v -0.25 -0.1 0.15
v -0.15 -0.1 0.15
v 0.15 -0.1 0.15
v 0.25 -0.1 0.15
v 0.35 -0.1 0.15
v 0.45 -0.1 0.15
v -0.35 -0.1 0.05
v -0.25 -0.1 0.05
v 0.25 -0.1 0.05
v 0.35 -0.1 0.05
v -0.35 -0.1 -0.05
v -0.25 -0.1 -0.05
v 0.25 -0.1 -0.05
v 0.35 -0.1 -0.05
v -0.45 -0.1 -0.15
v -0.35 -0.1 -0.15
v -0.25 -0.1 -0.15
v -0.15 -0.1 -0.15
v 0.15 -0.1 -0.15
v 0.25 -0.1 -0.15
v 0.35 -0.1 -0.15
v 0.45 -0.1 -0.15
v -0.45 -0.1 -0.25
v -0.35 -0.1 -0.25
v -0.25 -0.1 -0.25
v -0.15 -0.1 -0.25
v 0.15 -0.1 -0.25
v 0.25 -0.1 -0.25
v 0.35 -0.1 -0.25
v 0.45 -0.1 -0.25
v -0.35 -0.1 -0.35
v -0.25 -0.1 -0.35
v 0.25 -0.1 -0.35
v 0.35 -0.1 -0.35
v -0.45 0.2 0.25
v -0.25 0.2 0.25
v 0.15 0.2 0.25
v 0.35 0.2 0.25
v -0.45 0.2 0.15
v -0.35 0.2 0.15
v 0.15 0.2 0.15
v 0.25 0.2 0.15
v -0.35 0.2 0.05
v -0.25 0.2 0.05
v 0.25 0.2 0.05
v 0.35 0.2 0.05
v -0.45 0.2 -0.15
v -0.25 0.2 -0.15
v 0.15 0.2 -0.15
v 0.35 0.2 -0.15
v -0.45 0.2 -0.25
v -0.35 0.2 -0.25
v 0.15 0.2 -0.25
v 0.25 0.2 -0.25
v -0.35 0.2 -0.35
v -0.25 0.2 -0.35
v 0.25 0.2 -0.35
v 0.35 0.2 -0.35

# faces
f 3/3/1 2/3/1 1/3/1
f 4/3/1 2/3/1 3/3/1
f 9/2/1 6/2/1 5/2/1
f 10/2/1 6/2/1 9/2/1
f 11/2/1 8/2/1 7/2/1
f 12/2/1 8/2/1 11/2/1
f 17/1/1 14/1/1 13/1/1
f 18/1/1 14/1/1 17/1/1
f 19/1/1 16/1/1 15/1/1
f 20/1/1 16/1/1 19/1/1
f 23/4/1 22/4/1 21/4/1
f 24/4/1 22/4/1 23/4/1
f 25/4/1 22/4/1 24/4/1
f 26/4/1 22/4/1 25/4/1
f 27/4/1 22/4/1 26/4/1
f 28/4/1 22/4/1 27/4/1
f 30/2/1 25/2/1 24/2/1
f 31/2/1 25/2/1 30/2/1
f 34/2/1 27/2/1 26/2/1
f 35/2/1 27/2/1 34/2/1
f 37/2/1 30/2/1 29/2/1
f 38/2/1 30/2/1 37/2/1
f 39/2/1 32/2/1 31/2/1
f 40/2/1 32/2/1 39/2/1
f 41/2/1 34/2/1 33/2/1
f 42/2/1 34/2/1 41/2/1
f 43/2/1 36/2/1 35/2/1
f 44/2/1 36/2/1 43/2/1
f 45/2/1 39/2/1 38/2/1
f 46/2/1 39/2/1 45/2/1
f 47/2/1 43/2/1 42/2/1
f 48/2/1 43/2/1 47/2/1
f 49/1/1 46/1/1 45/1/1
f 50/1/1 46/1/1 49/1/1
f 52/1/1 48/1/1 47/1/1
f 53/1/1 48/1/1 52/1/1
f 55/1/1 51/1/1 50/1/1
f 56/1/1 51/1/1 55/1/1
f 57/1/1 54/1/1 53/1/1
f 58/1/1 54/1/1 57/1/1
f 61/4/1 60/4/1 59/4/1
f 62/4/1 60/4/1 61/4/1
f 67/2/1 64/2/1 63/2/1
f 68/2/1 64/2/1 67/2/1
f 69/2/1 66/2/1 65/2/1
f 70/2/1 66/2/1 69/2/1
f 75/1/1 72/1/1 71/1/1
f 76/1/1 72/1/1 75/1/1
f 77/1/1 74/1/1 73/1/1
f 78/1/1 74/1/1 77/1/1
f 81/4/1 80/4/1 79/4/1
f 82/4/1 80/4/1 81/4/1
f 83/4/1 80/4/1 82/4/1
f 84/4/1 80/4/1 83/4/1
f 85/4/1 80/4/1 84/4/1
f 86/4/1 80/4/1 85/4/1
f 88/2/1 83/2/1 82/2/1
f 89/2/1 83/2/1 88/2/1
f 92/2/1 85/2/1 84/2/1
f 93/2/1 85/2/1 92/2/1
f 95/2/1 88/2/1 87/2/1
f 96/2/1 88/2/1 95/2/1
f 97/2/1 90/2/1 89/2/1
f 98/2/1 90/2/1 97/2/1
f 99/2/1 92/2/1 91/2/1
f 100/2/1 92/2/1 99/2/1
f 101/2/1 94/2/1 93/2/1
f 102/2/1 94/2/1 101/2/1
f 103/2/1 97/2/1 96/2/1
f 104/2/1 97/2/1 103/2/1
f 105/2/1 101/2/1 100/2/1
f 106/2/1 101/2/1 105/2/1
f 107/1/1 104/1/1 103/1/1
f 108/1/1 104/1/1 107/1/1
f 110/1/1 106/1/1 105/1/1
f 111/1/1 106/1/1 110/1/1
f 113/1/1 109/1/1 108/1/1
f 114/1/1 109/1/1 113/1/1
f 115/1/1 112/1/1 111/1/1
f 116/1/1 112/1/1 115/1/1
f 117/4/2 118/4/2 119/4/2
f 119/4/2 118/4/2 120/4/2
f 120/4/2 118/4/2 121/4/2
f 121/4/2 118/4/2 122/4/2
f 122/4/2 118/4/2 123/4/2
f 123/4/2 118/4/2 124/4/2
f 120/2/2 121/2/2 126/2/2
f 126/2/2 121/2/2 127/2/2
f 122/2/2 123/2/2 130/2/2
f 130/2/2 123/2/2 131/2/2
f 125/2/2 126/2/2 133/2/2
f 133/2/2 126/2/2 134/2/2
f 127/2/2 128/2/2 135/2/2
f 135/2/2 128/2/2 136/2/2
f 129/2/2 130/2/2 137/2/2
f 137/2/2 130/2/2 138/2/2
f 131/2/2 132/2/2 139/2/2
f 139/2/2 132/2/2 140/2/2
f 134/2/2 135/2/2 141/2/2
f 141/2/2 135/2/2 142/2/2
f 138/2/2 139/2/2 143/2/2
f 143/2/2 139/2/2 144/2/2
f 141/1/2 142/1/2 145/1/2
f 143/1/2 144/1/2 147/1/2
f 145/1/2 146/1/2 149/1/2
f 141/1/2 145/1/2 149/1/2
f 149/1/2 146/1/2 150/1/2
f 143/1/2 147/1/2 151/1/2
f 147/1/2 148/1/2 151/1/2
f 151/1/2 148/1/2 152/1/2
f 153/2/2 154/2/2 157/2/2
f 157/2/2 154/2/2 158/2/2
f 155/2/2 156/2/2 159/2/2
f 159/2/2 156/2/2 160/2/2
f 161/4/2 162/4/2 163/4/2
f 163/4/2 162/4/2 164/4/2
f 165/4/2 166/4/2 167/4/2
f 167/4/2 166/4/2 168/4/2
f 168/4/2 166/4/2 169/4/2
f 169/4/2 166/4/2 170/4/2
f 170/4/2 166/4/2 171/4/2
f 171/4/2 166/4/2 172/4/2
f 168/2/2 169/2/2 174/2/2
f 174/2/2 169/2/2 175/2/2
f 170/2/2 171/2/2 178/2/2
f 178/2/2 171/2/2 179/2/2
f 173/2/2 174/2/2 181/2/2
f 181/2/2 174/2/2 182/2/2
f 175/2/2 176/2/2 183/2/2
f 183/2/2 176/2/2 184/2/2
f 177/2/2 178/2/2 185/2/2
f 185/2/2 178/2/2 186/2/2
f 179/2/2 180/2/2 187/2/2
f 187/2/2 180/2/2 188/2/2
f 182/2/2 183/2/2 189/2/2
f 189/2/2 183/2/2 190/2/2
f 186/2/2 187/2/2 191/2/2
f 191/2/2 187/2/2 192/2/2
f 189/1/2 190/1/2 193/1/2
f 191/1/2 192/1/2 195/1/2
f 193/1/2 194/1/2 197/1/2
f 189/1/2 193/1/2 197/1/2
f 197/1/2 194/1/2 198/1/2
f 191/1/2 195/1/2 199/1/2
f 195/1/2 196/1/2 199/1/2
f 199/1/2 196/1/2 200/1/2
f 201/3/2 202/3/2 203/3/2
f 203/3/2 202/3/2 204/3/2
f 205/2/2 206/2/2 209/2/2
f 209/2/2 206/2/2 210/2/2
f 207/2/2 208/2/2 211/2/2
f 211/2/2 208/2/2 212/2/2
f 215/3/3 214/3/3 213/3/3
f 216/3/3 214/3/3 215/3/3
f 221/4/3 218/4/3 217/4/3
f 222/4/3 218/4/3 221/4/3
f 223/2/3 220/2/3 219/2/3
f 224/2/3 220/2/3 223/2/3
f 227/4/3 226/4/3 225/4/3
f 228/4/3 226/4/3 227/4/3
f 233/4/3 230/4/3 229/4/3
f 234/4/3 230/4/3 233/4/3
f 235/2/3 232/2/3 231/2/3
f 236/2/3 232/2/3 235/2/3
f 242/2/3 238/2/3 237/2/3
f 243/2/3 238/2/3 242/2/3
f 245/1/3 240/1/3 239/1/3
f 246/2/3 242/2/3 241/2/3
f 247/2/3 242/2/3 246/2/3
f 248/2/3 244/2/3 243/2/3
f 249/1/3 245/1/3 244/1/3
f 249/2/3 244/2/3 248/2/3
f 250/1/3 240/1/3 245/1/3
f 250/1/3 245/1/3 249/1/3
f 251/2/3 248/2/3 247/2/3
f 252/2/3 248/2/3 251/2/3
f 258/2/3 254/2/3 253/2/3
f 259/2/3 254/2/3 258/2/3
f 261/1/3 256/1/3 255/1/3
f 262/2/3 258/2/3 257/2/3
f 263/2/3 258/2/3 262/2/3
f 264/2/3 260/2/3 259/2/3
f 265/1/3 261/1/3 260/1/3
f 265/2/3 260/2/3 264/2/3
f 266/1/3 256/1/3 261/1/3
f 266/1/3 261/1/3 265/1/3
f 267/2/3 264/2/3 263/2/3
f 268/2/3 264/2/3 267/2/3
f 271/2/3 270/2/3 269/2/3
f 272/2/3 270/2/3 271/2/3
f 275/2/3 274/2/3 273/2/3
f 276/2/3 274/2/3 275/2/3
f 282/2/3 278/2/3 277/2/3
f 283/2/3 278/2/3 282/2/3
f 285/1/3 280/1/3 279/1/3
f 286/2/3 282/2/3 281/2/3
f 287/2/3 282/2/3 286/2/3
f 288/2/3 284/2/3 283/2/3
f 289/1/3 285/1/3 284/1/3
f 289/2/3 284/2/3 288/2/3
f 290/1/3 280/1/3 285/1/3
f 290/1/3 285/1/3 289/1/3
f 291/2/3 288/2/3 287/2/3
f 292/2/3 288/2/3 291/2/3
f 298/2/3 294/2/3 293/2/3
f 299/2/3 294/2/3 298/2/3
f 301/1/3 296/1/3 295/1/3
f 302/2/3 298/2/3 297/2/3
f 303/2/3 298/2/3 302/2/3
f 304/2/3 300/2/3 299/2/3
f 305/1/3 301/1/3 300/1/3
f 305/2/3 300/2/3 304/2/3
f 306/1/3 296/1/3 301/1/3
f 306/1/3 301/1/3 305/1/3
f 307/2/3 304/2/3 303/2/3
f 308/2/3 304/2/3 307/2/3
f 309/2/4 310/2/4 314/2/4
f 314/2/4 310/2/4 315/2/4
f 311/1/4 312/1/4 317/1/4
f 317/1/4 312/1/4 318/1/4
f 313/2/4 314/2/4 319/2/4
f 319/2/4 314/2/4 320/2/4
f 315/2/4 316/2/4 321/2/4
f 316/1/4 317/1/4 322/1/4
f 321/2/4 316/2/4 322/2/4
f 322/1/4 317/1/4 323/1/4
f 320/2/4 321/2/4 324/2/4
f 324/2/4 321/2/4 325/2/4
f 326/2/4 327/2/4 331/2/4
f 331/2/4 327/2/4 332/2/4
f 328/1/4 329/1/4 334/1/4
f 334/1/4 329/1/4 335/1/4
f 330/2/4 331/2/4 336/2/4
f 336/2/4 331/2/4 337/2/4
f 332/2/4 333/2/4 338/2/4
f 333/1/4 334/1/4 339/1/4
f 338/2/4 333/2/4 339/2/4
f 339/1/4 334/1/4 340/1/4
f 337/2/4 338/2/4 341/2/4
f 341/2/4 338/2/4 342/2/4
f 343/2/4 344/2/4 347/2/4
f 347/2/4 344/2/4 348/2/4
f 345/1/4 346/1/4 349/1/4
f 349/1/4 346/1/4 350/1/4
f 351/2/4 352/2/4 355/2/4
f 355/2/4 352/2/4 356/2/4
f 353/1/4 354/1/4 357/1/4
f 357/1/4 354/1/4 358/1/4
f 359/2/4 360/2/4 364/2/4
f 364/2/4 360/2/4 365/2/4
f 361/1/4 362/1/4 367/1/4
f 367/1/4 362/1/4 368/1/4
f 363/2/4 364/2/4 369/2/4
f 369/2/4 364/2/4 370/2/4
f 365/2/4 366/2/4 371/2/4
f 366/1/4 367/1/4 372/1/4
f 371/2/4 366/2/4 372/2/4
f 372/1/4 367/1/4 373/1/4
f 370/2/4 371/2/4 374/2/4
f 374/2/4 371/2/4 375/2/4
f 376/2/4 377/2/4 381/2/4
f 381/2/4 377/2/4 382/2/4
f 378/1/4 379/1/4 384/1/4
f 384/1/4 379/1/4 385/1/4
f 380/2/4 381/2/4 386/2/4
f 386/2/4 381/2/4 387/2/4
f 382/2/4 383/2/4 388/2/4
f 383/1/4 384/1/4 389/1/4
f 388/2/4 383/2/4 389/2/4
f 389/1/4 384/1/4 390/1/4
f 387/2/4 388/2/4 391/2/4
f 391/2/4 388/2/4 392/2/4
f 393/4/4 394/4/4 399/4/4
f 399/4/4 394/4/4 400/4/4
f 395/2/4 396/2/4 401/2/4
f 401/2/4 396/2/4 402/2/4
f 397/1/4 398/1/4 403/1/4
f 403/1/4 398/1/4 404/1/4
f 405/4/4 406/4/4 407/4/4
f 407/4/4 406/4/4 408/4/4
f 409/4/4 410/4/4 415/4/4
f 415/4/4 410/4/4 416/4/4
f 411/2/4 412/2/4 417/2/4
f 417/2/4 412/2/4 418/2/4
f 413/1/4 414/1/4 419/1/4
f 419/1/4 414/1/4 420/1/4
f 421/3/4 422/3/4 423/3/4
f 423/3/4 422/3/4 424/3/4
f 427/3/5 426/3/5 425/3/5
f 428/3/5 426/3/5 427/3/5
f 434/2/5 430/2/5 429/2/5
f 435/2/5 430/2/5 434/2/5
f 438/2/5 432/2/5 431/2/5
f 439/2/5 432/2/5 438/2/5
f 441/2/5 434/2/5 433/2/5
f 442/2/5 434/2/5 441/2/5
f 443/2/5 436/2/5 435/2/5
f 444/2/5 436/2/5 443/2/5
f 445/2/5 438/2/5 437/2/5
f 446/2/5 438/2/5 445/2/5
f 447/2/5 440/2/5 439/2/5
f 448/2/5 440/2/5 447/2/5
f 449/2/5 443/2/5 442/2/5
f 450/2/5 443/2/5 449/2/5
f 451/2/5 447/2/5 446/2/5
f 452/2/5 447/2/5 451/2/5
f 458/2/5 454/2/5 453/2/5
f 459/2/5 454/2/5 458/2/5
f 462/2/5 456/2/5 455/2/5
f 463/2/5 456/2/5 462/2/5
f 465/2/5 458/2/5 457/2/5
f 466/2/5 458/2/5 465/2/5
f 467/2/5 460/2/5 459/2/5
f 468/2/5 460/2/5 467/2/5
f 469/2/5 462/2/5 461/2/5
f 470/2/5 462/2/5 469/2/5
f 471/2/5 464/2/5 463/2/5
f 472/2/5 464/2/5 471/2/5
f 473/2/5 467/2/5 466/2/5
f 474/2/5 467/2/5 473/2/5
f 475/2/5 471/2/5 470/2/5
f 476/2/5 471/2/5 475/2/5
f 481/1/5 478/1/5 477/1/5
f 482/1/5 478/1/5 481/1/5
f 484/1/5 480/1/5 479/1/5
f 485/1/5 480/1/5 484/1/5
f 487/1/5 483/1/5 482/1/5
f 488/1/5 483/1/5 487/1/5
f 489/1/5 486/1/5 485/1/5
f 490/1/5 486/1/5 489/1/5
f 495/1/5 492/1/5 491/1/5
f 496/1/5 492/1/5 495/1/5
f 498/1/5 494/1/5 493/1/5
f 499/1/5 494/1/5 498/1/5
f 501/1/5 497/1/5 496/1/5
f 502/1/5 497/1/5 501/1/5
f 503/1/5 500/1/5 499/1/5
f 504/1/5 500/1/5 503/1/5
f 505/3/6 506/3/6 507/3/6
f 507/3/6 506/3/6 508/3/6
f 508/3/6 506/3/6 509/3/6
f 509/3/6 506/3/6 510/3/6
f 510/3/6 506/3/6 511/3/6
f 511/3/6 506/3/6 512/3/6
f 505/3/6 507/3/6 513/3/6
f 508/3/6 509/3/6 514/3/6
f 514/3/6 509/3/6 515/3/6
f 510/3/6 511/3/6 516/3/6
f 516/3/6 511/3/6 517/3/6
f 512/3/6 506/3/6 518/3/6
f 516/3/6 517/3/6 519/3/6
f 517/3/6 518/3/6 519/3/6
f 514/3/6 515/3/6 519/3/6
f 505/3/6 513/3/6 519/3/6
f 515/3/6 516/3/6 519/3/6
f 513/3/6 514/3/6 519/3/6
f 518/3/6 506/3/6 520/3/6
f 519/3/6 518/3/6 520/3/6
f 521/4/6 522/4/6 527/4/6
f 527/4/6 522/4/6 528/4/6
f 525/4/6 526/4/6 529/4/6
f 529/4/6 526/4/6 530/4/6
f 531/4/6 532/4/6 535/4/6
f 535/4/6 532/4/6 536/4/6
f 533/4/6 534/4/6 537/4/6
f 537/4/6 534/4/6 538/4/6
f 539/4/6 540/4/6 543/4/6
f 543/4/6 540/4/6 544/4/6
f 523/4/6 524/4/6 545/4/6
f 545/4/6 524/4/6 546/4/6
f 541/4/6 542/4/6 547/4/6
f 547/4/6 542/4/6 548/4/6
f 549/2/6 550/2/6 554/2/6
f 554/2/6 550/2/6 555/2/6
f 551/2/6 552/2/6 558/2/6
f 558/2/6 552/2/6 559/2/6
f 553/2/6 554/2/6 561/2/6
f 561/2/6 554/2/6 562/2/6
f 555/2/6 556/2/6 563/2/6
f 563/2/6 556/2/6 564/2/6
f 557/2/6 558/2/6 565/2/6
f 565/2/6 558/2/6 566/2/6
f 559/2/6 560/2/6 567/2/6
f 567/2/6 560/2/6 568/2/6
f 562/2/6 563/2/6 569/2/6
f 569/2/6 563/2/6 570/2/6
f 566/2/6 567/2/6 571/2/6
f 571/2/6 567/2/6 572/2/6
f 573/2/6 574/2/6 578/2/6
f 578/2/6 574/2/6 579/2/6
f 575/2/6 576/2/6 582/2/6
f 582/2/6 576/2/6 583/2/6
f 577/2/6 578/2/6 585/2/6
f 585/2/6 578/2/6 586/2/6
f 579/2/6 580/2/6 587/2/6
f 587/2/6 580/2/6 588/2/6
f 581/2/6 582/2/6 589/2/6
f 589/2/6 582/2/6 590/2/6
f 583/2/6 584/2/6 591/2/6
f 591/2/6 584/2/6 592/2/6
f 586/2/6 587/2/6 593/2/6
f 593/2/6 587/2/6 594/2/6
f 590/2/6 591/2/6 595/2/6
f 595/2/6 591/2/6 596/2/6
f 597/1/6 598/1/6 601/1/6
f 601/1/6 598/1/6 602/1/6
f 599/1/6 600/1/6 603/1/6
f 603/1/6 600/1/6 604/1/6
f 602/1/6 598/1/6 605/1/6
f 605/1/6 598/1/6 606/1/6
f 604/1/6 600/1/6 607/1/6
f 607/1/6 600/1/6 608/1/6
f 609/1/6 610/1/6 613/1/6
f 613/1/6 610/1/6 614/1/6
f 611/1/6 612/1/6 615/1/6
f 615/1/6 612/1/6 616/1/6
f 614/1/6 610/1/6 617/1/6
f 617/1/6 610/1/6 618/1/6
f 616/1/6 612/1/6 619/1/6
f 619/1/6 612/1/6 620/1/6
