# MagicaVoxel @ Ephtracy

# group
o 

# material
mtllib Beet 3.mtl
usemtl palette

# normals
vn -1 0 0
vn 1 0 0
vn 0 0 1
vn 0 0 -1
vn 0 -1 0
vn 0 1 0

# texcoords
vt 0.0683594 0.5
vt 0.193359 0.5
vt 0.220703 0.5
vt 0.224609 0.5

# verts
v -0.45 -0.5 0.45
v -0.45 -0.5 -0.45
v -0.45 -0.4 0.45
v -0.45 -0.4 -0.45
v -0.45 -0.2 0.25
v -0.45 -0.2 0.15
v -0.45 -0.2 -0.15
v -0.45 -0.2 -0.25
v -0.45 -0.1 0.25
v -0.45 -0.1 0.15
v -0.45 -0.1 -0.15
v -0.45 -0.1 -0.25
v -0.35 -0.4 0.35
v -0.35 -0.4 -0.35
v -0.35 -0.3 0.35
v -0.35 -0.3 0.25
v -0.35 -0.3 0.15
v -0.35 -0.3 -0.15
v -0.35 -0.3 -0.25
v -0.35 -0.3 -0.35
v -0.35 -0.2 0.35
v -0.35 -0.2 0.25
v -0.35 -0.2 0.15
v -0.35 -0.2 0.05
v -0.35 -0.2 -0.05
v -0.35 -0.2 -0.15
v -0.35 -0.2 -0.25
v -0.35 -0.2 -0.35
v -0.35 -0.1 0.35
v -0.35 -0.1 0.25
v -0.35 -0.1 0.15
v -0.35 -0.1 0.05
v -0.35 -0.1 -0.05
v -0.35 -0.1 -0.15
v -0.35 -0.1 -0.25
v -0.35 -0.1 -0.35
v -0.35 0 0.25
v -0.35 0 0.15
v -0.35 0 -0.15
v -0.35 0 -0.25
v -0.35 0.1 0.35
v -0.35 0.1 0.25
v -0.35 0.1 -0.05
v -0.35 0.1 -0.15
v -0.35 0.2 0.35
v -0.35 0.2 0.15
v -0.35 0.2 -0.05
v -0.35 0.2 -0.25
v -0.05 -0.4 0.35
v -0.05 -0.4 -0.35
v -0.05 -0.3 0.35
v -0.05 -0.3 -0.35
v 0.15 -0.2 0.25
v 0.15 -0.2 0.15
v 0.15 -0.2 -0.15
v 0.15 -0.2 -0.25
v 0.15 -0.1 0.25
v 0.15 -0.1 0.15
v 0.15 -0.1 -0.15
v 0.15 -0.1 -0.25
v 0.25 -0.4 0.35
v 0.25 -0.4 -0.35
v 0.25 -0.3 0.35
v 0.25 -0.3 0.25
v 0.25 -0.3 0.15
v 0.25 -0.3 -0.15
v 0.25 -0.3 -0.25
v 0.25 -0.3 -0.35
v 0.25 -0.2 0.35
v 0.25 -0.2 0.25
v 0.25 -0.2 0.15
v 0.25 -0.2 0.05
v 0.25 -0.2 -0.05
v 0.25 -0.2 -0.15
v 0.25 -0.2 -0.25
v 0.25 -0.2 -0.35
v 0.25 -0.1 0.35
v 0.25 -0.1 0.25
v 0.25 -0.1 0.15
v 0.25 -0.1 0.05
v 0.25 -0.1 -0.05
v 0.25 -0.1 -0.15
v 0.25 -0.1 -0.25
v 0.25 -0.1 -0.35
v 0.25 0 0.25
v 0.25 0 0.15
v 0.25 0 -0.15
v 0.25 0 -0.25
v 0.25 0.1 0.35
v 0.25 0.1 0.25
v 0.25 0.1 -0.05
v 0.25 0.1 -0.15
v 0.25 0.2 0.35
v 0.25 0.2 0.15
v 0.25 0.2 -0.05
v 0.25 0.2 -0.25
v -0.25 -0.4 0.35
v -0.25 -0.4 -0.35
v -0.25 -0.3 0.35
v -0.25 -0.3 0.25
v -0.25 -0.3 0.15
v -0.25 -0.3 -0.15
v -0.25 -0.3 -0.25
v -0.25 -0.3 -0.35
v -0.25 -0.2 0.35
v -0.25 -0.2 0.25
v -0.25 -0.2 0.15
v -0.25 -0.2 0.05
v -0.25 -0.2 -0.05
v -0.25 -0.2 -0.15
v -0.25 -0.2 -0.25
v -0.25 -0.2 -0.35
v -0.25 -0.1 0.35
v -0.25 -0.1 0.25
v -0.25 -0.1 0.15
v -0.25 -0.1 0.05
v -0.25 -0.1 -0.05
v -0.25 -0.1 -0.15
v -0.25 -0.1 -0.25
v -0.25 -0.1 -0.35
v -0.25 0 0.25
v -0.25 0 0.15
v -0.25 0 -0.15
v -0.25 0 -0.25
v -0.25 0.1 0.35
v -0.25 0.1 0.25
v -0.25 0.1 0.15
v -0.25 0.1 -0.05
v -0.25 0.1 -0.15
v -0.25 0.1 -0.25
v -0.25 0.2 0.35
v -0.25 0.2 0.25
v -0.25 0.2 -0.05
v -0.25 0.2 -0.15
v -0.15 -0.2 0.25
v -0.15 -0.2 0.15
v -0.15 -0.2 -0.15
v -0.15 -0.2 -0.25
v -0.15 -0.1 0.25
v -0.15 -0.1 0.15
v -0.15 -0.1 -0.15
v -0.15 -0.1 -0.25
v -0.15 0.1 0.25
v -0.15 0.1 0.15
v -0.15 0.1 -0.15
v -0.15 0.1 -0.25
v -0.15 0.2 0.25
v -0.15 0.2 0.15
v -0.15 0.2 -0.15
v -0.15 0.2 -0.25
v 0.05 -0.4 0.35
v 0.05 -0.4 -0.35
v 0.05 -0.3 0.35
v 0.05 -0.3 -0.35
v 0.35 -0.4 0.35
v 0.35 -0.4 -0.35
v 0.35 -0.3 0.35
v 0.35 -0.3 0.25
v 0.35 -0.3 0.15
v 0.35 -0.3 -0.15
v 0.35 -0.3 -0.25
v 0.35 -0.3 -0.35
v 0.35 -0.2 0.35
v 0.35 -0.2 0.25
v 0.35 -0.2 0.15
v 0.35 -0.2 0.05
v 0.35 -0.2 -0.05
v 0.35 -0.2 -0.15
v 0.35 -0.2 -0.25
v 0.35 -0.2 -0.35
v 0.35 -0.1 0.35
v 0.35 -0.1 0.25
v 0.35 -0.1 0.15
v 0.35 -0.1 0.05
v 0.35 -0.1 -0.05
v 0.35 -0.1 -0.15
v 0.35 -0.1 -0.25
v 0.35 -0.1 -0.35
v 0.35 0 0.25
v 0.35 0 0.15
v 0.35 0 -0.15
v 0.35 0 -0.25
v 0.35 0.1 0.35
v 0.35 0.1 0.25
v 0.35 0.1 0.15
v 0.35 0.1 -0.05
v 0.35 0.1 -0.15
v 0.35 0.1 -0.25
v 0.35 0.2 0.35
v 0.35 0.2 0.25
v 0.35 0.2 -0.05
v 0.35 0.2 -0.15
v 0.45 -0.5 0.45
v 0.45 -0.5 -0.45
v 0.45 -0.4 0.45
v 0.45 -0.4 -0.45
v 0.45 -0.2 0.25
v 0.45 -0.2 0.15
v 0.45 -0.2 -0.15
v 0.45 -0.2 -0.25
v 0.45 -0.1 0.25
v 0.45 -0.1 0.15
v 0.45 -0.1 -0.15
v 0.45 -0.1 -0.25
v 0.45 0.1 0.25
v 0.45 0.1 0.15
v 0.45 0.1 -0.15
v 0.45 0.1 -0.25
v 0.45 0.2 0.25
v 0.45 0.2 0.15
v 0.45 0.2 -0.15
v 0.45 0.2 -0.25
v -0.45 -0.5 0.45
v -0.45 -0.4 0.45
v 0.45 -0.5 0.45
v 0.45 -0.4 0.45
v -0.35 -0.4 0.35
v -0.35 -0.3 0.35
v -0.35 -0.2 0.35
v -0.35 -0.1 0.35
v -0.35 0.1 0.35
v -0.35 0.2 0.35
v -0.25 -0.4 0.35
v -0.25 -0.3 0.35
v -0.25 -0.2 0.35
v -0.25 -0.1 0.35
v -0.25 0.1 0.35
v -0.25 0.2 0.35
v -0.05 -0.4 0.35
v -0.05 -0.3 0.35
v 0.05 -0.4 0.35
v 0.05 -0.3 0.35
v 0.25 -0.4 0.35
v 0.25 -0.3 0.35
v 0.25 -0.2 0.35
v 0.25 -0.1 0.35
v 0.25 0.1 0.35
v 0.25 0.2 0.35
v 0.35 -0.4 0.35
v 0.35 -0.3 0.35
v 0.35 -0.2 0.35
v 0.35 -0.1 0.35
v 0.35 0.1 0.35
v 0.35 0.2 0.35
v -0.45 -0.2 0.25
v -0.45 -0.1 0.25
v -0.35 -0.3 0.25
v -0.35 -0.2 0.25
v -0.35 -0.1 0.25
v -0.35 0 0.25
v -0.35 0.1 0.25
v -0.25 -0.3 0.25
v -0.25 -0.2 0.25
v -0.25 -0.1 0.25
v -0.25 0 0.25
v -0.25 0.1 0.25
v -0.25 0.2 0.25
v -0.15 -0.2 0.25
v -0.15 -0.1 0.25
v -0.15 0.1 0.25
v -0.15 0.2 0.25
v 0.15 -0.2 0.25
v 0.15 -0.1 0.25
v 0.25 -0.3 0.25
v 0.25 -0.2 0.25
v 0.25 -0.1 0.25
v 0.25 0 0.25
v 0.25 0.1 0.25
v 0.35 -0.3 0.25
v 0.35 -0.2 0.25
v 0.35 -0.1 0.25
v 0.35 0 0.25
v 0.35 0.1 0.25
v 0.35 0.2 0.25
v 0.45 -0.2 0.25
v 0.45 -0.1 0.25
v 0.45 0.1 0.25
v 0.45 0.2 0.25
v -0.35 -0.2 -0.05
v -0.35 -0.1 -0.05
v -0.35 0.1 -0.05
v -0.35 0.2 -0.05
v -0.25 -0.2 -0.05
v -0.25 -0.1 -0.05
v -0.25 0.1 -0.05
v -0.25 0.2 -0.05
v 0.25 -0.2 -0.05
v 0.25 -0.1 -0.05
v 0.25 0.1 -0.05
v 0.25 0.2 -0.05
v 0.35 -0.2 -0.05
v 0.35 -0.1 -0.05
v 0.35 0.1 -0.05
v 0.35 0.2 -0.05
v -0.45 -0.2 -0.15
v -0.45 -0.1 -0.15
v -0.35 -0.3 -0.15
v -0.35 -0.2 -0.15
v -0.35 -0.1 -0.15
v -0.35 0 -0.15
v -0.35 0.1 -0.15
v -0.25 -0.3 -0.15
v -0.25 -0.2 -0.15
v -0.25 -0.1 -0.15
v -0.25 0 -0.15
v -0.25 0.1 -0.15
v -0.25 0.2 -0.15
v -0.15 -0.2 -0.15
v -0.15 -0.1 -0.15
v -0.15 0.1 -0.15
v -0.15 0.2 -0.15
v 0.15 -0.2 -0.15
v 0.15 -0.1 -0.15
v 0.25 -0.3 -0.15
v 0.25 -0.2 -0.15
v 0.25 -0.1 -0.15
v 0.25 0 -0.15
v 0.25 0.1 -0.15
v 0.35 -0.3 -0.15
v 0.35 -0.2 -0.15
v 0.35 -0.1 -0.15
v 0.35 0 -0.15
v 0.35 0.1 -0.15
v 0.35 0.2 -0.15
v 0.45 -0.2 -0.15
v 0.45 -0.1 -0.15
v 0.45 0.1 -0.15
v 0.45 0.2 -0.15
v -0.45 -0.2 0.15
v -0.45 -0.1 0.15
v -0.35 -0.3 0.15
v -0.35 -0.2 0.15
v -0.35 -0.1 0.15
v -0.35 0 0.15
v -0.35 0.2 0.15
v -0.25 -0.3 0.15
v -0.25 -0.2 0.15
v -0.25 -0.1 0.15
v -0.25 0 0.15
v -0.25 0.1 0.15
v -0.15 -0.2 0.15
v -0.15 -0.1 0.15
v -0.15 0.1 0.15
v -0.15 0.2 0.15
v 0.15 -0.2 0.15
v 0.15 -0.1 0.15
v 0.25 -0.3 0.15
v 0.25 -0.2 0.15
v 0.25 -0.1 0.15
v 0.25 0 0.15
v 0.25 0.2 0.15
v 0.35 -0.3 0.15
v 0.35 -0.2 0.15
v 0.35 -0.1 0.15
v 0.35 0 0.15
v 0.35 0.1 0.15
v 0.45 -0.2 0.15
v 0.45 -0.1 0.15
v 0.45 0.1 0.15
v 0.45 0.2 0.15
v -0.35 -0.2 0.05
v -0.35 -0.1 0.05
v -0.25 -0.2 0.05
v -0.25 -0.1 0.05
v 0.25 -0.2 0.05
v 0.25 -0.1 0.05
v 0.35 -0.2 0.05
v 0.35 -0.1 0.05
v -0.45 -0.2 -0.25
v -0.45 -0.1 -0.25
v -0.35 -0.3 -0.25
v -0.35 -0.2 -0.25
v -0.35 -0.1 -0.25
v -0.35 0 -0.25
v -0.35 0.2 -0.25
v -0.25 -0.3 -0.25
v -0.25 -0.2 -0.25
v -0.25 -0.1 -0.25
v -0.25 0 -0.25
v -0.25 0.1 -0.25
v -0.15 -0.2 -0.25
v -0.15 -0.1 -0.25
v -0.15 0.1 -0.25
v -0.15 0.2 -0.25
v 0.15 -0.2 -0.25
v 0.15 -0.1 -0.25
v 0.25 -0.3 -0.25
v 0.25 -0.2 -0.25
v 0.25 -0.1 -0.25
v 0.25 0 -0.25
v 0.25 0.2 -0.25
v 0.35 -0.3 -0.25
v 0.35 -0.2 -0.25
v 0.35 -0.1 -0.25
v 0.35 0 -0.25
v 0.35 0.1 -0.25
v 0.45 -0.2 -0.25
v 0.45 -0.1 -0.25
v 0.45 0.1 -0.25
v 0.45 0.2 -0.25
v -0.35 -0.4 -0.35
v -0.35 -0.3 -0.35
v -0.35 -0.2 -0.35
v -0.35 -0.1 -0.35
v -0.25 -0.4 -0.35
v -0.25 -0.3 -0.35
v -0.25 -0.2 -0.35
v -0.25 -0.1 -0.35
v -0.05 -0.4 -0.35
v -0.05 -0.3 -0.35
v 0.05 -0.4 -0.35
v 0.05 -0.3 -0.35
v 0.25 -0.4 -0.35
v 0.25 -0.3 -0.35
v 0.25 -0.2 -0.35
v 0.25 -0.1 -0.35
v 0.35 -0.4 -0.35
v 0.35 -0.3 -0.35
v 0.35 -0.2 -0.35
v 0.35 -0.1 -0.35
v -0.45 -0.5 -0.45
v -0.45 -0.4 -0.45
v 0.45 -0.5 -0.45
v 0.45 -0.4 -0.45
v -0.45 -0.5 0.45
v 0.45 -0.5 0.45
v -0.45 -0.5 -0.45
v 0.45 -0.5 -0.45
v -0.35 -0.2 0.35
v -0.25 -0.2 0.35
v 0.25 -0.2 0.35
v 0.35 -0.2 0.35
v -0.45 -0.2 0.25
v -0.35 -0.2 0.25
v -0.25 -0.2 0.25
v -0.15 -0.2 0.25
v 0.15 -0.2 0.25
v 0.25 -0.2 0.25
v 0.35 -0.2 0.25
v 0.45 -0.2 0.25
v -0.45 -0.2 0.15
v -0.35 -0.2 0.15
v -0.25 -0.2 0.15
v -0.15 -0.2 0.15
v 0.15 -0.2 0.15
v 0.25 -0.2 0.15
v 0.35 -0.2 0.15
v 0.45 -0.2 0.15
v -0.35 -0.2 0.05
v -0.25 -0.2 0.05
v 0.25 -0.2 0.05
v 0.35 -0.2 0.05
v -0.35 -0.2 -0.05
v -0.25 -0.2 -0.05
v 0.25 -0.2 -0.05
v 0.35 -0.2 -0.05
v -0.45 -0.2 -0.15
v -0.35 -0.2 -0.15
v -0.25 -0.2 -0.15
v -0.15 -0.2 -0.15
v 0.15 -0.2 -0.15
v 0.25 -0.2 -0.15
v 0.35 -0.2 -0.15
v 0.45 -0.2 -0.15
v -0.45 -0.2 -0.25
v -0.35 -0.2 -0.25
v -0.25 -0.2 -0.25
v -0.15 -0.2 -0.25
v 0.15 -0.2 -0.25
v 0.25 -0.2 -0.25
v 0.35 -0.2 -0.25
v 0.45 -0.2 -0.25
v -0.35 -0.2 -0.35
v -0.25 -0.2 -0.35
v 0.25 -0.2 -0.35
v 0.35 -0.2 -0.35
v -0.35 0.1 0.35
v -0.25 0.1 0.35
v 0.25 0.1 0.35
v 0.35 0.1 0.35
v -0.35 0.1 0.25
v -0.25 0.1 0.25
v -0.15 0.1 0.25
v 0.25 0.1 0.25
v 0.35 0.1 0.25
v 0.45 0.1 0.25
v -0.25 0.1 0.15
v -0.15 0.1 0.15
v 0.35 0.1 0.15
v 0.45 0.1 0.15
v -0.35 0.1 -0.05
v -0.25 0.1 -0.05
v 0.25 0.1 -0.05
v 0.35 0.1 -0.05
v -0.35 0.1 -0.15
v -0.25 0.1 -0.15
v -0.15 0.1 -0.15
v 0.25 0.1 -0.15
v 0.35 0.1 -0.15
v 0.45 0.1 -0.15
v -0.25 0.1 -0.25
v -0.15 0.1 -0.25
v 0.35 0.1 -0.25
v 0.45 0.1 -0.25
v -0.45 -0.4 0.45
v 0.45 -0.4 0.45
v -0.35 -0.4 0.35
v -0.25 -0.4 0.35
v -0.05 -0.4 0.35
v 0.05 -0.4 0.35
v 0.25 -0.4 0.35
v 0.35 -0.4 0.35
v -0.35 -0.4 -0.35
v -0.25 -0.4 -0.35
v -0.05 -0.4 -0.35
v 0.05 -0.4 -0.35
v 0.25 -0.4 -0.35
v 0.35 -0.4 -0.35
v -0.45 -0.4 -0.45
v 0.45 -0.4 -0.45
v -0.35 -0.3 0.35
v -0.25 -0.3 0.35
v -0.05 -0.3 0.35
v 0.05 -0.3 0.35
v 0.25 -0.3 0.35
v 0.35 -0.3 0.35
v -0.35 -0.3 0.25
v -0.25 -0.3 0.25
v 0.25 -0.3 0.25
v 0.35 -0.3 0.25
v -0.35 -0.3 0.15
v -0.25 -0.3 0.15
v 0.25 -0.3 0.15
v 0.35 -0.3 0.15
v -0.35 -0.3 -0.15
v -0.25 -0.3 -0.15
v 0.25 -0.3 -0.15
v 0.35 -0.3 -0.15
v -0.35 -0.3 -0.25
v -0.25 -0.3 -0.25
v 0.25 -0.3 -0.25
v 0.35 -0.3 -0.25
v -0.35 -0.3 -0.35
v -0.25 -0.3 -0.35
v -0.05 -0.3 -0.35
v 0.05 -0.3 -0.35
v 0.25 -0.3 -0.35
v 0.35 -0.3 -0.35
v -0.35 -0.1 0.35
v -0.25 -0.1 0.35
v 0.25 -0.1 0.35
v 0.35 -0.1 0.35
v -0.45 -0.1 0.25
v -0.35 -0.1 0.25
v -0.25 -0.1 0.25
v -0.15 -0.1 0.25
v 0.15 -0.1 0.25
v 0.25 -0.1 0.25
v 0.35 -0.1 0.25
v 0.45 -0.1 0.25
v -0.45 -0.1 0.15
v -0.35 -0.1 0.15
v -0.25 -0.1 0.15
v -0.15 -0.1 0.15
v 0.15 -0.1 0.15
v 0.25 -0.1 0.15
v 0.35 -0.1 0.15
v 0.45 -0.1 0.15
v -0.35 -0.1 0.05
v -0.25 -0.1 0.05
v 0.25 -0.1 0.05
v 0.35 -0.1 0.05
v -0.35 -0.1 -0.05
v -0.25 -0.1 -0.05
v 0.25 -0.1 -0.05
v 0.35 -0.1 -0.05
v -0.45 -0.1 -0.15
v -0.35 -0.1 -0.15
v -0.25 -0.1 -0.15
v -0.15 -0.1 -0.15
v 0.15 -0.1 -0.15
v 0.25 -0.1 -0.15
v 0.35 -0.1 -0.15
v 0.45 -0.1 -0.15
v -0.45 -0.1 -0.25
v -0.35 -0.1 -0.25
v -0.25 -0.1 -0.25
v -0.15 -0.1 -0.25
v 0.15 -0.1 -0.25
v 0.25 -0.1 -0.25
v 0.35 -0.1 -0.25
v 0.45 -0.1 -0.25
v -0.35 -0.1 -0.35
v -0.25 -0.1 -0.35
v 0.25 -0.1 -0.35
v 0.35 -0.1 -0.35
v -0.35 0.2 0.35
v -0.25 0.2 0.35
v 0.25 0.2 0.35
v 0.35 0.2 0.35
v -0.25 0.2 0.25
v -0.15 0.2 0.25
v 0.35 0.2 0.25
v 0.45 0.2 0.25
v -0.35 0.2 0.15
v -0.15 0.2 0.15
v 0.25 0.2 0.15
v 0.45 0.2 0.15
v -0.35 0.2 -0.05
v -0.25 0.2 -0.05
v 0.25 0.2 -0.05
v 0.35 0.2 -0.05
v -0.25 0.2 -0.15
v -0.15 0.2 -0.15
v 0.35 0.2 -0.15
v 0.45 0.2 -0.15
v -0.35 0.2 -0.25
v -0.15 0.2 -0.25
v 0.25 0.2 -0.25
v 0.45 0.2 -0.25

# faces
f 3/3/1 2/3/1 1/3/1
f 4/3/1 2/3/1 3/3/1
f 9/2/1 6/2/1 5/2/1
f 10/2/1 6/2/1 9/2/1
f 11/2/1 8/2/1 7/2/1
f 12/2/1 8/2/1 11/2/1
f 15/4/1 14/4/1 13/4/1
f 16/4/1 14/4/1 15/4/1
f 17/4/1 14/4/1 16/4/1
f 18/4/1 14/4/1 17/4/1
f 19/4/1 14/4/1 18/4/1
f 20/4/1 14/4/1 19/4/1
f 22/2/1 17/2/1 16/2/1
f 23/2/1 17/2/1 22/2/1
f 26/2/1 19/2/1 18/2/1
f 27/2/1 19/2/1 26/2/1
f 29/2/1 22/2/1 21/2/1
f 30/2/1 22/2/1 29/2/1
f 31/2/1 24/2/1 23/2/1
f 32/2/1 24/2/1 31/2/1
f 33/2/1 26/2/1 25/2/1
f 34/2/1 26/2/1 33/2/1
f 35/2/1 28/2/1 27/2/1
f 36/2/1 28/2/1 35/2/1
f 37/2/1 31/2/1 30/2/1
f 38/2/1 31/2/1 37/2/1
f 39/2/1 35/2/1 34/2/1
f 40/2/1 35/2/1 39/2/1
f 42/1/1 38/1/1 37/1/1
f 44/1/1 40/1/1 39/1/1
f 45/1/1 42/1/1 41/1/1
f 46/1/1 38/1/1 42/1/1
f 46/1/1 42/1/1 45/1/1
f 47/1/1 44/1/1 43/1/1
f 48/1/1 40/1/1 44/1/1
f 48/1/1 44/1/1 47/1/1
f 51/4/1 50/4/1 49/4/1
f 52/4/1 50/4/1 51/4/1
f 57/2/1 54/2/1 53/2/1
f 58/2/1 54/2/1 57/2/1
f 59/2/1 56/2/1 55/2/1
f 60/2/1 56/2/1 59/2/1
f 63/4/1 62/4/1 61/4/1
f 64/4/1 62/4/1 63/4/1
f 65/4/1 62/4/1 64/4/1
f 66/4/1 62/4/1 65/4/1
f 67/4/1 62/4/1 66/4/1
f 68/4/1 62/4/1 67/4/1
f 70/2/1 65/2/1 64/2/1
f 71/2/1 65/2/1 70/2/1
f 74/2/1 67/2/1 66/2/1
f 75/2/1 67/2/1 74/2/1
f 77/2/1 70/2/1 69/2/1
f 78/2/1 70/2/1 77/2/1
f 79/2/1 72/2/1 71/2/1
f 80/2/1 72/2/1 79/2/1
f 81/2/1 74/2/1 73/2/1
f 82/2/1 74/2/1 81/2/1
f 83/2/1 76/2/1 75/2/1
f 84/2/1 76/2/1 83/2/1
f 85/2/1 79/2/1 78/2/1
f 86/2/1 79/2/1 85/2/1
f 87/2/1 83/2/1 82/2/1
f 88/2/1 83/2/1 87/2/1
f 90/1/1 86/1/1 85/1/1
f 92/1/1 88/1/1 87/1/1
f 93/1/1 90/1/1 89/1/1
f 94/1/1 86/1/1 90/1/1
f 94/1/1 90/1/1 93/1/1
f 95/1/1 92/1/1 91/1/1
f 96/1/1 88/1/1 92/1/1
f 96/1/1 92/1/1 95/1/1
f 97/4/2 98/4/2 99/4/2
f 99/4/2 98/4/2 100/4/2
f 100/4/2 98/4/2 101/4/2
f 101/4/2 98/4/2 102/4/2
f 102/4/2 98/4/2 103/4/2
f 103/4/2 98/4/2 104/4/2
f 100/2/2 101/2/2 106/2/2
f 106/2/2 101/2/2 107/2/2
f 102/2/2 103/2/2 110/2/2
f 110/2/2 103/2/2 111/2/2
f 105/2/2 106/2/2 113/2/2
f 113/2/2 106/2/2 114/2/2
f 107/2/2 108/2/2 115/2/2
f 115/2/2 108/2/2 116/2/2
f 109/2/2 110/2/2 117/2/2
f 117/2/2 110/2/2 118/2/2
f 111/2/2 112/2/2 119/2/2
f 119/2/2 112/2/2 120/2/2
f 114/2/2 115/2/2 121/2/2
f 121/2/2 115/2/2 122/2/2
f 118/2/2 119/2/2 123/2/2
f 123/2/2 119/2/2 124/2/2
f 121/1/2 122/1/2 126/1/2
f 126/1/2 122/1/2 127/1/2
f 123/1/2 124/1/2 129/1/2
f 129/1/2 124/1/2 130/1/2
f 125/1/2 126/1/2 131/1/2
f 131/1/2 126/1/2 132/1/2
f 128/1/2 129/1/2 133/1/2
f 133/1/2 129/1/2 134/1/2
f 135/2/2 136/2/2 139/2/2
f 139/2/2 136/2/2 140/2/2
f 137/2/2 138/2/2 141/2/2
f 141/2/2 138/2/2 142/2/2
f 143/1/2 144/1/2 147/1/2
f 147/1/2 144/1/2 148/1/2
f 145/1/2 146/1/2 149/1/2
f 149/1/2 146/1/2 150/1/2
f 151/4/2 152/4/2 153/4/2
f 153/4/2 152/4/2 154/4/2
f 155/4/2 156/4/2 157/4/2
f 157/4/2 156/4/2 158/4/2
f 158/4/2 156/4/2 159/4/2
f 159/4/2 156/4/2 160/4/2
f 160/4/2 156/4/2 161/4/2
f 161/4/2 156/4/2 162/4/2
f 158/2/2 159/2/2 164/2/2
f 164/2/2 159/2/2 165/2/2
f 160/2/2 161/2/2 168/2/2
f 168/2/2 161/2/2 169/2/2
f 163/2/2 164/2/2 171/2/2
f 171/2/2 164/2/2 172/2/2
f 165/2/2 166/2/2 173/2/2
f 173/2/2 166/2/2 174/2/2
f 167/2/2 168/2/2 175/2/2
f 175/2/2 168/2/2 176/2/2
f 169/2/2 170/2/2 177/2/2
f 177/2/2 170/2/2 178/2/2
f 172/2/2 173/2/2 179/2/2
f 179/2/2 173/2/2 180/2/2
f 176/2/2 177/2/2 181/2/2
f 181/2/2 177/2/2 182/2/2
f 179/1/2 180/1/2 184/1/2
f 184/1/2 180/1/2 185/1/2
f 181/1/2 182/1/2 187/1/2
f 187/1/2 182/1/2 188/1/2
f 183/1/2 184/1/2 189/1/2
f 189/1/2 184/1/2 190/1/2
f 186/1/2 187/1/2 191/1/2
f 191/1/2 187/1/2 192/1/2
f 193/3/2 194/3/2 195/3/2
f 195/3/2 194/3/2 196/3/2
f 197/2/2 198/2/2 201/2/2
f 201/2/2 198/2/2 202/2/2
f 199/2/2 200/2/2 203/2/2
f 203/2/2 200/2/2 204/2/2
f 205/1/2 206/1/2 209/1/2
f 209/1/2 206/1/2 210/1/2
f 207/1/2 208/1/2 211/1/2
f 211/1/2 208/1/2 212/1/2
f 215/3/3 214/3/3 213/3/3
f 216/3/3 214/3/3 215/3/3
f 223/4/3 218/4/3 217/4/3
f 224/4/3 218/4/3 223/4/3
f 225/2/3 220/2/3 219/2/3
f 226/2/3 220/2/3 225/2/3
f 227/1/3 222/1/3 221/1/3
f 228/1/3 222/1/3 227/1/3
f 231/4/3 230/4/3 229/4/3
f 232/4/3 230/4/3 231/4/3
f 239/4/3 234/4/3 233/4/3
f 240/4/3 234/4/3 239/4/3
f 241/2/3 236/2/3 235/2/3
f 242/2/3 236/2/3 241/2/3
f 243/1/3 238/1/3 237/1/3
f 244/1/3 238/1/3 243/1/3
f 248/2/3 246/2/3 245/2/3
f 249/2/3 246/2/3 248/2/3
f 252/2/3 248/2/3 247/2/3
f 253/2/3 248/2/3 252/2/3
f 254/2/3 250/2/3 249/2/3
f 255/1/3 251/1/3 250/1/3
f 255/2/3 250/2/3 254/2/3
f 256/1/3 251/1/3 255/1/3
f 258/2/3 254/2/3 253/2/3
f 259/2/3 254/2/3 258/2/3
f 260/1/3 257/1/3 256/1/3
f 261/1/3 257/1/3 260/1/3
f 265/2/3 263/2/3 262/2/3
f 266/2/3 263/2/3 265/2/3
f 269/2/3 265/2/3 264/2/3
f 270/2/3 265/2/3 269/2/3
f 271/2/3 267/2/3 266/2/3
f 272/1/3 268/1/3 267/1/3
f 272/2/3 267/2/3 271/2/3
f 273/1/3 268/1/3 272/1/3
f 275/2/3 271/2/3 270/2/3
f 276/2/3 271/2/3 275/2/3
f 277/1/3 274/1/3 273/1/3
f 278/1/3 274/1/3 277/1/3
f 283/2/3 280/2/3 279/2/3
f 284/2/3 280/2/3 283/2/3
f 285/1/3 282/1/3 281/1/3
f 286/1/3 282/1/3 285/1/3
f 291/2/3 288/2/3 287/2/3
f 292/2/3 288/2/3 291/2/3
f 293/1/3 290/1/3 289/1/3
f 294/1/3 290/1/3 293/1/3
f 298/2/3 296/2/3 295/2/3
f 299/2/3 296/2/3 298/2/3
f 302/2/3 298/2/3 297/2/3
f 303/2/3 298/2/3 302/2/3
f 304/2/3 300/2/3 299/2/3
f 305/1/3 301/1/3 300/1/3
f 305/2/3 300/2/3 304/2/3
f 306/1/3 301/1/3 305/1/3
f 308/2/3 304/2/3 303/2/3
f 309/2/3 304/2/3 308/2/3
f 310/1/3 307/1/3 306/1/3
f 311/1/3 307/1/3 310/1/3
f 315/2/3 313/2/3 312/2/3
f 316/2/3 313/2/3 315/2/3
f 319/2/3 315/2/3 314/2/3
f 320/2/3 315/2/3 319/2/3
f 321/2/3 317/2/3 316/2/3
f 322/1/3 318/1/3 317/1/3
f 322/2/3 317/2/3 321/2/3
f 323/1/3 318/1/3 322/1/3
f 325/2/3 321/2/3 320/2/3
f 326/2/3 321/2/3 325/2/3
f 327/1/3 324/1/3 323/1/3
f 328/1/3 324/1/3 327/1/3
f 329/2/4 330/2/4 332/2/4
f 332/2/4 330/2/4 333/2/4
f 331/2/4 332/2/4 336/2/4
f 336/2/4 332/2/4 337/2/4
f 333/2/4 334/2/4 338/2/4
f 334/1/4 335/1/4 339/1/4
f 338/2/4 334/2/4 339/2/4
f 339/1/4 335/1/4 340/1/4
f 337/2/4 338/2/4 341/2/4
f 341/2/4 338/2/4 342/2/4
f 340/1/4 335/1/4 343/1/4
f 343/1/4 335/1/4 344/1/4
f 345/2/4 346/2/4 348/2/4
f 348/2/4 346/2/4 349/2/4
f 347/2/4 348/2/4 352/2/4
f 352/2/4 348/2/4 353/2/4
f 349/2/4 350/2/4 354/2/4
f 350/1/4 351/1/4 355/1/4
f 354/2/4 350/2/4 355/2/4
f 355/1/4 351/1/4 356/1/4
f 353/2/4 354/2/4 357/2/4
f 357/2/4 354/2/4 358/2/4
f 356/1/4 351/1/4 359/1/4
f 359/1/4 351/1/4 360/1/4
f 361/2/4 362/2/4 363/2/4
f 363/2/4 362/2/4 364/2/4
f 365/2/4 366/2/4 367/2/4
f 367/2/4 366/2/4 368/2/4
f 369/2/4 370/2/4 372/2/4
f 372/2/4 370/2/4 373/2/4
f 371/2/4 372/2/4 376/2/4
f 376/2/4 372/2/4 377/2/4
f 373/2/4 374/2/4 378/2/4
f 374/1/4 375/1/4 379/1/4
f 378/2/4 374/2/4 379/2/4
f 379/1/4 375/1/4 380/1/4
f 377/2/4 378/2/4 381/2/4
f 381/2/4 378/2/4 382/2/4
f 380/1/4 375/1/4 383/1/4
f 383/1/4 375/1/4 384/1/4
f 385/2/4 386/2/4 388/2/4
f 388/2/4 386/2/4 389/2/4
f 387/2/4 388/2/4 392/2/4
f 392/2/4 388/2/4 393/2/4
f 389/2/4 390/2/4 394/2/4
f 390/1/4 391/1/4 395/1/4
f 394/2/4 390/2/4 395/2/4
f 395/1/4 391/1/4 396/1/4
f 393/2/4 394/2/4 397/2/4
f 397/2/4 394/2/4 398/2/4
f 396/1/4 391/1/4 399/1/4
f 399/1/4 391/1/4 400/1/4
f 401/4/4 402/4/4 405/4/4
f 405/4/4 402/4/4 406/4/4
f 403/2/4 404/2/4 407/2/4
f 407/2/4 404/2/4 408/2/4
f 409/4/4 410/4/4 411/4/4
f 411/4/4 410/4/4 412/4/4
f 413/4/4 414/4/4 417/4/4
f 417/4/4 414/4/4 418/4/4
f 415/2/4 416/2/4 419/2/4
f 419/2/4 416/2/4 420/2/4
f 421/3/4 422/3/4 423/3/4
f 423/3/4 422/3/4 424/3/4
f 427/3/5 426/3/5 425/3/5
f 428/3/5 426/3/5 427/3/5
f 434/2/5 430/2/5 429/2/5
f 435/2/5 430/2/5 434/2/5
f 438/2/5 432/2/5 431/2/5
f 439/2/5 432/2/5 438/2/5
f 441/2/5 434/2/5 433/2/5
f 442/2/5 434/2/5 441/2/5
f 443/2/5 436/2/5 435/2/5
f 444/2/5 436/2/5 443/2/5
f 445/2/5 438/2/5 437/2/5
f 446/2/5 438/2/5 445/2/5
f 447/2/5 440/2/5 439/2/5
f 448/2/5 440/2/5 447/2/5
f 449/2/5 443/2/5 442/2/5
f 450/2/5 443/2/5 449/2/5
f 451/2/5 447/2/5 446/2/5
f 452/2/5 447/2/5 451/2/5
f 458/2/5 454/2/5 453/2/5
f 459/2/5 454/2/5 458/2/5
f 462/2/5 456/2/5 455/2/5
f 463/2/5 456/2/5 462/2/5
f 465/2/5 458/2/5 457/2/5
f 466/2/5 458/2/5 465/2/5
f 467/2/5 460/2/5 459/2/5
f 468/2/5 460/2/5 467/2/5
f 469/2/5 462/2/5 461/2/5
f 470/2/5 462/2/5 469/2/5
f 471/2/5 464/2/5 463/2/5
f 472/2/5 464/2/5 471/2/5
f 473/2/5 467/2/5 466/2/5
f 474/2/5 467/2/5 473/2/5
f 475/2/5 471/2/5 470/2/5
f 476/2/5 471/2/5 475/2/5
f 481/1/5 478/1/5 477/1/5
f 482/1/5 478/1/5 481/1/5
f 484/1/5 480/1/5 479/1/5
f 485/1/5 480/1/5 484/1/5
f 487/1/5 483/1/5 482/1/5
f 488/1/5 483/1/5 487/1/5
f 489/1/5 486/1/5 485/1/5
f 490/1/5 486/1/5 489/1/5
f 495/1/5 492/1/5 491/1/5
f 496/1/5 492/1/5 495/1/5
f 498/1/5 494/1/5 493/1/5
f 499/1/5 494/1/5 498/1/5
f 501/1/5 497/1/5 496/1/5
f 502/1/5 497/1/5 501/1/5
f 503/1/5 500/1/5 499/1/5
f 504/1/5 500/1/5 503/1/5
f 505/3/6 506/3/6 507/3/6
f 507/3/6 506/3/6 508/3/6
f 508/3/6 506/3/6 509/3/6
f 509/3/6 506/3/6 510/3/6
f 510/3/6 506/3/6 511/3/6
f 511/3/6 506/3/6 512/3/6
f 505/3/6 507/3/6 513/3/6
f 508/3/6 509/3/6 514/3/6
f 514/3/6 509/3/6 515/3/6
f 510/3/6 511/3/6 516/3/6
f 516/3/6 511/3/6 517/3/6
f 512/3/6 506/3/6 518/3/6
f 516/3/6 517/3/6 519/3/6
f 517/3/6 518/3/6 519/3/6
f 514/3/6 515/3/6 519/3/6
f 505/3/6 513/3/6 519/3/6
f 515/3/6 516/3/6 519/3/6
f 513/3/6 514/3/6 519/3/6
f 518/3/6 506/3/6 520/3/6
f 519/3/6 518/3/6 520/3/6
f 521/4/6 522/4/6 527/4/6
f 527/4/6 522/4/6 528/4/6
f 525/4/6 526/4/6 529/4/6
f 529/4/6 526/4/6 530/4/6
f 531/4/6 532/4/6 535/4/6
f 535/4/6 532/4/6 536/4/6
f 533/4/6 534/4/6 537/4/6
f 537/4/6 534/4/6 538/4/6
f 539/4/6 540/4/6 543/4/6
f 543/4/6 540/4/6 544/4/6
f 523/4/6 524/4/6 545/4/6
f 545/4/6 524/4/6 546/4/6
f 541/4/6 542/4/6 547/4/6
f 547/4/6 542/4/6 548/4/6
f 549/2/6 550/2/6 554/2/6
f 554/2/6 550/2/6 555/2/6
f 551/2/6 552/2/6 558/2/6
f 558/2/6 552/2/6 559/2/6
f 553/2/6 554/2/6 561/2/6
f 561/2/6 554/2/6 562/2/6
f 555/2/6 556/2/6 563/2/6
f 563/2/6 556/2/6 564/2/6
f 557/2/6 558/2/6 565/2/6
f 565/2/6 558/2/6 566/2/6
f 559/2/6 560/2/6 567/2/6
f 567/2/6 560/2/6 568/2/6
f 562/2/6 563/2/6 569/2/6
f 569/2/6 563/2/6 570/2/6
f 566/2/6 567/2/6 571/2/6
f 571/2/6 567/2/6 572/2/6
f 573/2/6 574/2/6 578/2/6
f 578/2/6 574/2/6 579/2/6
f 575/2/6 576/2/6 582/2/6
f 582/2/6 576/2/6 583/2/6
f 577/2/6 578/2/6 585/2/6
f 585/2/6 578/2/6 586/2/6
f 579/2/6 580/2/6 587/2/6
f 587/2/6 580/2/6 588/2/6
f 581/2/6 582/2/6 589/2/6
f 589/2/6 582/2/6 590/2/6
f 583/2/6 584/2/6 591/2/6
f 591/2/6 584/2/6 592/2/6
f 586/2/6 587/2/6 593/2/6
f 593/2/6 587/2/6 594/2/6
f 590/2/6 591/2/6 595/2/6
f 595/2/6 591/2/6 596/2/6
f 597/1/6 598/1/6 601/1/6
f 599/1/6 600/1/6 603/1/6
f 601/1/6 602/1/6 605/1/6
f 597/1/6 601/1/6 605/1/6
f 605/1/6 602/1/6 606/1/6
f 603/1/6 604/1/6 607/1/6
f 599/1/6 603/1/6 607/1/6
f 607/1/6 604/1/6 608/1/6
f 609/1/6 610/1/6 613/1/6
f 611/1/6 612/1/6 615/1/6
f 613/1/6 614/1/6 617/1/6
f 609/1/6 613/1/6 617/1/6
f 617/1/6 614/1/6 618/1/6
f 615/1/6 616/1/6 619/1/6
f 611/1/6 615/1/6 619/1/6
f 619/1/6 616/1/6 620/1/6
